<?xml version="1.0" standalone="no"?>
<!DOCTYPE svg PUBLIC "-//W3C//DTD SVG 1.1//EN" "http://www.w3.org/Graphics/SVG/1.1/DTD/svg11.dtd">
<svg width="100%" height="100%" viewBox="0 0 512 200" version="1.1" xmlns="http://www.w3.org/2000/svg" xmlns:xlink="http://www.w3.org/1999/xlink" xml:space="preserve" style="fill-rule:evenodd;clip-rule:evenodd;stroke-linecap:round;stroke-linejoin:round;stroke-miterlimit:1.41421;">
    <g transform="matrix(1,0,0,1,-1193.97,-11.381)">
        <g id="3a" transform="matrix(0.4,-5.53037e-18,-1.97922e-17,0.25,1193.97,11.381)">
            <g transform="matrix(2.72105,4.96358e-17,2.10957e-16,4.39679,-335.116,-614.208)">
                <path d="M358.163,178.76L271.802,200.582L444.171,200.582L358.163,178.76Z" style="fill:none;stroke-width:3.18px;stroke:rgb(96,96,96);"/>
                <path d="M358.163,178.76L358.163,146.063" style="fill:none;stroke-width:3.18px;stroke:rgb(96,96,96);"/>
                <rect x="277.37" y="200.582" width="160.641" height="12.177" style="fill:none;stroke-width:3.18px;stroke:rgb(96,96,96);"/>
                <path d="M277.37,208.258L438.011,208.258" style="fill:none;stroke-width:3.18px;stroke:rgb(96,96,96);"/>
                <path d="M281.576,200.582L281.576,208.258" style="fill:none;stroke-width:3.18px;stroke:rgb(96,96,96);"/>
                <path d="M287.321,200.582L287.321,208.258" style="fill:none;stroke-width:3.18px;stroke:rgb(96,96,96);"/>
                <path d="M291.764,200.582L291.764,208.258" style="fill:none;stroke-width:3.18px;stroke:rgb(96,96,96);"/>
                <path d="M297.006,200.582L297.006,208.258" style="fill:none;stroke-width:3.18px;stroke:rgb(96,96,96);"/>
                <path d="M301.449,200.582L301.449,208.258" style="fill:none;stroke-width:3.18px;stroke:rgb(96,96,96);"/>
                <path d="M306.779,200.582L306.779,208.258" style="fill:none;stroke-width:3.18px;stroke:rgb(96,96,96);"/>
                <path d="M311.222,200.582L311.222,208.258" style="fill:none;stroke-width:3.18px;stroke:rgb(96,96,96);"/>
                <path d="M316.464,200.582L316.464,208.258" style="fill:none;stroke-width:3.18px;stroke:rgb(96,96,96);"/>
                <path d="M320.906,200.582L320.906,208.258" style="fill:none;stroke-width:3.18px;stroke:rgb(96,96,96);"/>
                <path d="M326.859,200.582L326.859,208.258" style="fill:none;stroke-width:3.18px;stroke:rgb(96,96,96);"/>
                <path d="M331.302,200.582L331.302,208.258" style="fill:none;stroke-width:3.18px;stroke:rgb(96,96,96);"/>
                <path d="M336.544,200.582L336.544,208.258" style="fill:none;stroke-width:3.18px;stroke:rgb(96,96,96);"/>
                <path d="M340.986,200.582L340.986,208.258" style="fill:none;stroke-width:3.18px;stroke:rgb(96,96,96);"/>
                <path d="M346.288,200.582L346.288,208.258" style="fill:none;stroke-width:3.18px;stroke:rgb(96,96,96);"/>
                <path d="M350.73,200.582L350.73,208.258" style="fill:none;stroke-width:3.18px;stroke:rgb(96,96,96);"/>
                <path d="M355.973,200.582L355.973,208.258" style="fill:none;stroke-width:3.18px;stroke:rgb(96,96,96);"/>
                <path d="M360.415,200.582L360.415,208.258" style="fill:none;stroke-width:3.18px;stroke:rgb(96,96,96);"/>
                <path d="M366.131,200.582L366.131,208.258" style="fill:none;stroke-width:3.18px;stroke:rgb(96,96,96);"/>
                <path d="M370.573,200.582L370.573,208.258" style="fill:none;stroke-width:3.18px;stroke:rgb(96,96,96);"/>
                <path d="M375.815,200.582L375.815,208.258" style="fill:none;stroke-width:3.18px;stroke:rgb(96,96,96);"/>
                <path d="M380.259,200.582L380.259,208.258" style="fill:none;stroke-width:3.18px;stroke:rgb(96,96,96);"/>
                <path d="M385.619,200.639L385.619,208.314" style="fill:none;stroke-width:3.18px;stroke:rgb(96,96,96);"/>
                <path d="M390.062,200.639L390.062,208.314" style="fill:none;stroke-width:3.18px;stroke:rgb(96,96,96);"/>
                <path d="M395.304,200.639L395.304,208.314" style="fill:none;stroke-width:3.18px;stroke:rgb(96,96,96);"/>
                <path d="M399.745,200.639L399.745,208.314" style="fill:none;stroke-width:3.18px;stroke:rgb(96,96,96);"/>
                <path d="M405.64,200.639L405.64,208.315" style="fill:none;stroke-width:3.18px;stroke:rgb(96,96,96);"/>
                <path d="M410.082,200.639L410.082,208.315" style="fill:none;stroke-width:3.18px;stroke:rgb(96,96,96);"/>
                <path d="M415.324,200.639L415.324,208.315" style="fill:none;stroke-width:3.18px;stroke:rgb(96,96,96);"/>
                <path d="M419.767,200.639L419.767,208.315" style="fill:none;stroke-width:3.18px;stroke:rgb(96,96,96);"/>
                <path d="M426.193,200.582L426.193,208.258" style="fill:none;stroke-width:3.18px;stroke:rgb(96,96,96);"/>
                <path d="M430.636,200.582L430.636,208.258" style="fill:none;stroke-width:3.18px;stroke:rgb(96,96,96);"/>
                <path d="M435.878,200.582L435.878,208.258" style="fill:none;stroke-width:3.18px;stroke:rgb(96,96,96);"/>
                <rect x="173.655" y="200.582" width="56.115" height="12.177" style="fill:none;stroke-width:3.18px;stroke:rgb(96,96,96);"/>
                <path d="M173.655,208.258L229.77,208.258" style="fill:none;stroke-width:3.18px;stroke:rgb(96,96,96);"/>
                <path d="M177.86,200.582L177.86,208.258" style="fill:none;stroke-width:3.18px;stroke:rgb(96,96,96);"/>
                <path d="M183.606,200.582L183.606,208.258" style="fill:none;stroke-width:3.18px;stroke:rgb(96,96,96);"/>
                <path d="M188.048,200.582L188.048,208.258" style="fill:none;stroke-width:3.18px;stroke:rgb(96,96,96);"/>
                <path d="M193.291,200.582L193.291,208.258" style="fill:none;stroke-width:3.18px;stroke:rgb(96,96,96);"/>
                <path d="M197.733,200.582L197.733,208.258" style="fill:none;stroke-width:3.18px;stroke:rgb(96,96,96);"/>
                <path d="M203.064,200.582L203.064,208.258" style="fill:none;stroke-width:3.18px;stroke:rgb(96,96,96);"/>
                <path d="M207.506,200.582L207.506,208.258" style="fill:none;stroke-width:3.18px;stroke:rgb(96,96,96);"/>
                <path d="M212.749,200.582L212.749,208.258" style="fill:none;stroke-width:3.18px;stroke:rgb(96,96,96);"/>
                <path d="M217.191,200.582L217.191,208.258" style="fill:none;stroke-width:3.18px;stroke:rgb(96,96,96);"/>
                <path d="M223.144,200.582L223.144,208.258" style="fill:none;stroke-width:3.18px;stroke:rgb(96,96,96);"/>
                <path d="M226.866,200.582L226.866,208.258" style="fill:none;stroke-width:3.18px;stroke:rgb(96,96,96);"/>
                <g>
                    <path d="M285.487,215.129C285.487,216.306 284.532,217.261 283.355,217.261L278.735,217.261C277.557,217.261 276.603,216.306 276.603,215.129L276.603,214.892C276.603,213.715 277.558,212.76 278.735,212.76L283.355,212.76C284.533,212.76 285.487,213.715 285.487,214.892L285.487,215.129Z" style="fill:none;stroke-width:3.18px;stroke:rgb(96,96,96);"/>
                    <path d="M285.169,256.355L277.048,256.355L278.328,217.261L283.762,217.261L285.169,256.355Z" style="fill:none;stroke-width:3.18px;stroke:rgb(96,96,96);"/>
                </g>
                <g>
                    <path d="M181.885,215.129C181.885,216.306 180.93,217.261 179.753,217.261L175.133,217.261C173.956,217.261 173.001,216.306 173.001,215.129L173.001,214.892C173.001,213.715 173.956,212.76 175.133,212.76L179.753,212.76C180.931,212.76 181.885,213.715 181.885,214.892L181.885,215.129Z" style="fill:none;stroke-width:3.18px;stroke:rgb(96,96,96);"/>
                    <path d="M173.729,247.698L174.726,217.261L180.16,217.261L181.261,247.824" style="fill:none;stroke-width:3.18px;stroke:rgb(96,96,96);"/>
                </g>
                <g>
                    <path d="M198.058,215.129C198.058,216.306 197.103,217.261 195.926,217.261L191.306,217.261C190.128,217.261 189.173,216.306 189.173,215.129L189.173,214.892C189.173,213.715 190.128,212.76 191.306,212.76L195.926,212.76C197.104,212.76 198.058,213.715 198.058,214.892L198.058,215.129Z" style="fill:none;stroke-width:3.18px;stroke:rgb(96,96,96);"/>
                    <path d="M189.898,247.824L190.899,217.261L196.333,217.261L197.434,247.824" style="fill:none;stroke-width:3.18px;stroke:rgb(96,96,96);"/>
                </g>
                <g>
                    <path d="M214.231,215.129C214.231,216.306 213.276,217.261 212.099,217.261L207.479,217.261C206.302,217.261 205.347,216.306 205.347,215.129L205.347,214.892C205.347,213.715 206.302,212.76 207.479,212.76L212.099,212.76C213.277,212.76 214.231,213.715 214.231,214.892L214.231,215.129Z" style="fill:none;stroke-width:3.18px;stroke:rgb(96,96,96);"/>
                    <path d="M206.071,247.824L207.072,217.261L212.506,217.261L213.607,247.824" style="fill:none;stroke-width:3.18px;stroke:rgb(96,96,96);"/>
                </g>
                <g>
                    <path d="M230.404,215.129C230.404,216.306 229.449,217.261 228.272,217.261L223.652,217.261C222.474,217.261 221.52,216.306 221.52,215.129L221.52,214.892C221.52,213.715 222.475,212.76 223.652,212.76L228.272,212.76C229.45,212.76 230.404,213.715 230.404,214.892L230.404,215.129Z" style="fill:none;stroke-width:3.18px;stroke:rgb(96,96,96);"/>
                    <path d="M222.244,247.824L223.244,217.261L228.679,217.261L229.77,247.57" style="fill:none;stroke-width:3.18px;stroke:rgb(96,96,96);"/>
                </g>
                <g>
                    <path d="M307.757,215.129C307.757,216.306 306.802,217.261 305.624,217.261L301.004,217.261C299.826,217.261 298.872,216.306 298.872,215.129L298.872,214.892C298.872,213.715 299.827,212.76 301.004,212.76L305.624,212.76C306.802,212.76 307.757,213.715 307.757,214.892L307.757,215.129Z" style="fill:none;stroke-width:3.18px;stroke:rgb(96,96,96);"/>
                    <path d="M307.439,256.355L299.317,256.355L300.597,217.261L306.031,217.261L307.439,256.355Z" style="fill:none;stroke-width:3.18px;stroke:rgb(96,96,96);"/>
                </g>
                <g>
                    <path d="M329.182,215.129C329.182,216.306 328.227,217.261 327.05,217.261L322.43,217.261C321.252,217.261 320.298,216.306 320.298,215.129L320.298,214.892C320.298,213.715 321.253,212.76 322.43,212.76L327.05,212.76C328.228,212.76 329.182,213.715 329.182,214.892L329.182,215.129Z" style="fill:none;stroke-width:3.18px;stroke:rgb(96,96,96);"/>
                    <path d="M328.864,256.355L320.742,256.355L322.022,217.261L327.457,217.261L328.864,256.355Z" style="fill:none;stroke-width:3.18px;stroke:rgb(96,96,96);"/>
                </g>
                <g>
                    <path d="M351.451,215.129C351.451,216.306 350.496,217.261 349.318,217.261L344.698,217.261C343.521,217.261 342.566,216.306 342.566,215.129L342.566,214.892C342.566,213.715 343.521,212.76 344.698,212.76L349.318,212.76C350.496,212.76 351.451,213.715 351.451,214.892L351.451,215.129Z" style="fill:none;stroke-width:3.18px;stroke:rgb(96,96,96);"/>
                    <path d="M351.134,256.355L343.012,256.355L344.292,217.261L349.726,217.261L351.134,256.355Z" style="fill:none;stroke-width:3.18px;stroke:rgb(96,96,96);"/>
                </g>
                <g>
                    <path d="M372.57,215.129C372.57,216.306 371.615,217.261 370.437,217.261L365.818,217.261C364.64,217.261 363.685,216.306 363.685,215.129L363.685,214.892C363.685,213.715 364.64,212.76 365.818,212.76L370.437,212.76C371.615,212.76 372.57,213.715 372.57,214.892L372.57,215.129Z" style="fill:none;stroke-width:3.18px;stroke:rgb(96,96,96);"/>
                    <path d="M372.253,256.355L364.131,256.355L365.41,217.261L370.845,217.261L372.253,256.355Z" style="fill:none;stroke-width:3.18px;stroke:rgb(96,96,96);"/>
                </g>
                <g>
                    <path d="M394.84,215.129C394.84,216.306 393.885,217.261 392.707,217.261L388.088,217.261C386.91,217.261 385.955,216.306 385.955,215.129L385.955,214.892C385.955,213.715 386.91,212.76 388.088,212.76L392.707,212.76C393.885,212.76 394.84,213.715 394.84,214.892L394.84,215.129Z" style="fill:none;stroke-width:3.18px;stroke:rgb(96,96,96);"/>
                    <path d="M394.522,256.355L386.4,256.355L387.681,217.261L393.114,217.261L394.522,256.355Z" style="fill:none;stroke-width:3.18px;stroke:rgb(96,96,96);"/>
                </g>
                <g>
                    <path d="M416.745,215.129C416.745,216.306 415.791,217.261 414.613,217.261L409.993,217.261C408.815,217.261 407.86,216.306 407.86,215.129L407.86,214.892C407.86,213.715 408.815,212.76 409.993,212.76L414.613,212.76C415.791,212.76 416.745,213.715 416.745,214.892L416.745,215.129Z" style="fill:none;stroke-width:3.18px;stroke:rgb(96,96,96);"/>
                    <path d="M416.428,256.355L408.307,256.355L409.586,217.261L415.021,217.261L416.428,256.355Z" style="fill:none;stroke-width:3.18px;stroke:rgb(96,96,96);"/>
                </g>
                <g>
                    <path d="M439.015,215.129C439.015,216.306 438.061,217.261 436.882,217.261L432.263,217.261C431.085,217.261 430.131,216.306 430.131,215.129L430.131,214.892C430.131,213.715 431.085,212.76 432.263,212.76L436.882,212.76C438.061,212.76 439.015,213.715 439.015,214.892L439.015,215.129Z" style="fill:none;stroke-width:3.18px;stroke:rgb(96,96,96);"/>
                    <path d="M438.697,256.355L430.575,256.355L431.855,217.261L437.29,217.261L438.697,256.355Z" style="fill:none;stroke-width:3.18px;stroke:rgb(96,96,96);"/>
                </g>
                <rect x="268.875" y="256.355" width="177.342" height="4.45" style="fill:none;stroke-width:3.18px;stroke:rgb(96,96,96);"/>
                <rect x="265.057" y="260.805" width="184.978" height="4.45" style="fill:none;stroke-width:3.18px;stroke:rgb(96,96,96);"/>
                <rect x="261.147" y="265.255" width="192.797" height="4.45" style="fill:none;stroke-width:3.18px;stroke:rgb(96,96,96);"/>
                <rect x="256.172" y="269.744" width="202.748" height="4.45" style="fill:none;stroke-width:3.18px;stroke:rgb(96,96,96);"/>
                <rect x="252.262" y="274.194" width="210.567" height="4.45" style="fill:none;stroke-width:3.18px;stroke:rgb(96,96,96);"/>
                <rect x="248.091" y="278.644" width="218.909" height="4.45" style="fill:none;stroke-width:3.18px;stroke:rgb(96,96,96);"/>
                <rect x="243.889" y="283.094" width="227.314" height="4.45" style="fill:none;stroke-width:3.18px;stroke:rgb(96,96,96);"/>
                <path d="M190.049,287.053L190.049,270.332C190.049,266.663 187.416,263.686 184.164,263.686C180.914,263.686 178.279,266.663 178.279,270.332L178.279,287.053" style="fill:none;stroke-width:3.18px;stroke:rgb(96,96,96);"/>
                <path d="M207.656,287.327L207.656,270.606C207.656,266.937 205.022,263.96 201.771,263.96C198.521,263.96 195.886,266.937 195.886,270.606L195.886,287.327" style="fill:none;stroke-width:3.18px;stroke:rgb(96,96,96);"/>
                <path d="M225.263,287.327L225.263,270.606C225.263,266.937 222.63,263.96 219.378,263.96C216.128,263.96 213.493,266.937 213.493,270.606L213.493,287.327" style="fill:none;stroke-width:3.18px;stroke:rgb(96,96,96);"/>
                <path d="M230.138,283.094L243.889,283.094" style="fill:none;stroke-width:3.18px;stroke:rgb(96,96,96);"/>
                <path d="M472.212,283.094L485.963,283.094" style="fill:none;stroke-width:3.18px;stroke:rgb(96,96,96);"/>
                <path d="M277.37,200.582L125.913,200.582L125.913,283.094L173.318,283.094" style="fill:none;stroke-width:3.18px;stroke:rgb(96,96,96);"/>
                <path d="M229.802,248.37L229.802,287.543L173.655,287.543L173.655,248.091" style="fill:none;stroke-width:3.18px;stroke:rgb(96,96,96);"/>
                <path d="M229.802,256.355L173.655,256.355" style="fill:none;stroke-width:3.18px;stroke:rgb(96,96,96);"/>
                <path d="M176.957,248.37L176.957,256.355" style="fill:none;stroke-width:3.18px;stroke:rgb(96,96,96);"/>
                <path d="M181.444,248.37L181.444,256.355" style="fill:none;stroke-width:3.18px;stroke:rgb(96,96,96);"/>
                <path d="M185.927,248.37L185.927,256.355" style="fill:none;stroke-width:3.18px;stroke:rgb(96,96,96);"/>
                <path d="M190.521,248.37L190.521,256.355" style="fill:none;stroke-width:3.18px;stroke:rgb(96,96,96);"/>
                <path d="M195.008,248.37L195.008,256.355" style="fill:none;stroke-width:3.18px;stroke:rgb(96,96,96);"/>
                <path d="M199.491,248.37L199.491,256.355" style="fill:none;stroke-width:3.18px;stroke:rgb(96,96,96);"/>
                <path d="M204.306,248.37L204.306,256.355" style="fill:none;stroke-width:3.18px;stroke:rgb(96,96,96);"/>
                <path d="M208.793,248.37L208.793,256.355" style="fill:none;stroke-width:3.18px;stroke:rgb(96,96,96);"/>
                <path d="M213.276,248.37L213.276,256.355" style="fill:none;stroke-width:3.18px;stroke:rgb(96,96,96);"/>
                <path d="M217.754,248.37L217.754,256.355" style="fill:none;stroke-width:3.18px;stroke:rgb(96,96,96);"/>
                <path d="M222.241,248.37L222.241,256.355" style="fill:none;stroke-width:3.18px;stroke:rgb(96,96,96);"/>
                <path d="M226.724,248.37L226.724,256.355" style="fill:none;stroke-width:3.18px;stroke:rgb(96,96,96);"/>
                <rect x="173.655" y="192.867" width="56.115" height="7.715" style="fill:none;stroke-width:3.18px;stroke:rgb(96,96,96);"/>
                <g>
                    <path d="M144.462,265.274L132.863,265.274L133.832,256.365L143.494,256.365L144.462,265.274Z" style="fill:none;stroke-width:3.18px;stroke:rgb(96,96,96);"/>
                    <rect x="133.872" y="265.274" width="9.582" height="17.819" style="fill:none;stroke-width:3.18px;stroke:rgb(96,96,96);"/>
                </g>
                <g>
                    <path d="M166.514,265.274L154.915,265.274L155.883,256.365L165.545,256.365L166.514,265.274Z" style="fill:none;stroke-width:3.18px;stroke:rgb(96,96,96);"/>
                    <rect x="155.923" y="265.274" width="9.582" height="17.819" style="fill:none;stroke-width:3.18px;stroke:rgb(96,96,96);"/>
                </g>
                <g>
                    <path d="M145.471,221.669L133.872,221.669L134.84,212.759L144.502,212.759L145.471,221.669Z" style="fill:none;stroke-width:3.18px;stroke:rgb(96,96,96);"/>
                    <rect x="134.88" y="221.669" width="9.582" height="17.819" style="fill:none;stroke-width:3.18px;stroke:rgb(96,96,96);"/>
                </g>
                <g>
                    <path d="M167.522,221.669L155.923,221.669L156.892,212.759L166.554,212.759L167.522,221.669Z" style="fill:none;stroke-width:3.18px;stroke:rgb(96,96,96);"/>
                    <rect x="156.932" y="221.669" width="9.582" height="17.819" style="fill:none;stroke-width:3.18px;stroke:rgb(96,96,96);"/>
                </g>
                <g>
                    <path d="M247.343,265.172L235.744,265.172L236.712,256.263L246.375,256.263L247.343,265.172Z" style="fill:none;stroke-width:3.18px;stroke:rgb(96,96,96);"/>
                    <rect x="236.752" y="265.172" width="9.582" height="17.819" style="fill:none;stroke-width:3.18px;stroke:rgb(96,96,96);"/>
                </g>
                <g>
                    <path d="M268.427,256.263L258.765,256.263L257.796,265.172L258.805,265.172" style="fill:none;stroke-width:3.18px;stroke:rgb(96,96,96);"/>
                    <path d="M258.805,269.705L258.805,265.172L264.604,265.172" style="fill:none;stroke-width:3.18px;stroke:rgb(96,96,96);"/>
                </g>
                <g>
                    <path d="M248.352,221.567L236.752,221.567L237.721,212.657L247.383,212.657L248.352,221.567Z" style="fill:none;stroke-width:3.18px;stroke:rgb(96,96,96);"/>
                    <rect x="237.761" y="221.567" width="9.582" height="17.819" style="fill:none;stroke-width:3.18px;stroke:rgb(96,96,96);"/>
                </g>
                <g>
                    <path d="M270.404,221.567L258.804,221.567L259.773,212.657L269.435,212.657L270.404,221.567Z" style="fill:none;stroke-width:3.18px;stroke:rgb(96,96,96);"/>
                    <rect x="259.813" y="221.567" width="9.582" height="17.819" style="fill:none;stroke-width:3.18px;stroke:rgb(96,96,96);"/>
                </g>
                <path d="M125.913,247.824L173.7,248.006L277.37,248.006" style="fill:none;stroke-width:3.18px;stroke:rgb(96,96,96);"/>
                <rect x="486.03" y="200.582" width="56.115" height="12.177" style="fill:none;stroke-width:3.18px;stroke:rgb(96,96,96);"/>
                <path d="M542.146,208.258L486.03,208.258" style="fill:none;stroke-width:3.18px;stroke:rgb(96,96,96);"/>
                <path d="M537.94,200.582L537.94,208.258" style="fill:none;stroke-width:3.18px;stroke:rgb(96,96,96);"/>
                <path d="M532.194,200.582L532.194,208.258" style="fill:none;stroke-width:3.18px;stroke:rgb(96,96,96);"/>
                <path d="M527.752,200.582L527.752,208.258" style="fill:none;stroke-width:3.18px;stroke:rgb(96,96,96);"/>
                <path d="M522.51,200.582L522.51,208.258" style="fill:none;stroke-width:3.18px;stroke:rgb(96,96,96);"/>
                <path d="M518.067,200.582L518.067,208.258" style="fill:none;stroke-width:3.18px;stroke:rgb(96,96,96);"/>
                <path d="M512.736,200.582L512.736,208.258" style="fill:none;stroke-width:3.18px;stroke:rgb(96,96,96);"/>
                <path d="M508.294,200.582L508.294,208.258" style="fill:none;stroke-width:3.18px;stroke:rgb(96,96,96);"/>
                <path d="M503.052,200.582L503.052,208.258" style="fill:none;stroke-width:3.18px;stroke:rgb(96,96,96);"/>
                <path d="M498.609,200.582L498.609,208.258" style="fill:none;stroke-width:3.18px;stroke:rgb(96,96,96);"/>
                <path d="M492.656,200.582L492.656,208.258" style="fill:none;stroke-width:3.18px;stroke:rgb(96,96,96);"/>
                <path d="M488.934,200.582L488.934,208.258" style="fill:none;stroke-width:3.18px;stroke:rgb(96,96,96);"/>
                <g>
                    <path d="M533.915,215.129C533.915,216.306 534.869,217.261 536.048,217.261L540.667,217.261C541.845,217.261 542.8,216.306 542.8,215.129L542.8,214.892C542.8,213.715 541.845,212.76 540.667,212.76L536.048,212.76C534.869,212.76 533.915,213.715 533.915,214.892L533.915,215.129Z" style="fill:none;stroke-width:3.18px;stroke:rgb(96,96,96);"/>
                    <path d="M542.071,247.698L541.074,217.261L535.641,217.261L534.54,247.824" style="fill:none;stroke-width:3.18px;stroke:rgb(96,96,96);"/>
                </g>
                <g>
                    <path d="M517.742,215.129C517.742,216.306 518.696,217.261 519.875,217.261L524.494,217.261C525.672,217.261 526.627,216.306 526.627,215.129L526.627,214.892C526.627,213.715 525.672,212.76 524.494,212.76L519.875,212.76C518.696,212.76 517.742,213.715 517.742,214.892L517.742,215.129Z" style="fill:none;stroke-width:3.18px;stroke:rgb(96,96,96);"/>
                    <path d="M525.902,247.824L524.901,217.261L519.468,217.261L518.366,247.824" style="fill:none;stroke-width:3.18px;stroke:rgb(96,96,96);"/>
                </g>
                <g>
                    <path d="M501.568,215.129C501.568,216.306 502.523,217.261 503.701,217.261L508.321,217.261C509.499,217.261 510.453,216.306 510.453,215.129L510.453,214.892C510.453,213.715 509.499,212.76 508.321,212.76L503.701,212.76C502.523,212.76 501.568,213.715 501.568,214.892L501.568,215.129Z" style="fill:none;stroke-width:3.18px;stroke:rgb(96,96,96);"/>
                    <path d="M509.729,247.824L508.729,217.261L503.294,217.261L502.193,247.824" style="fill:none;stroke-width:3.18px;stroke:rgb(96,96,96);"/>
                </g>
                <g>
                    <path d="M485.396,215.129C485.396,216.306 486.351,217.261 487.529,217.261L492.148,217.261C493.326,217.261 494.281,216.306 494.281,215.129L494.281,214.892C494.281,213.715 493.326,212.76 492.148,212.76L487.529,212.76C486.351,212.76 485.396,213.715 485.396,214.892L485.396,215.129Z" style="fill:none;stroke-width:3.18px;stroke:rgb(96,96,96);"/>
                    <path d="M493.557,247.824L492.556,217.261L487.122,217.261L486.03,247.57" style="fill:none;stroke-width:3.18px;stroke:rgb(96,96,96);"/>
                </g>
                <path d="M525.751,287.053L525.751,270.332C525.751,266.663 528.385,263.686 531.636,263.686C534.886,263.686 537.522,266.663 537.522,270.332L537.522,287.053" style="fill:none;stroke-width:3.18px;stroke:rgb(96,96,96);"/>
                <path d="M508.144,287.327L508.144,270.606C508.144,266.937 510.778,263.96 514.03,263.96C517.279,263.96 519.915,266.937 519.915,270.606L519.915,287.327" style="fill:none;stroke-width:3.18px;stroke:rgb(96,96,96);"/>
                <path d="M490.537,287.327L490.537,270.606C490.537,266.937 493.171,263.96 496.422,263.96C499.672,263.96 502.307,266.937 502.307,270.606L502.307,287.327" style="fill:none;stroke-width:3.18px;stroke:rgb(96,96,96);"/>
                <path d="M438.43,200.582L589.888,200.582L589.888,283.094L542.481,283.094" style="fill:none;stroke-width:3.18px;stroke:rgb(96,96,96);"/>
                <path d="M485.998,248.37L485.998,287.543L542.146,287.543L542.146,248.091" style="fill:none;stroke-width:3.18px;stroke:rgb(96,96,96);"/>
                <path d="M485.998,256.355L542.146,256.355" style="fill:none;stroke-width:3.18px;stroke:rgb(96,96,96);"/>
                <path d="M538.844,248.37L538.844,256.355" style="fill:none;stroke-width:3.18px;stroke:rgb(96,96,96);"/>
                <path d="M534.356,248.37L534.356,256.355" style="fill:none;stroke-width:3.18px;stroke:rgb(96,96,96);"/>
                <path d="M529.874,248.37L529.874,256.355" style="fill:none;stroke-width:3.18px;stroke:rgb(96,96,96);"/>
                <path d="M525.279,248.37L525.279,256.355" style="fill:none;stroke-width:3.18px;stroke:rgb(96,96,96);"/>
                <path d="M520.792,248.37L520.792,256.355" style="fill:none;stroke-width:3.18px;stroke:rgb(96,96,96);"/>
                <path d="M516.31,248.37L516.31,256.355" style="fill:none;stroke-width:3.18px;stroke:rgb(96,96,96);"/>
                <path d="M511.494,248.37L511.494,256.355" style="fill:none;stroke-width:3.18px;stroke:rgb(96,96,96);"/>
                <path d="M507.007,248.37L507.007,256.355" style="fill:none;stroke-width:3.18px;stroke:rgb(96,96,96);"/>
                <path d="M502.524,248.37L502.524,256.355" style="fill:none;stroke-width:3.18px;stroke:rgb(96,96,96);"/>
                <path d="M498.046,248.37L498.046,256.355" style="fill:none;stroke-width:3.18px;stroke:rgb(96,96,96);"/>
                <path d="M493.559,248.37L493.559,256.355" style="fill:none;stroke-width:3.18px;stroke:rgb(96,96,96);"/>
                <path d="M489.076,248.37L489.076,256.355" style="fill:none;stroke-width:3.18px;stroke:rgb(96,96,96);"/>
                <rect x="486.03" y="192.867" width="56.115" height="7.715" style="fill:none;stroke-width:3.18px;stroke:rgb(96,96,96);"/>
                <g>
                    <path d="M571.338,265.274L582.938,265.274L581.969,256.365L572.307,256.365L571.338,265.274Z" style="fill:none;stroke-width:3.18px;stroke:rgb(96,96,96);"/>
                    <rect x="572.347" y="265.274" width="9.582" height="17.819" style="fill:none;stroke-width:3.18px;stroke:rgb(96,96,96);"/>
                </g>
                <g>
                    <path d="M549.286,265.274L560.886,265.274L559.917,256.365L550.255,256.365L549.286,265.274Z" style="fill:none;stroke-width:3.18px;stroke:rgb(96,96,96);"/>
                    <rect x="550.295" y="265.274" width="9.582" height="17.819" style="fill:none;stroke-width:3.18px;stroke:rgb(96,96,96);"/>
                </g>
                <g>
                    <path d="M570.329,221.669L581.929,221.669L580.96,212.759L571.298,212.759L570.329,221.669Z" style="fill:none;stroke-width:3.18px;stroke:rgb(96,96,96);"/>
                    <rect x="571.338" y="221.669" width="9.582" height="17.819" style="fill:none;stroke-width:3.18px;stroke:rgb(96,96,96);"/>
                </g>
                <g>
                    <path d="M548.277,221.669L559.877,221.669L558.908,212.759L549.246,212.759L548.277,221.669Z" style="fill:none;stroke-width:3.18px;stroke:rgb(96,96,96);"/>
                    <rect x="549.286" y="221.669" width="9.582" height="17.819" style="fill:none;stroke-width:3.18px;stroke:rgb(96,96,96);"/>
                </g>
                <g>
                    <path d="M468.457,265.172L480.057,265.172L479.088,256.263L469.426,256.263L468.457,265.172Z" style="fill:none;stroke-width:3.18px;stroke:rgb(96,96,96);"/>
                    <rect x="469.466" y="265.172" width="9.582" height="17.819" style="fill:none;stroke-width:3.18px;stroke:rgb(96,96,96);"/>
                </g>
                <g>
                    <path d="M444.953,256.263L457.036,256.263L458.004,265.172L456.995,265.172" style="fill:none;stroke-width:3.18px;stroke:rgb(96,96,96);"/>
                    <path d="M456.995,269.705L456.995,265.172L451.196,265.172" style="fill:none;stroke-width:3.18px;stroke:rgb(96,96,96);"/>
                </g>
                <g>
                    <path d="M467.448,221.567L479.048,221.567L478.079,212.657L468.417,212.657L467.448,221.567Z" style="fill:none;stroke-width:3.18px;stroke:rgb(96,96,96);"/>
                    <rect x="468.457" y="221.567" width="9.582" height="17.819" style="fill:none;stroke-width:3.18px;stroke:rgb(96,96,96);"/>
                </g>
                <g>
                    <path d="M445.396,221.567L456.996,221.567L456.027,212.657L446.365,212.657L445.396,221.567Z" style="fill:none;stroke-width:3.18px;stroke:rgb(96,96,96);"/>
                    <rect x="446.405" y="221.567" width="9.582" height="17.819" style="fill:none;stroke-width:3.18px;stroke:rgb(96,96,96);"/>
                </g>
                <path d="M589.888,247.824L542.1,248.006L485.998,248.006L438.43,248.006" style="fill:none;stroke-width:3.18px;stroke:rgb(96,96,96);"/>
            </g>
        </g>
    </g>
</svg>
