<?xml version="1.0" standalone="no"?>
<!DOCTYPE svg PUBLIC "-//W3C//DTD SVG 1.1//EN" "http://www.w3.org/Graphics/SVG/1.1/DTD/svg11.dtd">
<svg width="100%" height="100%" viewBox="0 0 512 512" version="1.1" xmlns="http://www.w3.org/2000/svg" xmlns:xlink="http://www.w3.org/1999/xlink" xml:space="preserve" style="fill-rule:evenodd;clip-rule:evenodd;stroke-linecap:round;stroke-linejoin:round;stroke-miterlimit:1.41421;">
    <g transform="matrix(1,0,0,1,-4205.94,-10.3265)">
        <g id="8a" transform="matrix(0.4,-1.41577e-17,-1.97922e-17,0.64,4205.94,10.3265)">
            <g transform="matrix(0.622725,7.6897e-33,2.46239e-32,0.622725,-219.715,-143.763)">
                <g transform="matrix(9.01949,1.99524e-16,2.78931e-16,5.63718,-2246.66,-1166.92)">
                    <path d="M333.93,321.442L350.434,263.253L367.549,322.457" style="fill:none;stroke-width:3.12px;stroke:rgb(96,96,96);"/>
                </g>
                <g transform="matrix(9.01949,1.99524e-16,2.78931e-16,5.63718,-2246.66,-1166.92)">
                    <path d="M350.463,264.256L350.463,250.407" style="fill:none;stroke-width:3.12px;stroke:rgb(96,96,96);"/>
                    <path d="M346.284,254.616L354.644,254.616" style="fill:none;stroke-width:3.12px;stroke:rgb(96,96,96);"/>
                </g>
                <g transform="matrix(9.01949,1.99524e-16,2.78931e-16,5.63718,-2246.66,-1166.92)">
                    <rect x="327.986" y="322.946" width="6.469" height="22.447" style="fill:none;stroke-width:3.12px;stroke:rgb(96,96,96);"/>
                </g>
                <g transform="matrix(9.01949,1.99524e-16,2.78931e-16,5.63718,-2246.66,-1166.92)">
                    <path d="M327.986,323.259L331.22,314.606L334.455,322.946" style="fill:none;stroke-width:3.12px;stroke:rgb(96,96,96);"/>
                </g>
                <g transform="matrix(9.01949,1.99524e-16,2.78931e-16,5.63718,-2246.66,-1166.92)">
                    <path d="M327.986,345.257L331.22,353.909L334.455,345.569" style="fill:none;stroke-width:3.12px;stroke:rgb(96,96,96);"/>
                </g>
                <g transform="matrix(9.01949,1.99524e-16,2.78931e-16,5.63718,-2246.66,-1166.92)">
                    <rect x="367.143" y="323.231" width="6.469" height="22.447" style="fill:none;stroke-width:3.12px;stroke:rgb(96,96,96);"/>
                </g>
                <g transform="matrix(9.01949,1.99524e-16,2.78931e-16,5.63718,-2246.66,-1166.92)">
                    <path d="M367.143,323.543L370.377,314.892L373.612,323.231" style="fill:none;stroke-width:3.12px;stroke:rgb(96,96,96);"/>
                </g>
                <g transform="matrix(9.01949,1.99524e-16,2.78931e-16,5.63718,-2246.66,-1166.92)">
                    <path d="M367.143,345.542L370.377,354.193L373.612,345.854" style="fill:none;stroke-width:3.12px;stroke:rgb(96,96,96);"/>
                </g>
                <g transform="matrix(9.01949,1.99524e-16,2.78931e-16,5.63718,-2246.66,-1166.92)">
                    <path d="M334.455,326.532L337.963,326.532L337.963,330.273L340.457,330.273L340.457,326.532L343.575,326.532L343.575,329.884L346.069,329.884L346.069,326.532L349.342,326.532L349.342,329.884L352.07,329.884L352.07,326.532L355.032,326.532L355.032,329.884L357.916,329.884L357.916,326.532L360.956,326.532L360.956,329.884L363.684,329.884L363.684,326.504L367.143,326.504" style="fill:none;stroke-width:3.12px;stroke:rgb(96,96,96);"/>
                </g>
                <g transform="matrix(9.01949,1.99524e-16,2.78931e-16,5.63718,-2246.66,-1166.92)">
                    <path d="M334.455,336.138L367.143,336.138" style="fill:none;stroke-width:3.12px;stroke:rgb(96,96,96);"/>
                </g>
                <g transform="matrix(9.01949,1.99524e-16,2.78931e-16,5.63718,-2246.66,-1166.92)">
                    <path d="M334.455,340.347L367.143,340.347" style="fill:none;stroke-width:3.12px;stroke:rgb(96,96,96);"/>
                </g>
                <g transform="matrix(9.01949,1.99524e-16,2.78931e-16,5.63718,-2246.66,-1166.92)">
                    <path d="M339.125,340.688L336.727,345.247L334.455,340.688" style="fill:none;stroke-width:3.12px;stroke:rgb(96,96,96);"/>
                    <path d="M343.794,340.688L341.396,345.247L339.125,340.688" style="fill:none;stroke-width:3.12px;stroke:rgb(96,96,96);"/>
                    <path d="M348.464,340.688L346.066,345.247L343.794,340.688" style="fill:none;stroke-width:3.12px;stroke:rgb(96,96,96);"/>
                    <path d="M353.134,340.688L350.736,345.247L348.464,340.688" style="fill:none;stroke-width:3.12px;stroke:rgb(96,96,96);"/>
                    <path d="M357.803,340.688L355.405,345.247L353.134,340.688" style="fill:none;stroke-width:3.12px;stroke:rgb(96,96,96);"/>
                    <path d="M362.473,340.688L360.075,345.247L357.803,340.688" style="fill:none;stroke-width:3.12px;stroke:rgb(96,96,96);"/>
                    <path d="M367.143,340.688L364.745,345.247L362.473,340.688" style="fill:none;stroke-width:3.12px;stroke:rgb(96,96,96);"/>
                </g>
                <g transform="matrix(9.01949,1.99524e-16,2.78931e-16,5.63718,-2246.66,-1166.92)">
                    <path d="M333.976,362.853L331.259,376.522L331.259,387.973L336.521,387.973L336.521,376.406L333.976,362.853Z" style="fill:none;stroke-width:3.12px;stroke:rgb(96,96,96);"/>
                </g>
                <g transform="matrix(9.01949,1.99524e-16,2.78931e-16,5.63718,-2246.66,-1166.92)">
                    <path d="M367.629,362.853L364.913,376.522L364.913,387.973L370.174,387.973L370.174,376.406L367.629,362.853Z" style="fill:none;stroke-width:3.12px;stroke:rgb(96,96,96);"/>
                </g>
                <g transform="matrix(9.01949,1.99524e-16,2.78931e-16,5.63718,-2246.66,-1166.92)">
                    <path d="M377.227,471.631L377.227,369.297L379.944,355.84L382.488,369.182L382.488,471.631L377.227,471.631" style="fill:none;stroke-width:3.12px;stroke:rgb(96,96,96);"/>
                </g>
                <g transform="matrix(9.01949,1.99524e-16,2.78931e-16,5.63718,-2246.66,-1166.92)">
                    <path d="M331.22,353.909L331.22,387.973" style="fill:none;stroke-width:3.12px;stroke:rgb(96,96,96);"/>
                </g>
                <g transform="matrix(9.01949,1.99524e-16,2.78931e-16,5.63718,-2246.66,-1166.92)">
                    <path d="M370.377,353.909L370.276,387.973" style="fill:none;stroke-width:3.12px;stroke:rgb(96,96,96);"/>
                </g>
                <g transform="matrix(9.01949,1.99524e-16,2.78931e-16,5.63718,-2246.66,-1166.92)">
                    <path d="M336.521,387.973L364.913,387.973" style="fill:none;stroke-width:3.12px;stroke:rgb(96,96,96);"/>
                </g>
                <g transform="matrix(9.01949,1.99524e-16,2.78931e-16,5.63718,-2246.66,-1166.92)">
                    <path d="M336.79,379.443L364.808,379.443" style="fill:none;stroke-width:3.12px;stroke:rgb(96,96,96);"/>
                </g>
                <g transform="matrix(9.01949,1.99524e-16,2.78931e-16,5.63718,-2246.66,-1166.92)">
                    <path d="M340.619,379.443C340.619,379.443 340.502,373.368 340.619,362.852C340.736,352.331 350.44,348.706 350.44,348.706C350.44,348.706 360.437,352.33 360.554,362.852C360.671,373.368 360.554,379.443 360.554,379.443" style="fill:none;stroke-width:3.12px;stroke:rgb(96,96,96);"/>
                </g>
                <g transform="matrix(9.01949,1.99524e-16,2.78931e-16,5.63718,-2246.66,-1166.92)">
                    <path d="M343.002,423.631C343.002,423.631 342.911,420.537 343.002,408.542C343.092,396.547 350.612,392.415 350.612,392.415C350.612,392.415 358.358,396.547 358.449,408.542C358.539,420.537 358.449,423.631 358.449,423.631L343.002,423.631Z" style="fill:none;stroke-width:3.12px;stroke:rgb(96,96,96);"/>
                </g>
                <g transform="matrix(9.01949,1.99524e-16,2.78931e-16,5.63718,-2246.66,-1166.92)">
                    <path d="M343.084,472.735C343.084,472.735 342.994,461.157 343.084,449.506C343.173,437.855 350.612,433.841 350.612,433.841C350.612,433.841 358.276,437.855 358.365,449.506C358.455,461.157 358.365,472.735 358.365,472.735" style="fill:none;stroke-width:3.12px;stroke:rgb(96,96,96);"/>
                </g>
                <g transform="matrix(9.01949,1.99524e-16,2.78931e-16,5.63718,-2246.66,-1166.92)">
                    <path d="M395.362,471.631C395.362,471.631 395.238,457.697 395.362,446.046C395.486,434.395 405.769,430.381 405.769,430.381C405.769,430.381 416.362,434.395 416.486,446.046C416.61,457.697 416.486,471.631 416.486,471.631" style="fill:none;stroke-width:3.12px;stroke:rgb(96,96,96);"/>
                </g>
                <g transform="matrix(9.01949,1.99524e-16,2.78931e-16,5.63718,-2246.66,-1166.92)">
                    <path d="M400.769,415.946C400.769,415.946 400.712,410.514 400.769,403.12C400.826,395.725 405.547,393.179 405.547,393.179C405.547,393.179 410.411,395.726 410.467,403.12C410.525,410.515 410.467,415.27 410.467,415.27" style="fill:none;stroke-width:3.12px;stroke:rgb(96,96,96);"/>
                </g>
                <g transform="matrix(9.01949,1.99524e-16,2.78931e-16,5.63718,-2246.66,-1166.92)">
                    <path d="M415.539,425.136C415.539,425.136 415.481,415.838 415.539,408.443C415.596,401.048 420.317,398.502 420.317,398.502C420.317,398.502 425.18,401.049 425.237,408.443C425.294,415.839 425.229,421.897 425.229,421.897" style="fill:none;stroke-width:3.12px;stroke:rgb(96,96,96);"/>
                </g>
                <g transform="matrix(9.01949,1.99524e-16,2.78931e-16,5.63718,-2246.66,-1166.92)">
                    <path d="M395.834,425.878C395.834,425.878 395.891,415.838 395.834,408.442C395.777,401.047 391.056,398.501 391.056,398.501C391.056,398.501 386.193,401.048 386.136,408.442C386.079,415.838 386.119,422.068 386.119,422.068" style="fill:none;stroke-width:3.12px;stroke:rgb(96,96,96);"/>
                </g>
                <g transform="matrix(9.01949,1.99524e-16,2.78931e-16,5.63718,-2246.66,-1166.92)">
                    <path d="M338.976,379.443L338.976,387.969" style="fill:none;stroke-width:3.12px;stroke:rgb(96,96,96);"/>
                </g>
                <g transform="matrix(9.01949,1.99524e-16,2.78931e-16,5.63718,-2246.66,-1166.92)">
                    <path d="M345.751,379.443L345.751,387.969" style="fill:none;stroke-width:3.12px;stroke:rgb(96,96,96);"/>
                </g>
                <g transform="matrix(9.01949,1.99524e-16,2.78931e-16,5.63718,-2246.66,-1166.92)">
                    <path d="M354.954,379.443L354.954,387.969" style="fill:none;stroke-width:3.12px;stroke:rgb(96,96,96);"/>
                </g>
                <g transform="matrix(9.01949,1.99524e-16,2.78931e-16,5.63718,-2246.66,-1166.92)">
                    <path d="M361.799,379.443L361.799,387.969" style="fill:none;stroke-width:3.12px;stroke:rgb(96,96,96);"/>
                </g>
                <g transform="matrix(9.01949,1.99524e-16,2.78931e-16,5.63718,-2246.66,-1166.92)">
                    <path d="M331.22,422.306L331.22,387.969L336.521,387.969L336.521,422.306" style="fill:none;stroke-width:3.12px;stroke:rgb(96,96,96);"/>
                </g>
                <g transform="matrix(9.01949,1.99524e-16,2.78931e-16,5.63718,-2246.66,-1166.92)">
                    <path d="M331.22,444.851L331.22,427.723" style="fill:none;stroke-width:3.12px;stroke:rgb(96,96,96);"/>
                </g>
                <g transform="matrix(9.01949,1.99524e-16,2.78931e-16,5.63718,-2246.66,-1166.92)">
                    <path d="M336.521,450.316L336.521,472.735L331.22,472.735L331.22,450.229" style="fill:none;stroke-width:3.12px;stroke:rgb(96,96,96);"/>
                </g>
                <g transform="matrix(9.01949,1.99524e-16,2.78931e-16,5.63718,-2246.66,-1166.92)">
                    <path d="M336.521,427.897L336.521,444.851" style="fill:none;stroke-width:3.12px;stroke:rgb(96,96,96);"/>
                </g>
                <g transform="matrix(9.01949,1.99524e-16,2.78931e-16,5.63718,-2246.66,-1166.92)">
                    <path d="M336.521,397.987L333.871,390.271L331.22,397.987L336.521,397.987Z" style="fill:none;stroke-width:3.12px;stroke:rgb(96,96,96);"/>
                </g>
                <g transform="matrix(9.01949,1.99524e-16,2.78931e-16,5.63718,-2246.66,-1166.92)">
                    <path d="M331.22,407.754L336.521,407.754" style="fill:none;stroke-width:3.12px;stroke:rgb(96,96,96);"/>
                </g>
                <g transform="matrix(9.01949,1.99524e-16,2.78931e-16,5.63718,-2246.66,-1166.92)">
                    <path d="M365.077,407.754L370.243,407.754" style="fill:none;stroke-width:3.12px;stroke:rgb(96,96,96);"/>
                </g>
                <g transform="matrix(9.01949,1.99524e-16,2.78931e-16,5.63718,-2246.66,-1166.92)">
                    <path d="M336.521,427.539L365.077,427.539" style="fill:none;stroke-width:3.12px;stroke:rgb(96,96,96);"/>
                </g>
                <g transform="matrix(9.01949,1.99524e-16,2.78931e-16,5.63718,-2246.66,-1166.92)">
                    <path d="M331.22,445.026L336.521,445.026L338.417,450.054L329.545,450.054L331.22,445.026Z" style="fill:none;stroke-width:3.12px;stroke:rgb(96,96,96);"/>
                </g>
                <g transform="matrix(9.01949,1.99524e-16,2.78931e-16,5.63718,-2246.66,-1166.92)">
                    <path d="M331.22,422.512L336.521,422.512L338.417,427.539L329.545,427.539L331.22,422.512Z" style="fill:none;stroke-width:3.12px;stroke:rgb(96,96,96);"/>
                </g>
                <g transform="matrix(9.01949,1.99524e-16,2.78931e-16,5.63718,-2246.66,-1166.92)">
                    <path d="M364.967,422.306L364.967,387.969L370.267,387.969L370.267,422.306" style="fill:none;stroke-width:3.12px;stroke:rgb(96,96,96);"/>
                </g>
                <g transform="matrix(9.01949,1.99524e-16,2.78931e-16,5.63718,-2246.66,-1166.92)">
                    <path d="M364.967,444.851L364.967,427.723" style="fill:none;stroke-width:3.12px;stroke:rgb(96,96,96);"/>
                </g>
                <g transform="matrix(9.01949,1.99524e-16,2.78931e-16,5.63718,-2246.66,-1166.92)">
                    <path d="M370.267,450.316L370.267,472.735L364.967,472.735L364.967,450.229" style="fill:none;stroke-width:3.12px;stroke:rgb(96,96,96);"/>
                </g>
                <g transform="matrix(9.01949,1.99524e-16,2.78931e-16,5.63718,-2246.66,-1166.92)">
                    <path d="M370.267,427.897L370.267,444.851" style="fill:none;stroke-width:3.12px;stroke:rgb(96,96,96);"/>
                </g>
                <g transform="matrix(9.01949,1.99524e-16,2.78931e-16,5.63718,-2246.66,-1166.92)">
                    <path d="M364.967,445.026L370.267,445.026L372.163,450.054L363.291,450.054L364.967,445.026Z" style="fill:none;stroke-width:3.12px;stroke:rgb(96,96,96);"/>
                </g>
                <g transform="matrix(9.01949,1.99524e-16,2.78931e-16,5.63718,-2246.66,-1166.92)">
                    <path d="M364.967,422.512L370.267,422.512L372.163,427.539L363.291,427.539L364.967,422.512Z" style="fill:none;stroke-width:3.12px;stroke:rgb(96,96,96);"/>
                </g>
                <g transform="matrix(9.01949,1.99524e-16,2.78931e-16,5.63718,-2246.66,-1166.92)">
                    <path d="M365.077,397.987L367.727,390.271L370.276,397.987L365.077,397.987Z" style="fill:none;stroke-width:3.12px;stroke:rgb(96,96,96);"/>
                </g>
                <g transform="matrix(9.01949,1.99524e-16,2.78931e-16,5.63718,-2246.66,-1166.92)">
                    <path d="M377.258,417.382L379.908,409.665L382.457,417.382L377.258,417.382Z" style="fill:none;stroke-width:3.12px;stroke:rgb(96,96,96);"/>
                </g>
                <g transform="matrix(9.01949,1.99524e-16,2.78931e-16,5.63718,-2246.66,-1166.92)">
                    <path d="M386.177,421.962L388.827,409.665L391.376,421.962L386.177,421.962Z" style="fill:none;stroke-width:3.12px;stroke:rgb(96,96,96);"/>
                </g>
                <g transform="matrix(9.01949,1.99524e-16,2.78931e-16,5.63718,-2246.66,-1166.92)">
                    <path d="M336.521,472.735L364.967,472.735" style="fill:none;stroke-width:3.12px;stroke:rgb(96,96,96);"/>
                </g>
                <g transform="matrix(9.01949,1.99524e-16,2.78931e-16,5.63718,-2246.66,-1166.92)">
                    <path d="M353.232,379.444L353.232,366.467C352.759,362.949 350.681,361.13 350.681,361.13C350.681,361.13 348.5,362.949 348.028,366.467L348.028,379.444" style="fill:none;stroke-width:3.12px;stroke:rgb(96,96,96);"/>
                </g>
                <g transform="matrix(9.01949,1.99524e-16,2.78931e-16,5.63718,-2246.66,-1166.92)">
                    <path d="M358.437,379.444L358.437,366.467C357.964,362.949 355.886,361.13 355.886,361.13C355.886,361.13 353.705,362.949 353.233,366.467L353.233,379.444" style="fill:none;stroke-width:3.12px;stroke:rgb(96,96,96);"/>
                </g>
                <g transform="matrix(9.01949,1.99524e-16,2.78931e-16,5.63718,-2246.66,-1166.92)">
                    <path d="M347.953,379.443L347.953,366.467C347.48,362.949 345.402,361.129 345.402,361.129C345.402,361.129 343.222,362.949 342.749,366.467L342.749,379.443" style="fill:none;stroke-width:3.12px;stroke:rgb(96,96,96);"/>
                </g>
                <g transform="matrix(9.01949,1.99524e-16,2.78931e-16,5.63718,-2246.66,-1166.92)">
                    <path d="M444.177,321.218L460.682,263.028L477.796,322.231" style="fill:none;stroke-width:3.12px;stroke:rgb(96,96,96);"/>
                </g>
                <g transform="matrix(9.01949,1.99524e-16,2.78931e-16,5.63718,-2246.66,-1166.92)">
                    <path d="M460.71,264.03L460.71,250.183" style="fill:none;stroke-width:3.12px;stroke:rgb(96,96,96);"/>
                    <path d="M456.532,254.391L464.892,254.391" style="fill:none;stroke-width:3.12px;stroke:rgb(96,96,96);"/>
                </g>
                <g transform="matrix(9.01949,1.99524e-16,2.78931e-16,5.63718,-2246.66,-1166.92)">
                    <path d="M406.022,342.837L406.022,328.989" style="fill:none;stroke-width:3.12px;stroke:rgb(96,96,96);"/>
                    <path d="M401.843,333.197L410.203,333.197" style="fill:none;stroke-width:3.12px;stroke:rgb(96,96,96);"/>
                </g>
                <g transform="matrix(9.01949,1.99524e-16,2.78931e-16,5.63718,-2246.66,-1166.92)">
                    <path d="M405.821,406.551L405.821,396.214" style="fill:none;stroke-width:3.12px;stroke:rgb(96,96,96);"/>
                    <path d="M403.106,399.355L408.537,399.355" style="fill:none;stroke-width:3.12px;stroke:rgb(96,96,96);"/>
                </g>
                <g transform="matrix(9.01949,1.99524e-16,2.78931e-16,5.63718,-2246.66,-1166.92)">
                    <rect x="438.233" y="322.722" width="6.47" height="22.447" style="fill:none;stroke-width:3.12px;stroke:rgb(96,96,96);"/>
                </g>
                <g transform="matrix(9.01949,1.99524e-16,2.78931e-16,5.63718,-2246.66,-1166.92)">
                    <path d="M438.233,323.033L441.468,314.382L444.703,322.722" style="fill:none;stroke-width:3.12px;stroke:rgb(96,96,96);"/>
                </g>
                <g transform="matrix(9.01949,1.99524e-16,2.78931e-16,5.63718,-2246.66,-1166.92)">
                    <path d="M438.233,345.031L441.468,353.683L444.703,345.343" style="fill:none;stroke-width:3.12px;stroke:rgb(96,96,96);"/>
                </g>
                <g transform="matrix(9.01949,1.99524e-16,2.78931e-16,5.63718,-2246.66,-1166.92)">
                    <rect x="477.39" y="323.006" width="6.47" height="22.448" style="fill:none;stroke-width:3.12px;stroke:rgb(96,96,96);"/>
                </g>
                <g transform="matrix(9.01949,1.99524e-16,2.78931e-16,5.63718,-2246.66,-1166.92)">
                    <path d="M477.39,323.317L480.624,314.666L483.859,323.006" style="fill:none;stroke-width:3.12px;stroke:rgb(96,96,96);"/>
                </g>
                <g transform="matrix(9.01949,1.99524e-16,2.78931e-16,5.63718,-2246.66,-1166.92)">
                    <path d="M477.39,345.316L480.624,353.968L483.859,345.628" style="fill:none;stroke-width:3.12px;stroke:rgb(96,96,96);"/>
                </g>
                <g transform="matrix(9.01949,1.99524e-16,2.78931e-16,5.63718,-2246.66,-1166.92)">
                    <path d="M444.703,326.307L448.21,326.307L448.21,330.048L450.704,330.048L450.704,326.307L453.822,326.307L453.822,329.658L456.316,329.658L456.316,326.307L459.59,326.307L459.59,329.658L462.318,329.658L462.318,326.307L465.28,326.307L465.28,329.658L468.164,329.658L468.164,326.307L471.204,326.307L471.204,329.658L473.932,329.658L473.932,326.278L477.39,326.278" style="fill:none;stroke-width:3.12px;stroke:rgb(96,96,96);"/>
                </g>
                <g transform="matrix(9.01949,1.99524e-16,2.78931e-16,5.63718,-2246.66,-1166.92)">
                    <path d="M444.703,335.913L477.39,335.913" style="fill:none;stroke-width:3.12px;stroke:rgb(96,96,96);"/>
                </g>
                <g transform="matrix(9.01949,1.99524e-16,2.78931e-16,5.63718,-2246.66,-1166.92)">
                    <path d="M444.703,340.122L477.39,340.122" style="fill:none;stroke-width:3.12px;stroke:rgb(96,96,96);"/>
                </g>
                <g transform="matrix(9.01949,1.99524e-16,2.78931e-16,5.63718,-2246.66,-1166.92)">
                    <path d="M449.372,340.463L446.975,345.022L444.703,340.463" style="fill:none;stroke-width:3.12px;stroke:rgb(96,96,96);"/>
                    <path d="M454.042,340.463L451.644,345.022L449.372,340.463" style="fill:none;stroke-width:3.12px;stroke:rgb(96,96,96);"/>
                    <path d="M458.712,340.463L456.313,345.022L454.042,340.463" style="fill:none;stroke-width:3.12px;stroke:rgb(96,96,96);"/>
                    <path d="M463.382,340.463L460.983,345.022L458.712,340.463" style="fill:none;stroke-width:3.12px;stroke:rgb(96,96,96);"/>
                    <path d="M468.051,340.463L465.653,345.022L463.382,340.463" style="fill:none;stroke-width:3.12px;stroke:rgb(96,96,96);"/>
                    <path d="M472.721,340.463L470.322,345.022L468.051,340.463" style="fill:none;stroke-width:3.12px;stroke:rgb(96,96,96);"/>
                    <path d="M477.39,340.463L474.992,345.022L472.721,340.463" style="fill:none;stroke-width:3.12px;stroke:rgb(96,96,96);"/>
                </g>
                <g transform="matrix(9.01949,1.99524e-16,2.78931e-16,5.63718,-2246.66,-1166.92)">
                    <path d="M444.224,362.628L441.507,376.298L441.507,387.747L446.769,387.747L446.769,376.181L444.224,362.628Z" style="fill:none;stroke-width:3.12px;stroke:rgb(96,96,96);"/>
                </g>
                <g transform="matrix(9.01949,1.99524e-16,2.78931e-16,5.63718,-2246.66,-1166.92)">
                    <path d="M477.877,362.628L475.16,376.298L475.16,387.747L480.421,387.747L480.421,376.181L477.877,362.628Z" style="fill:none;stroke-width:3.12px;stroke:rgb(96,96,96);"/>
                </g>
                <g transform="matrix(9.01949,1.99524e-16,2.78931e-16,5.63718,-2246.66,-1166.92)">
                    <path d="M441.468,353.683L441.468,387.747" style="fill:none;stroke-width:3.12px;stroke:rgb(96,96,96);"/>
                </g>
                <g transform="matrix(9.01949,1.99524e-16,2.78931e-16,5.63718,-2246.66,-1166.92)">
                    <path d="M480.624,353.683L480.524,387.747" style="fill:none;stroke-width:3.12px;stroke:rgb(96,96,96);"/>
                </g>
                <g transform="matrix(9.01949,1.99524e-16,2.78931e-16,5.63718,-2246.66,-1166.92)">
                    <path d="M446.769,387.747L475.16,387.747" style="fill:none;stroke-width:3.12px;stroke:rgb(96,96,96);"/>
                </g>
                <g transform="matrix(9.01949,1.99524e-16,2.78931e-16,5.63718,-2246.66,-1166.92)">
                    <path d="M447.038,379.219L475.056,379.219" style="fill:none;stroke-width:3.12px;stroke:rgb(96,96,96);"/>
                </g>
                <g transform="matrix(9.01949,1.99524e-16,2.78931e-16,5.63718,-2246.66,-1166.92)">
                    <path d="M450.867,379.219C450.867,379.219 450.75,373.143 450.867,362.628C450.983,352.107 460.688,348.482 460.688,348.482C460.688,348.482 470.684,352.107 470.801,362.628C470.918,373.143 470.801,379.219 470.801,379.219" style="fill:none;stroke-width:3.12px;stroke:rgb(96,96,96);"/>
                </g>
                <g transform="matrix(9.01949,1.99524e-16,2.78931e-16,5.63718,-2246.66,-1166.92)">
                    <path d="M453.28,423.631C453.28,423.631 453.19,420.515 453.28,408.433C453.37,396.351 460.86,392.191 460.86,392.191C460.86,392.191 468.576,396.351 468.666,408.433C468.757,420.515 468.666,423.631 468.666,423.631L453.28,423.631Z" style="fill:none;stroke-width:3.12px;stroke:rgb(96,96,96);"/>
                </g>
                <g transform="matrix(9.01949,1.99524e-16,2.78931e-16,5.63718,-2246.66,-1166.92)">
                    <path d="M453.332,472.509C453.332,472.509 453.243,460.932 453.332,449.28C453.422,437.629 460.86,433.616 460.86,433.616C460.86,433.616 468.524,437.629 468.613,449.28C468.703,460.932 468.613,472.509 468.613,472.509" style="fill:none;stroke-width:3.12px;stroke:rgb(96,96,96);"/>
                </g>
                <g transform="matrix(9.01949,1.99524e-16,2.78931e-16,5.63718,-2246.66,-1166.92)">
                    <path d="M449.224,379.219L449.224,387.743" style="fill:none;stroke-width:3.12px;stroke:rgb(96,96,96);"/>
                </g>
                <g transform="matrix(9.01949,1.99524e-16,2.78931e-16,5.63718,-2246.66,-1166.92)">
                    <path d="M455.999,379.219L455.999,387.743" style="fill:none;stroke-width:3.12px;stroke:rgb(96,96,96);"/>
                </g>
                <g transform="matrix(9.01949,1.99524e-16,2.78931e-16,5.63718,-2246.66,-1166.92)">
                    <path d="M465.202,379.219L465.202,387.743" style="fill:none;stroke-width:3.12px;stroke:rgb(96,96,96);"/>
                </g>
                <g transform="matrix(9.01949,1.99524e-16,2.78931e-16,5.63718,-2246.66,-1166.92)">
                    <path d="M472.047,379.219L472.047,387.743" style="fill:none;stroke-width:3.12px;stroke:rgb(96,96,96);"/>
                </g>
                <g transform="matrix(9.01949,1.99524e-16,2.78931e-16,5.63718,-2246.66,-1166.92)">
                    <path d="M441.468,422.079L441.468,387.743L446.769,387.743L446.769,422.079" style="fill:none;stroke-width:3.12px;stroke:rgb(96,96,96);"/>
                </g>
                <g transform="matrix(9.01949,1.99524e-16,2.78931e-16,5.63718,-2246.66,-1166.92)">
                    <path d="M441.468,444.625L441.468,427.497" style="fill:none;stroke-width:3.12px;stroke:rgb(96,96,96);"/>
                </g>
                <g transform="matrix(9.01949,1.99524e-16,2.78931e-16,5.63718,-2246.66,-1166.92)">
                    <path d="M446.769,450.091L446.769,472.509L441.468,472.509L441.468,450.003" style="fill:none;stroke-width:3.12px;stroke:rgb(96,96,96);"/>
                </g>
                <g transform="matrix(9.01949,1.99524e-16,2.78931e-16,5.63718,-2246.66,-1166.92)">
                    <path d="M446.769,427.673L446.769,444.625" style="fill:none;stroke-width:3.12px;stroke:rgb(96,96,96);"/>
                </g>
                <g transform="matrix(9.01949,1.99524e-16,2.78931e-16,5.63718,-2246.66,-1166.92)">
                    <path d="M446.769,397.762L444.118,390.047L441.468,397.762L446.769,397.762Z" style="fill:none;stroke-width:3.12px;stroke:rgb(96,96,96);"/>
                </g>
                <g transform="matrix(9.01949,1.99524e-16,2.78931e-16,5.63718,-2246.66,-1166.92)">
                    <path d="M441.468,407.528L446.769,407.528" style="fill:none;stroke-width:3.12px;stroke:rgb(96,96,96);"/>
                </g>
                <g transform="matrix(9.01949,1.99524e-16,2.78931e-16,5.63718,-2246.66,-1166.92)">
                    <path d="M475.325,407.528L480.49,407.528" style="fill:none;stroke-width:3.12px;stroke:rgb(96,96,96);"/>
                </g>
                <g transform="matrix(9.01949,1.99524e-16,2.78931e-16,5.63718,-2246.66,-1166.92)">
                    <path d="M446.769,427.313L475.325,427.313" style="fill:none;stroke-width:3.12px;stroke:rgb(96,96,96);"/>
                </g>
                <g transform="matrix(9.01949,1.99524e-16,2.78931e-16,5.63718,-2246.66,-1166.92)">
                    <path d="M441.468,444.801L446.769,444.801L448.664,449.828L439.792,449.828L441.468,444.801Z" style="fill:none;stroke-width:3.12px;stroke:rgb(96,96,96);"/>
                </g>
                <g transform="matrix(9.01949,1.99524e-16,2.78931e-16,5.63718,-2246.66,-1166.92)">
                    <path d="M441.468,422.286L446.769,422.286L448.664,427.313L439.792,427.313L441.468,422.286Z" style="fill:none;stroke-width:3.12px;stroke:rgb(96,96,96);"/>
                </g>
                <g transform="matrix(9.01949,1.99524e-16,2.78931e-16,5.63718,-2246.66,-1166.92)">
                    <path d="M475.214,422.079L475.214,387.743L480.515,387.743L480.515,422.079" style="fill:none;stroke-width:3.12px;stroke:rgb(96,96,96);"/>
                </g>
                <g transform="matrix(9.01949,1.99524e-16,2.78931e-16,5.63718,-2246.66,-1166.92)">
                    <path d="M475.214,444.625L475.214,427.497" style="fill:none;stroke-width:3.12px;stroke:rgb(96,96,96);"/>
                </g>
                <g transform="matrix(9.01949,1.99524e-16,2.78931e-16,5.63718,-2246.66,-1166.92)">
                    <path d="M480.515,450.091L480.515,472.509L475.214,472.509L475.214,450.003" style="fill:none;stroke-width:3.12px;stroke:rgb(96,96,96);"/>
                </g>
                <g transform="matrix(9.01949,1.99524e-16,2.78931e-16,5.63718,-2246.66,-1166.92)">
                    <path d="M480.515,427.673L480.515,444.625" style="fill:none;stroke-width:3.12px;stroke:rgb(96,96,96);"/>
                </g>
                <g transform="matrix(9.01949,1.99524e-16,2.78931e-16,5.63718,-2246.66,-1166.92)">
                    <path d="M475.214,444.801L480.515,444.801L482.41,449.828L473.539,449.828L475.214,444.801Z" style="fill:none;stroke-width:3.12px;stroke:rgb(96,96,96);"/>
                </g>
                <g transform="matrix(9.01949,1.99524e-16,2.78931e-16,5.63718,-2246.66,-1166.92)">
                    <path d="M475.214,422.286L480.515,422.286L482.41,427.313L473.539,427.313L475.214,422.286Z" style="fill:none;stroke-width:3.12px;stroke:rgb(96,96,96);"/>
                </g>
                <g transform="matrix(9.01949,1.99524e-16,2.78931e-16,5.63718,-2246.66,-1166.92)">
                    <path d="M475.325,397.762L477.975,390.047L480.524,397.762L475.325,397.762Z" style="fill:none;stroke-width:3.12px;stroke:rgb(96,96,96);"/>
                </g>
                <g transform="matrix(9.01949,1.99524e-16,2.78931e-16,5.63718,-2246.66,-1166.92)">
                    <path d="M446.769,472.509L475.214,472.509" style="fill:none;stroke-width:3.12px;stroke:rgb(96,96,96);"/>
                </g>
                <g transform="matrix(9.01949,1.99524e-16,2.78931e-16,5.63718,-2246.66,-1166.92)">
                    <path d="M463.479,379.219L463.479,366.242C463.007,362.725 460.928,360.905 460.928,360.905C460.928,360.905 458.748,362.725 458.276,366.242L458.276,379.219" style="fill:none;stroke-width:3.12px;stroke:rgb(96,96,96);"/>
                </g>
                <g transform="matrix(9.01949,1.99524e-16,2.78931e-16,5.63718,-2246.66,-1166.92)">
                    <path d="M468.685,379.219L468.685,366.242C468.212,362.725 466.134,360.905 466.134,360.905C466.134,360.905 463.953,362.725 463.481,366.242L463.481,379.219" style="fill:none;stroke-width:3.12px;stroke:rgb(96,96,96);"/>
                </g>
                <g transform="matrix(9.01949,1.99524e-16,2.78931e-16,5.63718,-2246.66,-1166.92)">
                    <path d="M458.2,379.219L458.2,366.242C457.727,362.725 455.649,360.905 455.649,360.905C455.649,360.905 453.469,362.725 452.996,366.242L452.996,379.219" style="fill:none;stroke-width:3.12px;stroke:rgb(96,96,96);"/>
                </g>
                <g transform="matrix(9.01949,1.99524e-16,2.78931e-16,5.63718,-2246.66,-1166.92)">
                    <path d="M377.227,427.313L386.043,427.313" style="fill:none;stroke-width:3.12px;stroke:rgb(96,96,96);"/>
                </g>
                <g transform="matrix(9.01949,1.99524e-16,2.78931e-16,5.63718,-2246.66,-1166.92)">
                    <path d="M377.227,443.662L382.457,443.662" style="fill:none;stroke-width:3.12px;stroke:rgb(96,96,96);"/>
                </g>
                <g transform="matrix(9.01949,1.99524e-16,2.78931e-16,5.63718,-2246.66,-1166.92)">
                    <path d="M386.162,445.026L391.392,445.026" style="fill:none;stroke-width:3.12px;stroke:rgb(96,96,96);"/>
                </g>
                <g transform="matrix(9.01949,1.99524e-16,2.78931e-16,5.63718,-2246.66,-1166.92)">
                    <path d="M377.243,448.807L382.473,448.807" style="fill:none;stroke-width:3.12px;stroke:rgb(96,96,96);"/>
                </g>
                <g transform="matrix(9.01949,1.99524e-16,2.78931e-16,5.63718,-2246.66,-1166.92)">
                    <path d="M370.173,389.626L382.457,389.626" style="fill:none;stroke-width:3.12px;stroke:rgb(96,96,96);"/>
                </g>
                <g transform="matrix(9.01949,1.99524e-16,2.78931e-16,5.63718,-2246.66,-1166.92)">
                    <path d="M370.377,381.002L382.457,381.002" style="fill:none;stroke-width:3.12px;stroke:rgb(96,96,96);"/>
                </g>
                <g transform="matrix(9.01949,1.99524e-16,2.78931e-16,5.63718,-2246.66,-1166.92)">
                    <path d="M370.243,471.631L377.227,471.631" style="fill:none;stroke-width:3.12px;stroke:rgb(96,96,96);"/>
                </g>
                <g transform="matrix(9.01949,1.99524e-16,2.78931e-16,5.63718,-2246.66,-1166.92)">
                    <path d="M434.376,471.631L434.376,369.297L431.659,355.84L429.116,369.182L429.116,471.631L434.376,471.631" style="fill:none;stroke-width:3.12px;stroke:rgb(96,96,96);"/>
                </g>
                <g transform="matrix(9.01949,1.99524e-16,2.78931e-16,5.63718,-2246.66,-1166.92)">
                    <path d="M434.346,417.382L431.696,409.665L429.146,417.382L434.346,417.382Z" style="fill:none;stroke-width:3.12px;stroke:rgb(96,96,96);"/>
                </g>
                <g transform="matrix(9.01949,1.99524e-16,2.78931e-16,5.63718,-2246.66,-1166.92)">
                    <path d="M434.376,427.313L429.146,427.313L425.237,427.225" style="fill:none;stroke-width:3.12px;stroke:rgb(96,96,96);"/>
                </g>
                <g transform="matrix(9.01949,1.99524e-16,2.78931e-16,5.63718,-2246.66,-1166.92)">
                    <path d="M434.376,443.662L429.146,443.662" style="fill:none;stroke-width:3.12px;stroke:rgb(96,96,96);"/>
                </g>
                <g transform="matrix(9.01949,1.99524e-16,2.78931e-16,5.63718,-2246.66,-1166.92)">
                    <path d="M434.361,448.807L429.131,448.807" style="fill:none;stroke-width:3.12px;stroke:rgb(96,96,96);"/>
                </g>
                <g transform="matrix(9.01949,1.99524e-16,2.78931e-16,5.63718,-2246.66,-1166.92)">
                    <path d="M441.431,389.626L429.146,389.626" style="fill:none;stroke-width:3.12px;stroke:rgb(96,96,96);"/>
                </g>
                <g transform="matrix(9.01949,1.99524e-16,2.78931e-16,5.63718,-2246.66,-1166.92)">
                    <path d="M441.227,381.002L429.146,381.002" style="fill:none;stroke-width:3.12px;stroke:rgb(96,96,96);"/>
                </g>
                <g transform="matrix(9.01949,1.99524e-16,2.78931e-16,5.63718,-2246.66,-1166.92)">
                    <path d="M441.498,471.631L379.979,471.631" style="fill:none;stroke-width:3.12px;stroke:rgb(96,96,96);"/>
                </g>
                <g transform="matrix(9.01949,1.99524e-16,2.78931e-16,5.63718,-2246.66,-1166.92)">
                    <path d="M429.103,372.745L423.079,372.745" style="fill:none;stroke-width:3.12px;stroke:rgb(96,96,96);"/>
                </g>
                <g transform="matrix(9.01949,1.99524e-16,2.78931e-16,5.63718,-2246.66,-1166.92)">
                    <path d="M389.272,372.745L382.694,372.745" style="fill:none;stroke-width:3.12px;stroke:rgb(96,96,96);"/>
                </g>
                <g transform="matrix(9.01949,1.99524e-16,2.78931e-16,5.63718,-2246.66,-1166.92)">
                    <path d="M416.064,372.745L395.897,372.745" style="fill:none;stroke-width:3.12px;stroke:rgb(96,96,96);"/>
                </g>
                <g transform="matrix(9.01949,1.99524e-16,2.78931e-16,5.63718,-2246.66,-1166.92)">
                    <path d="M429.129,370.062L405.995,342.968L382.521,369.785" style="fill:none;stroke-width:3.12px;stroke:rgb(96,96,96);"/>
                </g>
                <g transform="matrix(9.01949,1.99524e-16,2.78931e-16,5.63718,-2246.66,-1166.92)">
                    <path d="M395.639,379.203L395.639,369.825C395.069,367.283 392.556,365.969 392.556,365.969C392.556,365.969 389.92,367.283 389.35,369.825L389.35,379.203L395.639,379.203Z" style="fill:none;stroke-width:3.12px;stroke:rgb(96,96,96);"/>
                </g>
                <g transform="matrix(9.01949,1.99524e-16,2.78931e-16,5.63718,-2246.66,-1166.92)">
                    <path d="M422.787,379.203L422.787,369.825C422.217,367.283 419.704,365.969 419.704,365.969C419.704,365.969 417.067,367.283 416.497,369.825L416.497,379.203L422.787,379.203Z" style="fill:none;stroke-width:3.12px;stroke:rgb(96,96,96);"/>
                </g>
                <g transform="matrix(9.01949,1.99524e-16,2.78931e-16,5.63718,-2246.66,-1166.92)">
                    <circle cx="405.711" cy="360.944" r="6.921" style="fill:none;stroke-width:3.12px;stroke:rgb(96,96,96);"/>
                </g>
                <g transform="matrix(9.01949,1.99524e-16,2.78931e-16,5.63718,-2246.66,-1166.92)">
                    <path d="M382.521,382.599L429.098,382.599" style="fill:none;stroke-width:3.12px;stroke:rgb(96,96,96);"/>
                </g>
                <g transform="matrix(9.01949,1.99524e-16,2.78931e-16,5.63718,-2246.66,-1166.92)">
                    <path d="M419.796,433.452L405.81,406.344L391.715,433.936" style="fill:none;stroke-width:3.12px;stroke:rgb(96,96,96);"/>
                </g>
                <g transform="matrix(9.01949,1.99524e-16,2.78931e-16,5.63718,-2246.66,-1166.92)">
                    <circle cx="406.004" cy="420.123" r="3.507" style="fill:none;stroke-width:3.12px;stroke:rgb(96,96,96);"/>
                </g>
                <g transform="matrix(9.01949,1.99524e-16,2.78931e-16,5.63718,-2246.66,-1166.92)">
                    <path d="M382.521,401.729C382.521,401.729 385.372,394.402 390.808,393.35C390.808,393.35 394.9,394.344 397.121,398.787C397.121,398.787 400.876,391.422 405.809,388.5" style="fill:none;stroke-width:3.12px;stroke:rgb(96,96,96);"/>
                </g>
                <g transform="matrix(9.01949,1.99524e-16,2.78931e-16,5.63718,-2246.66,-1166.92)">
                    <path d="M429.116,401.729C429.116,401.729 426.266,394.402 420.829,393.35C420.829,393.35 416.737,394.344 414.517,398.787C414.517,398.787 410.761,391.422 405.829,388.5" style="fill:none;stroke-width:3.12px;stroke:rgb(96,96,96);"/>
                </g>
                <g transform="matrix(9.01949,1.99524e-16,2.78931e-16,5.63718,-2246.66,-1166.92)">
                    <rect x="386.043" y="422.08" width="5.466" height="49.551" style="fill:none;stroke-width:3.12px;stroke:rgb(96,96,96);"/>
                </g>
                <g transform="matrix(9.01949,1.99524e-16,2.78931e-16,5.63718,-2246.66,-1166.92)">
                    <path d="M419.93,421.896L422.58,409.601L425.13,421.896L419.93,421.896Z" style="fill:none;stroke-width:3.12px;stroke:rgb(96,96,96);"/>
                </g>
                <g transform="matrix(9.01949,1.99524e-16,2.78931e-16,5.63718,-2246.66,-1166.92)">
                    <path d="M419.915,444.961L425.145,444.961" style="fill:none;stroke-width:3.12px;stroke:rgb(96,96,96);"/>
                </g>
                <g transform="matrix(9.01949,1.99524e-16,2.78931e-16,5.63718,-2246.66,-1166.92)">
                    <rect x="419.796" y="422.08" width="5.467" height="49.551" style="fill:none;stroke-width:3.12px;stroke:rgb(96,96,96);"/>
                </g>
            </g>
        </g>
    </g>
</svg>
