<?xml version="1.0" standalone="no"?>
<!DOCTYPE svg PUBLIC "-//W3C//DTD SVG 1.1//EN" "http://www.w3.org/Graphics/SVG/1.1/DTD/svg11.dtd">
<svg width="100%" height="100%" viewBox="0 0 350 350" version="1.1" xmlns="http://www.w3.org/2000/svg" xmlns:xlink="http://www.w3.org/1999/xlink" xml:space="preserve" style="fill-rule:evenodd;clip-rule:evenodd;stroke-linecap:round;stroke-linejoin:round;stroke-miterlimit:1.41421;">
    <g id="1a" transform="matrix(0.373258,-3.07208e-18,1.7853e-18,0.373259,-65.1074,-12.1248)">
        <g transform="matrix(4.16667,0,0,4.16667,-1179.28,-945.645)">
            <path d="M431.618,264.386L441.243,264.194C441.243,264.194 438.053,259.121 436.303,250.847C434.955,258.804 431.81,264.194 431.618,264.386Z" style="fill:none;stroke-width:3.39px;stroke:rgb(96,96,96);"/>
        </g>
        <g transform="matrix(4.16667,0,0,4.16667,-1179.28,-945.645)">
            <path d="M436.303,250.847L436.303,236.472" style="fill:none;stroke-width:3.39px;stroke:rgb(96,96,96);"/>
        </g>
        <g transform="matrix(4.16667,0,0,4.16667,-1179.28,-945.645)">
            <path d="M435.02,264.415C435.02,264.415 434.25,273.655 431.555,280.714C428.859,287.773 428.731,286.49 429.116,299.708C428.859,303.3 427.32,307.92 427.32,307.92C427.32,307.92 426.549,311.9 426.549,315.878C426.549,319.856 419.363,336.028 416.154,338.594C412.946,341.161 411.278,345.78 411.662,353.352C412.048,360.925 399.214,372.218 399.214,372.218C399.214,372.218 380.347,386.081 376.625,393.908C376.625,393.908 352.484,404.559 340.261,423.906" style="fill:none;stroke-width:3.39px;stroke:rgb(96,96,96);"/>
        </g>
        <g transform="matrix(4.16667,0,0,4.16667,-1179.28,-945.645)">
            <path d="M533.008,424.017C520.791,404.67 496.333,393.908 496.333,393.908C492.613,386.08 473.76,372.218 473.76,372.218C473.76,372.218 460.935,360.925 461.32,353.352C461.705,345.78 460.036,341.161 456.83,338.594C453.624,336.028 446.442,319.856 446.442,315.878C446.442,311.9 445.673,307.92 445.673,307.92C445.673,307.92 444.134,303.3 443.879,299.708C444.263,286.49 444.134,287.773 441.44,280.714C438.747,273.655 437.977,264.415 437.977,264.415" style="fill:none;stroke-width:3.39px;stroke:rgb(96,96,96);"/>
        </g>
        <g transform="matrix(4.16667,0,0,4.16667,-1179.28,-945.645)">
            <path d="M348.841,424.017L362.612,410.245L375.551,423.184" style="fill:none;stroke-width:3.39px;stroke:rgb(96,96,96);"/>
        </g>
        <g transform="matrix(4.16667,0,0,4.16667,-1179.28,-945.645)">
            <path d="M357.503,423.564L362.341,418.725L366.888,423.272" style="fill:none;stroke-width:3.39px;stroke:rgb(96,96,96);"/>
        </g>
        <g transform="matrix(4.16667,0,0,4.16667,-1179.28,-945.645)">
            <path d="M385.955,424.017L399.726,410.245L412.664,423.184" style="fill:none;stroke-width:3.39px;stroke:rgb(96,96,96);"/>
        </g>
        <g transform="matrix(4.16667,0,0,4.16667,-1179.28,-945.645)">
            <path d="M394.618,423.564L399.456,418.725L404.002,423.272" style="fill:none;stroke-width:3.39px;stroke:rgb(96,96,96);"/>
        </g>
        <g transform="matrix(4.16667,0,0,4.16667,-1179.28,-945.645)">
            <path d="M423.067,424.017L436.838,410.245L449.778,423.184" style="fill:none;stroke-width:3.39px;stroke:rgb(96,96,96);"/>
        </g>
        <g transform="matrix(4.16667,0,0,4.16667,-1179.28,-945.645)">
            <path d="M431.73,423.564L436.568,418.725L441.114,423.272" style="fill:none;stroke-width:3.39px;stroke:rgb(96,96,96);"/>
        </g>
        <g transform="matrix(4.16667,0,0,4.16667,-1179.28,-945.645)">
            <path d="M460.177,424.017L473.95,410.245L486.887,423.184" style="fill:none;stroke-width:3.39px;stroke:rgb(96,96,96);"/>
        </g>
        <g transform="matrix(4.16667,0,0,4.16667,-1179.28,-945.645)">
            <path d="M468.84,423.564L473.679,418.725L478.224,423.272" style="fill:none;stroke-width:3.39px;stroke:rgb(96,96,96);"/>
        </g>
        <g transform="matrix(4.16667,0,0,4.16667,-1179.28,-945.645)">
            <path d="M497.29,424.017L511.061,410.245L524,423.184" style="fill:none;stroke-width:3.39px;stroke:rgb(96,96,96);"/>
        </g>
        <g transform="matrix(4.16667,0,0,4.16667,-1179.28,-945.645)">
            <path d="M505.952,423.564L510.79,418.725L515.337,423.272" style="fill:none;stroke-width:3.39px;stroke:rgb(96,96,96);"/>
        </g>
        <g transform="matrix(4.16667,0,0,4.16667,-1179.28,-945.645)">
            <path d="M362.196,402.641L371.524,405.628L380.854,402.641L390.185,405.628L399.514,402.641L408.845,405.628L418.176,402.641L427.499,405.628L436.826,402.641L446.157,405.628L455.489,402.641L464.821,405.628L474.154,402.641L483.484,405.628L492.822,402.641L502.164,405.628L511.508,402.641" style="fill:none;stroke-width:3.39px;stroke:rgb(96,96,96);"/>
        </g>
        <g transform="matrix(4.16667,0,0,4.16667,-1179.28,-945.645)">
            <path d="M367.012,399.224L371.676,400.717L381.005,397.73L390.337,400.717L399.667,397.73L408.997,400.717L418.328,397.73L427.651,400.717L436.979,397.73L446.308,400.717L455.642,397.73L464.972,400.717L474.306,397.73L483.637,400.717L492.973,397.73L502.316,400.717L506.471,399.39" style="fill:none;stroke-width:3.39px;stroke:rgb(96,96,96);"/>
        </g>
        <g transform="matrix(4.16667,0,0,4.16667,-1179.28,-945.645)">
            <path d="M372.738,395.809L380.627,392.822L389.958,395.809L399.288,392.822L408.619,395.809L417.95,392.822L427.273,395.809L436.6,392.822L445.93,395.809L455.263,392.822L464.594,395.809L473.928,392.822L483.258,395.809L492.594,392.822L500.268,395.809" style="fill:none;stroke-width:3.39px;stroke:rgb(96,96,96);"/>
        </g>
        <g transform="matrix(4.16667,0,0,4.16667,-1179.28,-945.645)">
            <path d="M391.273,378.474L481.101,378.474" style="fill:none;stroke-width:3.39px;stroke:rgb(96,96,96);"/>
        </g>
        <g transform="matrix(4.16667,0,0,4.16667,-1179.28,-945.645)">
            <path d="M396.542,374.377L476.131,374.377" style="fill:none;stroke-width:3.39px;stroke:rgb(96,96,96);"/>
        </g>
        <g transform="matrix(4.16667,0,0,4.16667,-1179.28,-945.645)">
            <path d="M401.643,370.282L470.756,370.282" style="fill:none;stroke-width:3.39px;stroke:rgb(96,96,96);"/>
        </g>
        <g transform="matrix(4.16667,0,0,4.16667,-1179.28,-945.645)">
            <path d="M404.864,366.185L467.361,366.185" style="fill:none;stroke-width:3.39px;stroke:rgb(96,96,96);"/>
        </g>
        <g transform="matrix(4.16667,0,0,4.16667,-1179.28,-945.645)">
            <path d="M456.068,337.818L416.917,337.818" style="fill:none;stroke-width:3.39px;stroke:rgb(96,96,96);"/>
        </g>
        <g transform="matrix(4.16667,0,0,4.16667,-1179.28,-945.645)">
            <path d="M417.565,337.818L422.273,344.16L426.982,337.818" style="fill:none;stroke-width:3.39px;stroke:rgb(96,96,96);"/>
        </g>
        <g transform="matrix(4.16667,0,0,4.16667,-1179.28,-945.645)">
            <path d="M426.983,337.818L431.691,344.16L436.4,337.818" style="fill:none;stroke-width:3.39px;stroke:rgb(96,96,96);"/>
        </g>
        <g transform="matrix(4.16667,0,0,4.16667,-1179.28,-945.645)">
            <path d="M436.399,337.818L441.108,344.16L445.815,337.818" style="fill:none;stroke-width:3.39px;stroke:rgb(96,96,96);"/>
        </g>
        <g transform="matrix(4.16667,0,0,4.16667,-1179.28,-945.645)">
            <path d="M445.815,337.818L450.524,344.16L455.232,337.818" style="fill:none;stroke-width:3.39px;stroke:rgb(96,96,96);"/>
        </g>
        <g transform="matrix(4.16667,0,0,4.16667,-1179.28,-945.645)">
            <path d="M419.572,333.747L453.194,333.747" style="fill:none;stroke-width:3.39px;stroke:rgb(96,96,96);"/>
        </g>
        <g transform="matrix(4.16667,0,0,4.16667,-1179.28,-945.645)">
            <path d="M421.815,329.963L451.017,329.963" style="fill:none;stroke-width:3.39px;stroke:rgb(96,96,96);"/>
        </g>
        <g transform="matrix(4.16667,0,0,4.16667,-1179.28,-945.645)">
            <path d="M423.694,326.179L448.989,326.179" style="fill:none;stroke-width:3.39px;stroke:rgb(96,96,96);"/>
        </g>
        <g transform="matrix(4.16667,0,0,4.16667,-1179.28,-945.645)">
            <path d="M425.269,322.395L447.723,322.395" style="fill:none;stroke-width:3.39px;stroke:rgb(96,96,96);"/>
        </g>
        <g transform="matrix(4.16667,0,0,4.16667,-1179.28,-945.645)">
            <path d="M426.37,318.611L446.545,318.611" style="fill:none;stroke-width:3.39px;stroke:rgb(96,96,96);"/>
        </g>
        <g transform="matrix(4.16667,0,0,4.16667,-1179.28,-945.645)">
            <path d="M426.61,314.827L446.297,314.827" style="fill:none;stroke-width:3.39px;stroke:rgb(96,96,96);"/>
        </g>
        <g transform="matrix(4.16667,0,0,4.16667,-1179.28,-945.645)">
            <path d="M426.983,311.043L445.891,311.043" style="fill:none;stroke-width:3.39px;stroke:rgb(96,96,96);"/>
        </g>
        <g transform="matrix(4.16667,0,0,4.16667,-1179.28,-945.645)">
            <path d="M427.946,307.259L444.853,307.259" style="fill:none;stroke-width:3.39px;stroke:rgb(96,96,96);"/>
        </g>
        <g transform="matrix(4.16667,0,0,4.16667,-1179.28,-945.645)">
            <path d="M428.908,303.475L444.209,303.475" style="fill:none;stroke-width:3.39px;stroke:rgb(96,96,96);"/>
        </g>
        <g transform="matrix(4.16667,0,0,4.16667,-1179.28,-945.645)">
            <path d="M429.245,299.691L443.554,299.691" style="fill:none;stroke-width:3.39px;stroke:rgb(96,96,96);"/>
        </g>
        <g transform="matrix(4.16667,0,0,4.16667,-1179.28,-945.645)">
            <rect x="340.178" y="424.067" width="192.891" height="4.105" style="fill:none;stroke-width:3.39px;stroke:rgb(96,96,96);"/>
        </g>
        <g transform="matrix(4.16667,0,0,4.16667,-1179.28,-945.645)">
            <path d="M436.817,432.922C436.792,432.92 436.77,432.92 436.746,432.919C436.721,432.92 436.699,432.92 436.675,432.922L436.817,432.922Z" style="fill:none;stroke-width:3.39px;stroke:rgb(96,96,96);"/>
        </g>
        <g transform="matrix(4.16667,0,0,4.16667,-1179.28,-945.645)">
            <path d="M340.178,428.172L340.178,442.932L367.001,442.932C367.001,442.932 376.227,432.146 436.745,432.919C497.262,433.693 506.444,442.932 506.444,442.932L533.074,442.932L533.074,428.172" style="fill:none;stroke-width:3.39px;stroke:rgb(96,96,96);"/>
        </g>
        <g transform="matrix(4.16667,0,0,4.16667,-1179.28,-945.645)">
            <rect x="342.768" y="442.904" width="3.915" height="9.625" style="fill:none;stroke-width:3.39px;stroke:rgb(96,96,96);"/>
        </g>
        <g transform="matrix(4.16667,0,0,4.16667,-1179.28,-945.645)">
            <rect x="341.581" y="452.559" width="6.289" height="4.233" style="fill:none;stroke-width:3.39px;stroke:rgb(96,96,96);"/>
        </g>
        <g transform="matrix(4.16667,0,0,4.16667,-1179.28,-945.645)">
            <rect x="527.326" y="442.932" width="3.916" height="9.625" style="fill:none;stroke-width:3.39px;stroke:rgb(96,96,96);"/>
        </g>
        <g transform="matrix(4.16667,0,0,4.16667,-1179.28,-945.645)">
            <rect x="526.139" y="452.588" width="6.289" height="4.233" style="fill:none;stroke-width:3.39px;stroke:rgb(96,96,96);"/>
        </g>
        <g transform="matrix(4.16667,0,0,4.16667,-1179.28,-945.645)">
            <path d="M400.456,452.529L396.541,452.529L396.541,434.51L400.456,434.288L400.456,452.529Z" style="fill:none;stroke-width:3.39px;stroke:rgb(96,96,96);"/>
        </g>
        <g transform="matrix(4.16667,0,0,4.16667,-1179.28,-945.645)">
            <rect x="395.355" y="452.559" width="6.288" height="4.233" style="fill:none;stroke-width:3.39px;stroke:rgb(96,96,96);"/>
        </g>
        <g transform="matrix(4.16667,0,0,4.16667,-1179.28,-945.645)">
            <path d="M466.836,452.529L470.749,452.529L470.749,434.51L466.836,434.288L466.836,452.529Z" style="fill:none;stroke-width:3.39px;stroke:rgb(96,96,96);"/>
        </g>
        <g transform="matrix(4.16667,0,0,4.16667,-1179.28,-945.645)">
            <rect x="465.651" y="452.559" width="6.285" height="4.233" style="fill:none;stroke-width:3.39px;stroke:rgb(96,96,96);"/>
        </g>
        <g transform="matrix(4.16667,0,0,4.16667,-1179.28,-945.645)">
            <path d="M341.581,456.792L532.428,456.792" style="fill:none;stroke-width:3.39px;stroke:rgb(96,96,96);"/>
        </g>
    </g>
</svg>
