<?xml version="1.0" standalone="no"?>
<!DOCTYPE svg PUBLIC "-//W3C//DTD SVG 1.1//EN" "http://www.w3.org/Graphics/SVG/1.1/DTD/svg11.dtd">
<svg width="100%" height="100%" viewBox="0 0 350 137" version="1.1" xmlns="http://www.w3.org/2000/svg" xmlns:xlink="http://www.w3.org/1999/xlink" xml:space="preserve" style="fill-rule:evenodd;clip-rule:evenodd;stroke-linecap:round;stroke-linejoin:round;stroke-miterlimit:1.41421;">
    <g id="4a" transform="matrix(0.125266,-4.4337e-18,-6.1982e-18,0.200425,-4.986,-118.702)">
        <g transform="matrix(6.08347,1.34575e-16,1.88133e-16,3.80217,-668.815,-479.959)">
            <path d="M333.25,381.158L336.991,352.235L340.212,381.158" style="fill:none;stroke-width:3.15px;stroke:rgb(96,96,96);"/>
        </g>
        <g transform="matrix(6.08347,1.34575e-16,1.88133e-16,3.80217,-668.815,-479.959)">
            <path d="M329.625,380.702L334.734,339.368C334.88,338.189 334.999,336.252 334.999,335.064L334.999,314.674C334.999,313.486 335.971,312.507 337.159,312.499L337.249,312.498C338.437,312.49 339.409,313.455 339.409,314.643L339.409,335.072C339.409,336.26 339.523,338.198 339.663,339.377L344.619,381.158" style="fill:none;stroke-width:3.15px;stroke:rgb(96,96,96);"/>
        </g>
        <g transform="matrix(6.08347,1.34575e-16,1.88133e-16,3.80217,-668.815,-479.959)">
            <path d="M242.073,380.812L334.998,313.251" style="fill:none;stroke-width:3.15px;stroke:rgb(96,96,96);"/>
        </g>
        <g transform="matrix(6.08347,1.34575e-16,1.88133e-16,3.80217,-668.815,-479.959)">
            <path d="M266.929,380.708L334.999,313.916" style="fill:none;stroke-width:3.15px;stroke:rgb(96,96,96);"/>
        </g>
        <g transform="matrix(6.08347,1.34575e-16,1.88133e-16,3.80217,-668.815,-479.959)">
            <path d="M289.236,380.812L334.998,314.672" style="fill:none;stroke-width:3.15px;stroke:rgb(96,96,96);"/>
        </g>
        <g transform="matrix(6.08347,1.34575e-16,1.88133e-16,3.80217,-668.815,-479.959)">
            <path d="M307.708,381.219L334.999,316.062" style="fill:none;stroke-width:3.15px;stroke:rgb(96,96,96);"/>
        </g>
        <g transform="matrix(6.08347,1.34575e-16,1.88133e-16,3.80217,-668.815,-479.959)">
            <path d="M321.944,380.812L334.999,317.121" style="fill:none;stroke-width:3.15px;stroke:rgb(96,96,96);"/>
        </g>
        <g transform="matrix(6.08347,1.34575e-16,1.88133e-16,3.80217,-668.815,-479.959)">
            <path d="M432.086,380.812L339.408,313.149" style="fill:none;stroke-width:3.15px;stroke:rgb(96,96,96);"/>
        </g>
        <g transform="matrix(6.08347,1.34575e-16,1.88133e-16,3.80217,-668.815,-479.959)">
            <path d="M407.23,380.708L339.408,314.159" style="fill:none;stroke-width:3.15px;stroke:rgb(96,96,96);"/>
        </g>
        <g transform="matrix(6.08347,1.34575e-16,1.88133e-16,3.80217,-668.815,-479.959)">
            <path d="M384.925,380.812L339.259,314.672" style="fill:none;stroke-width:3.15px;stroke:rgb(96,96,96);"/>
        </g>
        <g transform="matrix(6.08347,1.34575e-16,1.88133e-16,3.80217,-668.815,-479.959)">
            <path d="M366.466,381.219L339.556,316.156" style="fill:none;stroke-width:3.15px;stroke:rgb(96,96,96);"/>
        </g>
        <g transform="matrix(6.08347,1.34575e-16,1.88133e-16,3.80217,-668.815,-479.959)">
            <path d="M352.236,380.812L339.602,318.944" style="fill:none;stroke-width:3.15px;stroke:rgb(96,96,96);"/>
        </g>
        <g transform="matrix(6.08347,1.34575e-16,1.88133e-16,3.80217,-668.815,-479.959)">
            <path d="M140.462,384.995C140.462,386.183 141.434,387.155 142.622,387.155L531.976,387.155C533.164,387.155 534.136,386.183 534.136,384.995L534.136,383.318C534.136,382.13 533.164,381.158 531.976,381.158L142.622,381.158C141.434,381.158 140.462,382.13 140.462,383.318L140.462,384.995Z" style="fill:none;stroke-width:3.15px;stroke:rgb(96,96,96);"/>
        </g>
        <g transform="matrix(6.08347,1.34575e-16,1.88133e-16,3.80217,-668.815,-479.959)">
            <path d="M158.909,387.222L158.909,399.001C158.909,399.793 158.261,400.442 157.469,400.442L156.724,400.442C155.932,400.442 155.284,399.793 155.284,399.001L155.284,387.222" style="fill:none;stroke-width:3.15px;stroke:rgb(96,96,96);"/>
        </g>
        <g transform="matrix(6.08347,1.34575e-16,1.88133e-16,3.80217,-668.815,-479.959)">
            <path d="M180.168,387.223L180.168,399.002C180.168,399.794 179.52,400.443 178.728,400.443L177.983,400.443C177.191,400.443 176.543,399.794 176.543,399.002L176.543,387.223" style="fill:none;stroke-width:3.15px;stroke:rgb(96,96,96);"/>
        </g>
        <g transform="matrix(6.08347,1.34575e-16,1.88133e-16,3.80217,-668.815,-479.959)">
            <path d="M201.454,387.223L201.454,399.002C201.454,399.794 200.806,400.443 200.014,400.443L199.269,400.443C198.477,400.443 197.829,399.794 197.829,399.002L197.829,387.223" style="fill:none;stroke-width:3.15px;stroke:rgb(96,96,96);"/>
        </g>
        <g transform="matrix(6.08347,1.34575e-16,1.88133e-16,3.80217,-668.815,-479.959)">
            <path d="M222.713,387.224L222.713,399.003C222.713,399.795 222.065,400.444 221.273,400.444L220.528,400.444C219.736,400.444 219.088,399.795 219.088,399.003L219.088,387.224" style="fill:none;stroke-width:3.15px;stroke:rgb(96,96,96);"/>
        </g>
        <g transform="matrix(6.08347,1.34575e-16,1.88133e-16,3.80217,-668.815,-479.959)">
            <path d="M243.886,387.224L243.886,399.003C243.886,399.795 243.238,400.444 242.446,400.444L241.701,400.444C240.909,400.444 240.261,399.795 240.261,399.003L240.261,387.224" style="fill:none;stroke-width:3.15px;stroke:rgb(96,96,96);"/>
        </g>
        <g transform="matrix(6.08347,1.34575e-16,1.88133e-16,3.80217,-668.815,-479.959)">
            <path d="M434.773,387.395L434.773,399.174C434.773,399.966 434.125,400.615 433.333,400.615L432.588,400.615C431.796,400.615 431.148,399.966 431.148,399.174L431.148,387.395" style="fill:none;stroke-width:3.15px;stroke:rgb(96,96,96);"/>
        </g>
        <g transform="matrix(6.08347,1.34575e-16,1.88133e-16,3.80217,-668.815,-479.959)">
            <path d="M456.031,387.395L456.031,399.174C456.031,399.967 455.383,400.616 454.591,400.616L453.846,400.616C453.054,400.616 452.406,399.967 452.406,399.174L452.406,387.395" style="fill:none;stroke-width:3.15px;stroke:rgb(96,96,96);"/>
        </g>
        <g transform="matrix(6.08347,1.34575e-16,1.88133e-16,3.80217,-668.815,-479.959)">
            <path d="M477.318,387.395L477.318,399.174C477.318,399.967 476.67,400.616 475.878,400.616L475.133,400.616C474.341,400.616 473.693,399.967 473.693,399.174L473.693,387.395" style="fill:none;stroke-width:3.15px;stroke:rgb(96,96,96);"/>
        </g>
        <g transform="matrix(6.08347,1.34575e-16,1.88133e-16,3.80217,-668.815,-479.959)">
            <path d="M498.577,387.397L498.577,399.176C498.577,399.968 497.929,400.617 497.137,400.617L496.392,400.617C495.6,400.617 494.952,399.968 494.952,399.176L494.952,387.397" style="fill:none;stroke-width:3.15px;stroke:rgb(96,96,96);"/>
        </g>
        <g transform="matrix(6.08347,1.34575e-16,1.88133e-16,3.80217,-668.815,-479.959)">
            <path d="M519.75,387.397L519.75,399.176C519.75,399.968 519.102,400.617 518.31,400.617L517.565,400.617C516.773,400.617 516.125,399.968 516.125,399.176L516.125,387.397" style="fill:none;stroke-width:3.15px;stroke:rgb(96,96,96);"/>
        </g>
        <g transform="matrix(6.08347,1.34575e-16,1.88133e-16,3.80217,-668.815,-479.959)">
            <path d="M333.25,387.395L333.25,399.174C333.25,399.967 332.602,400.616 331.81,400.616L331.065,400.616C330.273,400.616 329.625,399.967 329.625,399.174L329.625,387.395" style="fill:none;stroke-width:3.15px;stroke:rgb(96,96,96);"/>
        </g>
        <g transform="matrix(6.08347,1.34575e-16,1.88133e-16,3.80217,-668.815,-479.959)">
            <path d="M344.425,387.397L344.425,399.176C344.425,399.968 343.777,400.617 342.985,400.617L342.24,400.617C341.448,400.617 340.8,399.968 340.8,399.176L340.8,387.397" style="fill:none;stroke-width:3.15px;stroke:rgb(96,96,96);"/>
        </g>
    </g>
</svg>
