<?xml version="1.0" standalone="no"?>
<!DOCTYPE svg PUBLIC "-//W3C//DTD SVG 1.1//EN" "http://www.w3.org/Graphics/SVG/1.1/DTD/svg11.dtd">
<svg width="100%" height="100%" viewBox="0 0 512 250" version="1.1" xmlns="http://www.w3.org/2000/svg" xmlns:xlink="http://www.w3.org/1999/xlink" xml:space="preserve" style="fill-rule:evenodd;clip-rule:evenodd;stroke-linecap:round;stroke-linejoin:round;stroke-miterlimit:1.41421;">
    <g transform="matrix(1,0,0,1,-3074.7,-2.36241)">
        <g id="6a" transform="matrix(0.4,-8.92791e-18,-1.53253e-17,0.3125,3074.7,2.36241)">
            <g transform="matrix(4.14394,1.1839e-16,2.03223e-16,5.30425,-772.847,-516.625)">
                <path d="M351.718,178.377L345.135,178.377C345.135,175.405 342.725,172.996 339.754,172.996C336.782,172.996 334.372,175.405 334.372,178.377L326.955,178.362" style="fill:none;stroke-width:1.81px;stroke:rgb(96,96,96);"/>
                <g>
                    <circle cx="339.753" cy="178.377" r="3.602" style="fill:none;stroke-width:1.81px;stroke:rgb(96,96,96);"/>
                    <path d="M338.724,176.577L339.754,178.377L341.342,177.477" style="fill:none;stroke-width:1.81px;stroke:rgb(96,96,96);"/>
                </g>
                <path d="M348.581,140.854L350.951,136.718L353.887,142.148" style="fill:none;stroke-width:1.81px;stroke:rgb(96,96,96);"/>
                <path d="M334.507,142.575L339.758,135.49L345.939,143.774" style="fill:none;stroke-width:1.81px;stroke:rgb(96,96,96);"/>
                <path d="M353.887,142.148C352.539,132.386 346.719,125.239 339.741,125.239C332.855,125.239 327.095,132.542 325.651,142.115L328.145,137.454L331.856,143.413" style="fill:none;stroke-width:1.81px;stroke:rgb(96,96,96);"/>
                <path d="M321.766,163.974L321.766,139.664L324.202,139.664L324.202,163.679" style="fill:none;stroke-width:1.81px;stroke:rgb(96,96,96);"/>
                <path d="M321.766,139.664L322.984,132.38L324.202,139.664L321.766,139.664Z" style="fill:none;stroke-width:1.81px;stroke:rgb(96,96,96);"/>
                <path d="M331.855,163.679L331.855,139.664L334.29,139.664L334.339,164.121L334.366,168.767L331.855,170.89" style="fill:none;stroke-width:1.81px;stroke:rgb(96,96,96);"/>
                <path d="M331.855,139.664L333.072,132.38L334.29,139.664L331.855,139.664Z" style="fill:none;stroke-width:1.81px;stroke:rgb(96,96,96);"/>
                <path d="M345.958,163.679L345.958,139.664L348.393,139.664L348.393,164.121L348.364,171.83L345.982,169.767" style="fill:none;stroke-width:1.81px;stroke:rgb(96,96,96);"/>
                <path d="M345.958,139.664L347.175,132.38L348.393,139.664L345.958,139.664Z" style="fill:none;stroke-width:1.81px;stroke:rgb(96,96,96);"/>
                <path d="M354.7,164.267L354.7,139.664L357.136,139.664L357.136,163.284" style="fill:none;stroke-width:1.81px;stroke:rgb(96,96,96);"/>
                <path d="M354.7,139.664L355.918,132.38L357.136,139.664L354.7,139.664Z" style="fill:none;stroke-width:1.81px;stroke:rgb(96,96,96);"/>
                <path d="M321.766,146.212L317.476,146.212" style="fill:none;stroke-width:1.81px;stroke:rgb(96,96,96);"/>
                <path d="M321.766,151.327L319.622,151.327" style="fill:none;stroke-width:1.81px;stroke:rgb(96,96,96);"/>
                <path d="M357.136,146.212L361.426,146.212" style="fill:none;stroke-width:1.81px;stroke:rgb(96,96,96);"/>
                <path d="M357.136,151.327L359.282,151.327" style="fill:none;stroke-width:1.81px;stroke:rgb(96,96,96);"/>
                <path d="M331.856,143.414L328.145,137.454L324.202,144.903" style="fill:none;stroke-width:1.81px;stroke:rgb(96,96,96);"/>
                <path d="M345.958,143.641L339.758,135.49L334.29,142.868" style="fill:none;stroke-width:1.81px;stroke:rgb(96,96,96);"/>
                <path d="M354.651,143.593L350.951,136.718L348.396,141.179" style="fill:none;stroke-width:1.81px;stroke:rgb(96,96,96);"/>
                <path d="M345.982,169.767L345.958,152.375C345.958,147.697 343.346,143.904 340.125,143.904C336.903,143.904 334.291,147.697 334.291,152.375L334.291,168.804L339.502,164.341L345.982,169.767Z" style="fill:none;stroke-width:1.81px;stroke:rgb(96,96,96);"/>
                <path d="M348.393,171.78L348.393,164.56L348.393,152.623C348.393,149.082 349.806,146.211 351.547,146.211C353.287,146.211 354.7,149.082 354.7,152.623L354.7,164.197L352.581,171.093L353.339,171.093L353.349,175.912" style="fill:none;stroke-width:1.81px;stroke:rgb(96,96,96);"/>
                <path d="M331.855,170.845L331.855,164.56L331.855,152.623C331.855,149.082 330.142,146.211 328.029,146.211C325.915,146.211 324.202,149.082 324.202,152.623L324.202,162.99L326.364,171.093L325.669,171.093L325.694,176.166" style="fill:none;stroke-width:1.81px;stroke:rgb(96,96,96);"/>
                <path d="M319.551,171.093L326.364,171.093L323.111,159.798L319.551,171.093Z" style="fill:none;stroke-width:1.81px;stroke:rgb(96,96,96);"/>
                <path d="M326.774,188.567C326.774,189.177 326.279,189.672 325.669,189.672L320.656,189.672C320.046,189.672 319.551,189.177 319.551,188.567C319.551,187.957 320.046,187.463 320.656,187.463L325.669,187.463C326.279,187.462 326.774,187.957 326.774,188.567Z" style="fill:none;stroke-width:1.81px;stroke:rgb(96,96,96);"/>
                <rect x="320.308" y="171.093" width="5.361" height="16.37" style="fill:none;stroke-width:1.81px;stroke:rgb(96,96,96);"/>
                <rect x="320.308" y="189.672" width="5.343" height="16.806" style="fill:none;stroke-width:1.81px;stroke:rgb(96,96,96);"/>
                <path d="M298.297,192.727L302.234,192.727L300.354,184.533L298.297,192.727Z" style="fill:none;stroke-width:1.81px;stroke:rgb(96,96,96);"/>
                <path d="M303.834,206.414C303.834,207.024 303.34,207.518 302.729,207.518L297.716,207.518C297.106,207.518 296.611,207.023 296.611,206.414C296.611,205.803 297.106,205.308 297.716,205.308L302.729,205.308C303.34,205.308 303.834,205.803 303.834,206.414Z" style="fill:none;stroke-width:1.81px;stroke:rgb(96,96,96);"/>
                <rect x="297.91" y="192.727" width="4.625" height="12.582" style="fill:none;stroke-width:1.81px;stroke:rgb(96,96,96);"/>
                <path d="M297.91,220.221L297.91,207.519L302.535,207.519L302.535,220.221" style="fill:none;stroke-width:1.81px;stroke:rgb(96,96,96);"/>
                <path d="M302.52,222.429L302.52,234.016L298.061,234.016L298.061,222.43" style="fill:none;stroke-width:1.81px;stroke:rgb(96,96,96);"/>
                <path d="M352.581,171.093L359.395,171.093L356.141,159.798L352.581,171.093Z" style="fill:none;stroke-width:1.81px;stroke:rgb(96,96,96);"/>
                <path d="M359.803,188.567C359.803,189.177 359.309,189.672 358.699,189.672L353.685,189.672C353.074,189.672 352.581,189.177 352.581,188.567C352.581,187.957 353.074,187.463 353.685,187.463L358.699,187.463C359.309,187.462 359.803,187.957 359.803,188.567Z" style="fill:none;stroke-width:1.81px;stroke:rgb(96,96,96);"/>
                <rect x="353.339" y="171.093" width="5.409" height="16.37" style="fill:none;stroke-width:1.81px;stroke:rgb(96,96,96);"/>
                <rect x="353.341" y="189.672" width="5.53" height="16.806" style="fill:none;stroke-width:1.81px;stroke:rgb(96,96,96);"/>
                <path d="M320.503,206.526L320.503,234.016L358.875,234.016L358.875,206.041" style="fill:none;stroke-width:1.81px;stroke:rgb(96,96,96);"/>
                <path d="M325.669,176.188L339.501,164.341L353.349,176.092" style="fill:none;stroke-width:1.81px;stroke:rgb(96,96,96);"/>
                <path d="M325.694,179.318L339.662,167.972L353.336,179.774" style="fill:none;stroke-width:1.81px;stroke:rgb(96,96,96);"/>
                <rect x="325.694" y="201.049" width="27.671" height="2.291" style="fill:none;stroke-width:1.81px;stroke:rgb(96,96,96);"/>
                <rect x="320.504" y="218.021" width="38.372" height="2.793" style="fill:none;stroke-width:1.81px;stroke:rgb(96,96,96);"/>
                <path d="M326.715,188.225L332.036,183.677L337.352,188.225" style="fill:none;stroke-width:1.81px;stroke:rgb(96,96,96);"/>
                <path d="M341.946,188.225L347.366,183.677L352.585,188.225" style="fill:none;stroke-width:1.81px;stroke:rgb(96,96,96);"/>
                <circle cx="332.033" cy="188.225" r="1.263" style="fill:none;stroke-width:1.81px;stroke:rgb(96,96,96);"/>
                <circle cx="347.481" cy="188.225" r="1.262" style="fill:none;stroke-width:1.81px;stroke:rgb(96,96,96);"/>
                <path d="M333.666,210.62C333.666,208.349 332.164,206.507 330.311,206.507C328.457,206.507 326.955,208.349 326.955,210.62L326.955,216.271L333.666,216.271L333.666,210.62Z" style="fill:none;stroke-width:1.81px;stroke:rgb(96,96,96);"/>
                <path d="M330.854,227.339C330.854,224.701 329.352,222.564 327.499,222.564C325.645,222.564 324.143,224.701 324.143,227.339L324.143,233.901L330.855,233.901L330.855,227.339L330.854,227.339Z" style="fill:none;stroke-width:1.81px;stroke:rgb(96,96,96);"/>
                <path d="M343.2,227.339C343.2,224.701 341.696,222.564 339.843,222.564C337.99,222.564 336.486,224.701 336.486,227.339L336.486,233.901L343.2,233.901L343.2,227.339L343.2,227.339Z" style="fill:none;stroke-width:1.81px;stroke:rgb(96,96,96);"/>
                <path d="M355.541,227.339C355.541,224.701 354.039,222.564 352.187,222.564C350.333,222.564 348.83,224.701 348.83,227.339L348.83,233.901L355.541,233.901L355.541,227.339Z" style="fill:none;stroke-width:1.81px;stroke:rgb(96,96,96);"/>
                <path d="M342.882,210.62C342.882,208.349 341.381,206.507 339.528,206.507C337.674,206.507 336.172,208.349 336.172,210.62L336.172,216.271L342.883,216.271L342.883,210.62L342.882,210.62Z" style="fill:none;stroke-width:1.81px;stroke:rgb(96,96,96);"/>
                <path d="M352.1,210.62C352.1,208.349 350.598,206.507 348.744,206.507C346.891,206.507 345.389,208.349 345.389,210.62L345.389,216.271L352.1,216.271L352.1,210.62Z" style="fill:none;stroke-width:1.81px;stroke:rgb(96,96,96);"/>
                <path d="M331.316,194.03C331.316,192.685 330.628,191.595 329.781,191.595C328.933,191.595 328.246,192.685 328.246,194.03L328.246,199.738L331.315,199.738L331.315,194.03L331.316,194.03Z" style="fill:none;stroke-width:1.81px;stroke:rgb(96,96,96);"/>
                <path d="M288.208,198.523C288.208,197.178 287.521,196.088 286.673,196.088C285.825,196.088 285.138,197.178 285.138,198.523L285.138,204.231L288.207,204.231L288.207,198.523L288.208,198.523Z" style="fill:none;stroke-width:1.81px;stroke:rgb(96,96,96);"/>
                <path d="M230.896,182.773C230.896,180.994 230.068,179.551 229.048,179.551C228.027,179.551 227.2,180.994 227.2,182.773L227.2,190.327L230.896,190.327L230.896,182.773L230.896,182.773Z" style="fill:none;stroke-width:1.81px;stroke:rgb(96,96,96);"/>
                <path d="M240.04,182.773C240.04,180.994 239.212,179.551 238.192,179.551C237.171,179.551 236.344,180.994 236.344,182.773L236.344,190.327L240.04,190.327L240.04,182.773L240.04,182.773Z" style="fill:none;stroke-width:1.81px;stroke:rgb(96,96,96);"/>
                <path d="M249.182,182.773C249.182,180.994 248.355,179.551 247.334,179.551C246.313,179.551 245.485,180.994 245.485,182.773L245.485,190.327L249.181,190.327L249.181,182.773L249.182,182.773Z" style="fill:none;stroke-width:1.81px;stroke:rgb(96,96,96);"/>
                <path d="M231.054,200.98C231.054,199.685 230.226,198.636 229.206,198.636C228.185,198.636 227.357,199.685 227.357,200.98L227.357,206.476L231.054,206.476L231.054,200.98Z" style="fill:none;stroke-width:1.81px;stroke:rgb(96,96,96);"/>
                <path d="M239.604,200.98C239.604,199.685 238.776,198.636 237.756,198.636C236.735,198.636 235.907,199.685 235.907,200.98L235.907,206.476L239.604,206.476L239.604,200.98Z" style="fill:none;stroke-width:1.81px;stroke:rgb(96,96,96);"/>
                <path d="M249.339,200.98C249.339,199.685 248.512,198.636 247.491,198.636C246.47,198.636 245.643,199.685 245.643,200.98L245.643,206.476L249.339,206.476L249.339,200.98L249.339,200.98Z" style="fill:none;stroke-width:1.81px;stroke:rgb(96,96,96);"/>
                <path d="M295.206,198.523C295.206,197.178 294.519,196.088 293.671,196.088C292.823,196.088 292.136,197.178 292.136,198.523L292.136,204.231L295.205,204.231L295.205,198.523L295.206,198.523Z" style="fill:none;stroke-width:1.81px;stroke:rgb(96,96,96);"/>
                <path d="M309.907,198.523C309.907,197.178 309.135,196.088 308.182,196.088C307.229,196.088 306.457,197.178 306.457,198.523L306.457,204.231L309.906,204.231L309.906,198.523L309.907,198.523Z" style="fill:none;stroke-width:1.81px;stroke:rgb(96,96,96);"/>
                <path d="M317.586,198.523C317.586,197.178 316.814,196.088 315.861,196.088C314.908,196.088 314.136,197.178 314.136,198.523L314.136,204.231L317.586,204.231L317.586,198.523L317.586,198.523Z" style="fill:none;stroke-width:1.81px;stroke:rgb(96,96,96);"/>
                <path d="M336.104,194.03C336.104,192.685 335.417,191.595 334.57,191.595C333.722,191.595 333.035,192.685 333.035,194.03L333.035,199.738L336.104,199.738L336.104,194.03Z" style="fill:none;stroke-width:1.81px;stroke:rgb(96,96,96);"/>
                <path d="M346.785,194.03C346.785,192.685 346.098,191.595 345.251,191.595C344.403,191.595 343.716,192.685 343.716,194.03L343.716,199.738L346.785,199.738L346.785,194.03Z" style="fill:none;stroke-width:1.81px;stroke:rgb(96,96,96);"/>
                <path d="M351.573,194.03C351.573,192.685 350.886,191.595 350.039,191.595C349.192,191.595 348.505,192.685 348.505,194.03L348.505,199.738L351.573,199.738L351.573,194.03Z" style="fill:none;stroke-width:1.81px;stroke:rgb(96,96,96);"/>
                <circle cx="333.666" cy="223.833" r="1.78" style="fill:none;stroke-width:1.81px;stroke:rgb(96,96,96);"/>
                <path d="M309.35,228.792C309.35,226.716 308.167,225.033 306.708,225.033C305.249,225.033 304.066,226.717 304.066,228.792L304.066,233.958L309.35,233.958L309.35,228.792Z" style="fill:none;stroke-width:1.81px;stroke:rgb(96,96,96);"/>
                <path d="M319.069,228.792C319.069,226.716 317.886,225.033 316.427,225.033C314.968,225.033 313.785,226.717 313.785,228.792L313.785,233.958L319.069,233.958L319.069,228.792Z" style="fill:none;stroke-width:1.81px;stroke:rgb(96,96,96);"/>
                <circle cx="311.563" cy="225.862" r="1.402" style="fill:none;stroke-width:1.81px;stroke:rgb(96,96,96);"/>
                <path d="M287.611,228.792C287.611,226.716 286.645,225.033 285.454,225.033C284.263,225.033 283.297,226.717 283.297,228.792L283.297,233.958L287.611,233.958L287.611,228.792L287.611,228.792Z" style="fill:none;stroke-width:1.81px;stroke:rgb(96,96,96);"/>
                <path d="M296.58,228.792C296.58,226.716 295.565,225.033 294.313,225.033C293.061,225.033 292.046,226.717 292.046,228.792L292.046,233.958L296.58,233.958L296.58,228.792Z" style="fill:none;stroke-width:1.81px;stroke:rgb(96,96,96);"/>
                <circle cx="289.824" cy="225.862" r="1.402" style="fill:none;stroke-width:1.81px;stroke:rgb(96,96,96);"/>
                <path d="M370.851,228.792C370.851,226.716 372.034,225.033 373.493,225.033C374.952,225.033 376.137,226.717 376.137,228.792L376.137,233.958L370.852,233.958L370.852,228.792L370.851,228.792Z" style="fill:none;stroke-width:1.81px;stroke:rgb(96,96,96);"/>
                <path d="M361.132,228.792C361.132,226.716 362.315,225.033 363.774,225.033C365.233,225.033 366.417,226.717 366.417,228.792L366.417,233.958L361.133,233.958L361.133,228.792L361.132,228.792Z" style="fill:none;stroke-width:1.81px;stroke:rgb(96,96,96);"/>
                <circle cx="368.637" cy="225.862" r="1.401" style="fill:none;stroke-width:1.81px;stroke:rgb(96,96,96);"/>
                <path d="M393.228,228.792C393.228,226.716 394.193,225.033 395.385,225.033C396.575,225.033 397.541,226.717 397.541,228.792L397.541,233.958L393.228,233.958L393.228,228.792Z" style="fill:none;stroke-width:1.81px;stroke:rgb(96,96,96);"/>
                <path d="M384.257,228.792C384.257,226.716 385.275,225.033 386.525,225.033C387.778,225.033 388.795,226.717 388.795,228.792L388.795,233.958L384.258,233.958L384.258,228.792L384.257,228.792Z" style="fill:none;stroke-width:1.81px;stroke:rgb(96,96,96);"/>
                <circle cx="391.014" cy="225.862" r="1.401" style="fill:none;stroke-width:1.81px;stroke:rgb(96,96,96);"/>
                <circle cx="346.022" cy="224.06" r="1.781" style="fill:none;stroke-width:1.81px;stroke:rgb(96,96,96);"/>
                <g>
                    <path d="M355.092,177.907L355.092,180.73" style="fill:none;stroke-width:1.81px;stroke:rgb(96,96,96);"/>
                    <path d="M355.092,182.694L355.092,185.519" style="fill:none;stroke-width:1.81px;stroke:rgb(96,96,96);"/>
                </g>
                <g>
                    <path d="M357.136,177.907L357.136,180.73" style="fill:none;stroke-width:1.81px;stroke:rgb(96,96,96);"/>
                    <path d="M357.136,182.694L357.136,185.519" style="fill:none;stroke-width:1.81px;stroke:rgb(96,96,96);"/>
                </g>
                <g>
                    <path d="M353.336,177.186C353.336,176.178 353.923,175.36 354.708,175.36C355.494,175.36 356.128,176.178 356.128,177.186" style="fill:none;stroke-width:1.81px;stroke:rgb(96,96,96);"/>
                    <path d="M356.15,177.186C356.15,176.178 356.722,175.36 357.426,175.36C358.131,175.36 358.701,176.178 358.701,177.186" style="fill:none;stroke-width:1.81px;stroke:rgb(96,96,96);"/>
                </g>
                <g>
                    <path d="M355.161,196.076L355.161,198.9" style="fill:none;stroke-width:1.81px;stroke:rgb(96,96,96);"/>
                    <path d="M355.161,200.864L355.161,203.688" style="fill:none;stroke-width:1.81px;stroke:rgb(96,96,96);"/>
                </g>
                <g>
                    <path d="M357.25,196.076L357.25,198.9" style="fill:none;stroke-width:1.81px;stroke:rgb(96,96,96);"/>
                    <path d="M357.25,200.864L357.25,203.688" style="fill:none;stroke-width:1.81px;stroke:rgb(96,96,96);"/>
                </g>
                <g>
                    <path d="M353.365,195.355C353.365,194.346 353.966,193.529 354.768,193.529C355.568,193.529 356.218,194.346 356.218,195.355" style="fill:none;stroke-width:1.81px;stroke:rgb(96,96,96);"/>
                    <path d="M356.242,195.355C356.242,194.346 356.827,193.529 357.546,193.529C358.268,193.529 358.852,194.346 358.852,195.355" style="fill:none;stroke-width:1.81px;stroke:rgb(96,96,96);"/>
                </g>
                <g>
                    <path d="M322.065,176.95L322.065,179.774" style="fill:none;stroke-width:1.81px;stroke:rgb(96,96,96);"/>
                    <path d="M322.065,181.738L322.065,184.562" style="fill:none;stroke-width:1.81px;stroke:rgb(96,96,96);"/>
                </g>
                <g>
                    <path d="M324.108,176.95L324.108,179.774" style="fill:none;stroke-width:1.81px;stroke:rgb(96,96,96);"/>
                    <path d="M324.108,181.738L324.108,184.562" style="fill:none;stroke-width:1.81px;stroke:rgb(96,96,96);"/>
                </g>
                <g>
                    <path d="M320.309,176.229C320.309,175.221 320.896,174.403 321.681,174.403C322.466,174.403 323.1,175.221 323.1,176.229" style="fill:none;stroke-width:1.81px;stroke:rgb(96,96,96);"/>
                    <path d="M323.123,176.229C323.123,175.221 323.694,174.403 324.399,174.403C325.104,174.403 325.675,175.221 325.675,176.229" style="fill:none;stroke-width:1.81px;stroke:rgb(96,96,96);"/>
                </g>
                <g>
                    <path d="M322.133,195.12L322.133,197.943" style="fill:none;stroke-width:1.81px;stroke:rgb(96,96,96);"/>
                    <path d="M322.133,199.908L322.133,202.731" style="fill:none;stroke-width:1.81px;stroke:rgb(96,96,96);"/>
                </g>
                <g>
                    <path d="M324.222,195.12L324.222,197.943" style="fill:none;stroke-width:1.81px;stroke:rgb(96,96,96);"/>
                    <path d="M324.222,199.908L324.222,202.731" style="fill:none;stroke-width:1.81px;stroke:rgb(96,96,96);"/>
                </g>
                <g>
                    <path d="M320.355,194.398C320.355,193.39 320.933,192.572 321.708,192.572C322.481,192.572 323.108,193.39 323.108,194.398" style="fill:none;stroke-width:1.81px;stroke:rgb(96,96,96);"/>
                    <path d="M323.13,194.398C323.13,193.39 323.693,192.572 324.388,192.572C325.083,192.572 325.647,193.39 325.647,194.398" style="fill:none;stroke-width:1.81px;stroke:rgb(96,96,96);"/>
                </g>
                <path d="M208.994,207.391L215.807,207.391L212.554,196.097L208.994,207.391Z" style="fill:none;stroke-width:1.81px;stroke:rgb(96,96,96);"/>
                <path d="M216.216,224.868C216.216,225.476 215.722,225.972 215.112,225.972L210.099,225.972C209.488,225.972 208.994,225.477 208.994,224.868C208.994,224.257 209.488,223.76 210.099,223.76L215.112,223.76C215.722,223.76 216.216,224.256 216.216,224.868Z" style="fill:none;stroke-width:1.81px;stroke:rgb(96,96,96);"/>
                <rect x="209.75" y="207.391" width="5.362" height="16.369" style="fill:none;stroke-width:1.81px;stroke:rgb(96,96,96);"/>
                <rect x="209.924" y="225.971" width="5.169" height="16.37" style="fill:none;stroke-width:1.81px;stroke:rgb(96,96,96);"/>
                <g>
                    <path d="M209.752,212.527C209.752,211.518 210.339,210.701 211.124,210.701C211.909,210.701 212.544,211.518 212.544,212.527" style="fill:none;stroke-width:1.81px;stroke:rgb(96,96,96);"/>
                    <path d="M212.565,212.527C212.565,211.518 213.136,210.701 213.841,210.701C214.547,210.701 215.118,211.518 215.118,212.527" style="fill:none;stroke-width:1.81px;stroke:rgb(96,96,96);"/>
                </g>
                <g>
                    <path d="M209.958,230.698C209.958,229.69 210.52,228.872 211.27,228.872C212.02,228.872 212.627,229.69 212.627,230.698" style="fill:none;stroke-width:1.81px;stroke:rgb(96,96,96);"/>
                    <path d="M212.648,230.698C212.648,229.69 213.194,228.872 213.868,228.872C214.542,228.872 215.089,229.69 215.089,230.698" style="fill:none;stroke-width:1.81px;stroke:rgb(96,96,96);"/>
                </g>
                <path d="M259.844,207.441L266.658,207.441L263.404,196.146L259.844,207.441Z" style="fill:none;stroke-width:1.81px;stroke:rgb(96,96,96);"/>
                <path d="M267.067,224.917C267.067,225.527 266.572,226.022 265.962,226.022L260.948,226.022C260.338,226.022 259.844,225.527 259.844,224.917C259.844,224.306 260.339,223.811 260.948,223.811L265.962,223.811C266.572,223.81 267.067,224.305 267.067,224.917Z" style="fill:none;stroke-width:1.81px;stroke:rgb(96,96,96);"/>
                <rect x="260.601" y="207.441" width="5.361" height="16.369" style="fill:none;stroke-width:1.81px;stroke:rgb(96,96,96);"/>
                <rect x="260.775" y="226.021" width="5.17" height="16.369" style="fill:none;stroke-width:1.81px;stroke:rgb(96,96,96);"/>
                <g>
                    <path d="M260.602,212.577C260.602,211.568 261.189,210.751 261.975,210.751C262.759,210.751 263.394,211.568 263.394,212.577" style="fill:none;stroke-width:1.81px;stroke:rgb(96,96,96);"/>
                    <path d="M263.417,212.577C263.417,211.568 263.988,210.751 264.693,210.751C265.398,210.751 265.969,211.568 265.969,212.577" style="fill:none;stroke-width:1.81px;stroke:rgb(96,96,96);"/>
                </g>
                <g>
                    <path d="M260.809,230.747C260.809,229.739 261.37,228.921 262.12,228.921C262.87,228.921 263.477,229.739 263.477,230.747" style="fill:none;stroke-width:1.81px;stroke:rgb(96,96,96);"/>
                    <path d="M263.499,230.747C263.499,229.739 264.045,228.921 264.719,228.921C265.393,228.921 265.94,229.739 265.94,230.747" style="fill:none;stroke-width:1.81px;stroke:rgb(96,96,96);"/>
                </g>
                <g>
                    <path d="M297.922,197.045C297.922,196.036 298.423,195.219 299.092,195.219C299.761,195.219 300.303,196.036 300.303,197.045" style="fill:none;stroke-width:1.81px;stroke:rgb(96,96,96);"/>
                    <path d="M300.323,197.045C300.323,196.036 300.811,195.219 301.412,195.219C302.013,195.219 302.5,196.036 302.5,197.045" style="fill:none;stroke-width:1.81px;stroke:rgb(96,96,96);"/>
                </g>
                <g>
                    <path d="M297.913,211.616C297.913,210.608 298.42,209.79 299.1,209.79C299.777,209.79 300.326,210.608 300.326,211.616" style="fill:none;stroke-width:1.81px;stroke:rgb(96,96,96);"/>
                    <path d="M300.345,211.616C300.345,210.608 300.839,209.79 301.448,209.79C302.057,209.79 302.552,210.608 302.552,211.616" style="fill:none;stroke-width:1.81px;stroke:rgb(96,96,96);"/>
                </g>
                <g>
                    <path d="M298.064,226.348C298.064,225.34 298.509,224.521 299.169,224.521C299.829,224.521 300.363,225.34 300.363,226.348" style="fill:none;stroke-width:1.81px;stroke:rgb(96,96,96);"/>
                    <path d="M300.383,226.348C300.383,225.34 300.863,224.521 301.456,224.521C302.049,224.521 302.53,225.34 302.53,226.348" style="fill:none;stroke-width:1.81px;stroke:rgb(96,96,96);"/>
                </g>
                <path d="M338.518,188.567L340.812,188.567" style="fill:none;stroke-width:1.81px;stroke:rgb(96,96,96);"/>
                <path d="M321.855,156.835L324.149,156.835" style="fill:none;stroke-width:1.81px;stroke:rgb(96,96,96);"/>
                <path d="M321.811,148.135L324.105,148.135" style="fill:none;stroke-width:1.81px;stroke:rgb(96,96,96);"/>
                <path d="M354.795,156.345L357.087,156.345" style="fill:none;stroke-width:1.81px;stroke:rgb(96,96,96);"/>
                <path d="M354.749,147.644L357.044,147.644" style="fill:none;stroke-width:1.81px;stroke:rgb(96,96,96);"/>
                <path d="M346.112,156.316L348.405,156.316" style="fill:none;stroke-width:1.81px;stroke:rgb(96,96,96);"/>
                <path d="M346.068,147.615L348.361,147.615" style="fill:none;stroke-width:1.81px;stroke:rgb(96,96,96);"/>
                <path d="M331.949,156.835L334.242,156.835" style="fill:none;stroke-width:1.81px;stroke:rgb(96,96,96);"/>
                <path d="M331.904,148.135L334.198,148.135" style="fill:none;stroke-width:1.81px;stroke:rgb(96,96,96);"/>
                <path d="M296.611,206.414L282.021,206.414" style="fill:none;stroke-width:1.81px;stroke:rgb(96,96,96);"/>
                <path d="M320.482,206.414L303.834,206.414" style="fill:none;stroke-width:1.81px;stroke:rgb(96,96,96);"/>
                <path d="M320.493,221.325L303.887,221.325" style="fill:none;stroke-width:1.81px;stroke:rgb(96,96,96);"/>
                <path d="M320.516,234.016L282.07,234.016" style="fill:none;stroke-width:1.81px;stroke:rgb(96,96,96);"/>
                <path d="M399.295,233.984L358.875,233.984" style="fill:none;stroke-width:1.81px;stroke:rgb(96,96,96);"/>
                <path d="M289.043,221.325L289.043,215.558C289.043,212.372 287.443,209.79 285.47,209.79C283.497,209.79 282.046,212.373 282.046,215.558L281.962,221.325" style="fill:none;stroke-width:1.81px;stroke:rgb(96,96,96);"/>
                <path d="M291.061,221.325L291.061,215.558C291.061,212.372 292.632,209.79 294.569,209.79C296.506,209.79 297.929,212.373 297.929,215.558L297.929,217.016" style="fill:none;stroke-width:1.81px;stroke:rgb(96,96,96);"/>
                <path d="M389.798,221.096L389.798,215.329C389.798,212.142 388.126,209.56 386.064,209.56C384.001,209.56 382.484,212.142 382.484,215.329L382.396,220.234" style="fill:none;stroke-width:1.81px;stroke:rgb(96,96,96);"/>
                <path d="M391.907,221.096L391.907,215.329C391.907,212.142 393.567,209.56 395.614,209.56C397.662,209.56 399.167,212.142 399.167,215.329L399.167,221.096" style="fill:none;stroke-width:1.81px;stroke:rgb(96,96,96);"/>
                <path d="M310.893,221.079L310.893,215.558C310.893,212.372 309.293,209.79 307.32,209.79C305.346,209.79 303.747,212.373 303.747,215.558L303.747,220.648" style="fill:none;stroke-width:1.81px;stroke:rgb(96,96,96);"/>
                <path d="M312.403,221.03L312.403,215.557C312.403,212.371 313.973,209.789 315.911,209.789C317.849,209.789 319.419,212.372 319.419,215.557L319.419,221.03" style="fill:none;stroke-width:1.81px;stroke:rgb(96,96,96);"/>
                <path d="M382.087,192.792L377.967,192.792L379.935,184.598L382.087,192.792Z" style="fill:none;stroke-width:1.81px;stroke:rgb(96,96,96);"/>
                <path d="M376.292,206.479C376.292,207.09 376.811,207.584 377.448,207.584L382.696,207.584C383.334,207.584 383.851,207.089 383.851,206.479C383.851,205.869 383.333,205.375 382.696,205.375L377.448,205.375C376.811,205.375 376.292,205.869 376.292,206.479Z" style="fill:none;stroke-width:1.81px;stroke:rgb(96,96,96);"/>
                <rect x="377.652" y="192.792" width="4.84" height="12.582" style="fill:none;stroke-width:1.81px;stroke:rgb(96,96,96);"/>
                <path d="M382.492,220.286L382.492,207.584L377.652,207.584L377.652,220.287" style="fill:none;stroke-width:1.81px;stroke:rgb(96,96,96);"/>
                <path d="M377.668,222.495L377.668,233.958L382.336,233.958L382.336,222.495" style="fill:none;stroke-width:1.81px;stroke:rgb(96,96,96);"/>
                <path d="M392.715,198.589C392.715,197.244 393.435,196.154 394.322,196.154C395.209,196.154 395.927,197.244 395.927,198.589L395.927,204.297L392.714,204.297L392.714,198.589L392.715,198.589Z" style="fill:none;stroke-width:1.81px;stroke:rgb(96,96,96);"/>
                <path d="M385.77,198.589C385.77,197.244 386.487,196.154 387.374,196.154C388.261,196.154 388.98,197.244 388.98,198.589L388.98,204.297L385.769,204.297L385.769,198.589L385.77,198.589Z" style="fill:none;stroke-width:1.81px;stroke:rgb(96,96,96);"/>
                <path d="M370.519,198.589C370.519,197.244 371.327,196.154 372.325,196.154C373.322,196.154 374.131,197.244 374.131,198.589L374.131,204.297L370.52,204.297L370.52,198.589L370.519,198.589Z" style="fill:none;stroke-width:1.81px;stroke:rgb(96,96,96);"/>
                <path d="M362.344,198.589C362.344,197.244 363.153,196.154 364.15,196.154C365.148,196.154 365.955,197.244 365.955,198.589L365.955,204.297L362.345,204.297L362.345,198.589L362.344,198.589Z" style="fill:none;stroke-width:1.81px;stroke:rgb(96,96,96);"/>
                <g>
                    <path d="M382.479,197.11C382.479,196.101 381.956,195.283 381.254,195.283C380.554,195.283 379.986,196.101 379.986,197.11" style="fill:none;stroke-width:1.81px;stroke:rgb(96,96,96);"/>
                    <path d="M379.967,197.11C379.967,196.101 379.457,195.283 378.827,195.283C378.197,195.283 377.686,196.101 377.686,197.11" style="fill:none;stroke-width:1.81px;stroke:rgb(96,96,96);"/>
                </g>
                <g>
                    <path d="M382.489,211.681C382.489,210.673 381.959,209.855 381.247,209.855C380.54,209.855 379.965,210.673 379.965,211.681" style="fill:none;stroke-width:1.81px;stroke:rgb(96,96,96);"/>
                    <path d="M379.944,211.681C379.944,210.673 379.427,209.855 378.79,209.855C378.153,209.855 377.636,210.673 377.636,211.681" style="fill:none;stroke-width:1.81px;stroke:rgb(96,96,96);"/>
                </g>
                <g>
                    <path d="M382.331,226.414C382.331,225.406 381.865,224.587 381.174,224.587C380.484,224.587 379.924,225.406 379.924,226.414" style="fill:none;stroke-width:1.81px;stroke:rgb(96,96,96);"/>
                    <path d="M379.904,226.414C379.904,225.406 379.401,224.587 378.78,224.587C378.16,224.587 377.657,225.406 377.657,226.414" style="fill:none;stroke-width:1.81px;stroke:rgb(96,96,96);"/>
                </g>
                <path d="M383.852,206.479L399.227,206.479" style="fill:none;stroke-width:1.81px;stroke:rgb(96,96,96);"/>
                <path d="M358.869,206.479L376.292,206.479" style="fill:none;stroke-width:1.81px;stroke:rgb(96,96,96);"/>
                <path d="M383.781,221.39L399.215,221.39" style="fill:none;stroke-width:1.81px;stroke:rgb(96,96,96);"/>
                <path d="M367.324,221.39L367.324,215.623C367.324,212.437 365.679,209.855 363.651,209.855C361.624,209.855 359.978,212.438 359.978,215.623L359.978,221.39" style="fill:none;stroke-width:1.81px;stroke:rgb(96,96,96);"/>
                <path d="M376.087,221.265L376.087,215.497C376.087,212.311 374.442,209.729 372.414,209.729C370.387,209.729 368.742,212.312 368.742,215.497L368.742,221.265" style="fill:none;stroke-width:1.81px;stroke:rgb(96,96,96);"/>
                <g>
                    <path d="M323.003,128.673L323.003,132.233" style="fill:none;stroke-width:1.81px;stroke:rgb(96,96,96);"/>
                    <path d="M321.938,131.456L324.066,131.456" style="fill:none;stroke-width:1.81px;stroke:rgb(96,96,96);"/>
                </g>
                <g>
                    <path d="M203.269,116.216L203.269,126.553" style="fill:none;stroke-width:1.81px;stroke:rgb(96,96,96);"/>
                    <path d="M202.204,124.793L204.333,124.793" style="fill:none;stroke-width:1.81px;stroke:rgb(96,96,96);"/>
                </g>
                <g>
                    <path d="M339.468,160.637L339.468,164.197" style="fill:none;stroke-width:1.81px;stroke:rgb(96,96,96);"/>
                    <path d="M338.403,163.42L340.533,163.42" style="fill:none;stroke-width:1.81px;stroke:rgb(96,96,96);"/>
                </g>
                <g>
                    <path d="M333.095,128.689L333.095,132.249" style="fill:none;stroke-width:1.81px;stroke:rgb(96,96,96);"/>
                    <path d="M332.03,131.472L334.159,131.472" style="fill:none;stroke-width:1.81px;stroke:rgb(96,96,96);"/>
                </g>
                <g>
                    <path d="M347.175,128.82L347.175,132.38" style="fill:none;stroke-width:1.81px;stroke:rgb(96,96,96);"/>
                    <path d="M346.112,131.603L348.239,131.603" style="fill:none;stroke-width:1.81px;stroke:rgb(96,96,96);"/>
                </g>
                <g>
                    <path d="M355.945,128.672L355.945,132.232" style="fill:none;stroke-width:1.81px;stroke:rgb(96,96,96);"/>
                    <path d="M354.882,131.455L357.009,131.455" style="fill:none;stroke-width:1.81px;stroke:rgb(96,96,96);"/>
                </g>
                <g>
                    <path d="M193.242,158.96L193.242,163.454" style="fill:none;stroke-width:1.81px;stroke:rgb(96,96,96);"/>
                    <path d="M193.242,166.581L193.242,171.073" style="fill:none;stroke-width:1.81px;stroke:rgb(96,96,96);"/>
                </g>
                <g>
                    <path d="M195.331,158.96L195.331,163.454" style="fill:none;stroke-width:1.81px;stroke:rgb(96,96,96);"/>
                    <path d="M195.331,166.581L195.331,171.073" style="fill:none;stroke-width:1.81px;stroke:rgb(96,96,96);"/>
                </g>
                <g>
                    <path d="M194.296,137.083L194.296,140.644" style="fill:none;stroke-width:1.81px;stroke:rgb(96,96,96);"/>
                    <path d="M193.232,139.865L195.36,139.865" style="fill:none;stroke-width:1.81px;stroke:rgb(96,96,96);"/>
                </g>
                <path d="M194.304,140.892L191.636,146.621L196.957,146.621L194.304,140.892Z" style="fill:none;stroke-width:1.81px;stroke:rgb(96,96,96);"/>
                <path d="M198.501,148.442C198.501,149.425 197.705,150.222 196.721,150.222L191.871,150.222C190.888,150.222 190.091,149.425 190.091,148.442C190.091,147.459 190.888,146.662 191.871,146.662L196.721,146.662C197.705,146.663 198.501,147.459 198.501,148.442Z" style="fill:none;stroke-width:1.81px;stroke:rgb(96,96,96);"/>
                <path d="M191.474,153.844L197.023,153.844L197.023,156.361L191.437,156.361L191.474,153.844Z" style="fill:none;stroke-width:1.81px;stroke:rgb(96,96,96);"/>
                <path d="M192.399,178.926L194.036,181.037L195.959,178.967" style="fill:none;stroke-width:1.81px;stroke:rgb(96,96,96);"/>
                <g>
                    <path d="M211.78,158.96L211.78,163.454" style="fill:none;stroke-width:1.81px;stroke:rgb(96,96,96);"/>
                    <path d="M211.78,166.581L211.78,171.073" style="fill:none;stroke-width:1.81px;stroke:rgb(96,96,96);"/>
                </g>
                <g>
                    <path d="M213.868,158.96L213.868,163.454" style="fill:none;stroke-width:1.81px;stroke:rgb(96,96,96);"/>
                    <path d="M213.868,166.581L213.868,171.073" style="fill:none;stroke-width:1.81px;stroke:rgb(96,96,96);"/>
                </g>
                <g>
                    <path d="M212.834,137.083L212.834,140.644" style="fill:none;stroke-width:1.81px;stroke:rgb(96,96,96);"/>
                    <path d="M211.77,139.865L213.898,139.865" style="fill:none;stroke-width:1.81px;stroke:rgb(96,96,96);"/>
                </g>
                <path d="M212.842,140.892L210.174,146.621L215.494,146.621L212.842,140.892Z" style="fill:none;stroke-width:1.81px;stroke:rgb(96,96,96);"/>
                <path d="M217.04,148.442C217.04,149.425 216.243,150.222 215.259,150.222L210.41,150.222C209.427,150.222 208.63,149.425 208.63,148.442C208.63,147.459 209.427,146.662 210.41,146.662L215.259,146.662C216.242,146.663 217.04,147.459 217.04,148.442Z" style="fill:none;stroke-width:1.81px;stroke:rgb(96,96,96);"/>
                <path d="M210.012,153.844L215.561,153.844L215.561,156.361L210.024,156.361L210.012,153.844Z" style="fill:none;stroke-width:1.81px;stroke:rgb(96,96,96);"/>
                <path d="M210.937,178.926L212.574,181.037L214.498,178.967" style="fill:none;stroke-width:1.81px;stroke:rgb(96,96,96);"/>
                <path d="M197.121,151.45L209.975,151.45" style="fill:none;stroke-width:1.81px;stroke:rgb(96,96,96);"/>
                <path d="M197.104,155.102L209.975,155.102" style="fill:none;stroke-width:1.81px;stroke:rgb(96,96,96);"/>
                <path d="M197.055,173.793L209.978,173.793" style="fill:none;stroke-width:1.81px;stroke:rgb(96,96,96);"/>
                <path d="M197.055,177.518L209.978,177.518" style="fill:none;stroke-width:1.81px;stroke:rgb(96,96,96);"/>
                <path d="M203.275,126.651L197.695,143.757L209.337,143.757L203.275,126.651Z" style="fill:none;stroke-width:1.81px;stroke:rgb(96,96,96);"/>
                <path d="M212.619,196.098L212.619,181.037" style="fill:none;stroke-width:1.81px;stroke:rgb(96,96,96);"/>
                <path d="M194.036,193.765L282.022,193.765" style="fill:none;stroke-width:1.81px;stroke:rgb(96,96,96);"/>
                <path d="M194.257,195.974L281.861,195.974" style="fill:none;stroke-width:1.81px;stroke:rgb(96,96,96);"/>
                <path d="M194.195,212.016L209.72,212.016" style="fill:none;stroke-width:1.81px;stroke:rgb(96,96,96);"/>
                <g>
                    <path d="M272.672,116.239L272.672,126.577" style="fill:none;stroke-width:1.81px;stroke:rgb(96,96,96);"/>
                    <path d="M271.608,124.817L273.736,124.817" style="fill:none;stroke-width:1.81px;stroke:rgb(96,96,96);"/>
                </g>
                <g>
                    <path d="M262.646,158.984L262.646,163.478" style="fill:none;stroke-width:1.81px;stroke:rgb(96,96,96);"/>
                    <path d="M262.646,166.604L262.646,171.097" style="fill:none;stroke-width:1.81px;stroke:rgb(96,96,96);"/>
                </g>
                <g>
                    <path d="M264.734,158.984L264.734,163.478" style="fill:none;stroke-width:1.81px;stroke:rgb(96,96,96);"/>
                    <path d="M264.734,166.604L264.734,171.097" style="fill:none;stroke-width:1.81px;stroke:rgb(96,96,96);"/>
                </g>
                <g>
                    <path d="M263.7,137.106L263.7,140.667" style="fill:none;stroke-width:1.81px;stroke:rgb(96,96,96);"/>
                    <path d="M262.636,139.889L264.764,139.889" style="fill:none;stroke-width:1.81px;stroke:rgb(96,96,96);"/>
                </g>
                <path d="M263.708,140.916L261.04,146.645L266.36,146.645L263.708,140.916Z" style="fill:none;stroke-width:1.81px;stroke:rgb(96,96,96);"/>
                <path d="M267.905,148.466C267.905,149.449 267.108,150.246 266.124,150.246L261.275,150.246C260.292,150.246 259.495,149.45 259.495,148.466C259.495,147.483 260.292,146.686 261.275,146.686L266.124,146.686C267.108,146.687 267.905,147.483 267.905,148.466Z" style="fill:none;stroke-width:1.81px;stroke:rgb(96,96,96);"/>
                <path d="M260.878,153.867L266.427,153.867L266.427,156.385L260.841,156.385L260.878,153.867Z" style="fill:none;stroke-width:1.81px;stroke:rgb(96,96,96);"/>
                <g>
                    <path d="M281.184,158.984L281.184,163.478" style="fill:none;stroke-width:1.81px;stroke:rgb(96,96,96);"/>
                    <path d="M281.184,166.604L281.184,171.097" style="fill:none;stroke-width:1.81px;stroke:rgb(96,96,96);"/>
                </g>
                <g>
                    <path d="M283.272,158.984L283.272,163.478" style="fill:none;stroke-width:1.81px;stroke:rgb(96,96,96);"/>
                    <path d="M283.272,166.604L283.272,171.097" style="fill:none;stroke-width:1.81px;stroke:rgb(96,96,96);"/>
                </g>
                <g>
                    <path d="M282.238,137.106L282.238,140.667" style="fill:none;stroke-width:1.81px;stroke:rgb(96,96,96);"/>
                    <path d="M281.174,139.889L283.302,139.889" style="fill:none;stroke-width:1.81px;stroke:rgb(96,96,96);"/>
                </g>
                <path d="M282.247,140.916L279.579,146.645L284.898,146.645L282.247,140.916Z" style="fill:none;stroke-width:1.81px;stroke:rgb(96,96,96);"/>
                <path d="M286.443,148.466C286.443,149.449 285.646,150.246 284.663,150.246L279.814,150.246C278.831,150.246 278.033,149.45 278.033,148.466C278.033,147.483 278.83,146.686 279.814,146.686L284.663,146.686C285.646,146.687 286.443,147.483 286.443,148.466Z" style="fill:none;stroke-width:1.81px;stroke:rgb(96,96,96);"/>
                <path d="M279.417,153.867L284.965,153.867L284.965,156.385L279.429,156.385L279.417,153.867Z" style="fill:none;stroke-width:1.81px;stroke:rgb(96,96,96);"/>
                <path d="M266.525,151.474L279.379,151.474" style="fill:none;stroke-width:1.81px;stroke:rgb(96,96,96);"/>
                <path d="M266.507,155.126L279.379,155.126" style="fill:none;stroke-width:1.81px;stroke:rgb(96,96,96);"/>
                <path d="M266.458,173.818L279.381,173.818" style="fill:none;stroke-width:1.81px;stroke:rgb(96,96,96);"/>
                <path d="M266.458,177.541L279.381,177.541" style="fill:none;stroke-width:1.81px;stroke:rgb(96,96,96);"/>
                <path d="M272.679,126.675L267.099,143.781L278.741,143.781L272.679,126.675Z" style="fill:none;stroke-width:1.81px;stroke:rgb(96,96,96);"/>
                <path d="M263.439,181.061L263.439,196.097" style="fill:none;stroke-width:1.81px;stroke:rgb(96,96,96);"/>
                <path d="M266.005,212.04L281.961,212.04" style="fill:none;stroke-width:1.81px;stroke:rgb(96,96,96);"/>
                <circle cx="238.232" cy="162.462" r="5.602" style="fill:none;stroke-width:1.81px;stroke:rgb(96,96,96);"/>
                <path d="M221.941,162.254L230.349,162.254C230.349,157.984 233.809,154.524 238.079,154.524C242.348,154.524 245.809,157.985 245.809,162.254L256.657,162.254" style="fill:none;stroke-width:1.81px;stroke:rgb(96,96,96);"/>
                <path d="M252.801,175.417C252.801,176.087 252.258,176.631 251.588,176.631L224.631,176.631C223.962,176.631 223.418,176.087 223.418,175.417C223.418,174.747 223.961,174.204 224.631,174.204L251.588,174.204C252.258,174.204 252.801,174.747 252.801,175.417Z" style="fill:none;stroke-width:1.81px;stroke:rgb(96,96,96);"/>
                <path d="M224.401,176.691L224.401,209.07L252.064,209.07L252.064,176.532" style="fill:none;stroke-width:1.81px;stroke:rgb(96,96,96);"/>
                <rect x="224.631" y="169.865" width="27.433" height="4.338" style="fill:none;stroke-width:1.81px;stroke:rgb(96,96,96);"/>
                <path d="M228.145,169.865L228.145,174.204" style="fill:none;stroke-width:1.81px;stroke:rgb(96,96,96);"/>
                <path d="M232.012,169.865L232.012,174.204" style="fill:none;stroke-width:1.81px;stroke:rgb(96,96,96);"/>
                <path d="M235.572,169.865L235.572,174.204" style="fill:none;stroke-width:1.81px;stroke:rgb(96,96,96);"/>
                <path d="M239.317,169.865L239.317,174.204" style="fill:none;stroke-width:1.81px;stroke:rgb(96,96,96);"/>
                <path d="M243.184,169.865L243.184,174.204" style="fill:none;stroke-width:1.81px;stroke:rgb(96,96,96);"/>
                <path d="M246.745,169.865L246.745,174.204" style="fill:none;stroke-width:1.81px;stroke:rgb(96,96,96);"/>
                <path d="M250.182,169.865L250.182,174.204" style="fill:none;stroke-width:1.81px;stroke:rgb(96,96,96);"/>
                <rect x="215.118" y="209.07" width="45.483" height="4.337" style="fill:none;stroke-width:1.81px;stroke:rgb(96,96,96);"/>
                <path d="M217.992,209.07L217.992,213.407" style="fill:none;stroke-width:1.81px;stroke:rgb(96,96,96);"/>
                <path d="M223.895,209.07L223.895,213.407" style="fill:none;stroke-width:1.81px;stroke:rgb(96,96,96);"/>
                <path d="M230.307,209.07L230.307,213.407" style="fill:none;stroke-width:1.81px;stroke:rgb(96,96,96);"/>
                <path d="M236.515,209.07L236.515,213.407" style="fill:none;stroke-width:1.81px;stroke:rgb(96,96,96);"/>
                <path d="M242.418,209.07L242.418,213.407" style="fill:none;stroke-width:1.81px;stroke:rgb(96,96,96);"/>
                <path d="M248.83,209.07L248.83,213.407" style="fill:none;stroke-width:1.81px;stroke:rgb(96,96,96);"/>
                <path d="M254.529,209.07L254.529,213.407" style="fill:none;stroke-width:1.81px;stroke:rgb(96,96,96);"/>
                <path d="M215.188,223.491L222.93,216.012L230.29,223.122L238.032,216.012L245.393,223.122L253.203,216.012L260.601,223.662" style="fill:none;stroke-width:1.81px;stroke:rgb(96,96,96);"/>
                <circle cx="222.895" cy="221.837" r="1.924" style="fill:none;stroke-width:1.81px;stroke:rgb(96,96,96);"/>
                <circle cx="237.909" cy="221.837" r="1.923" style="fill:none;stroke-width:1.81px;stroke:rgb(96,96,96);"/>
                <circle cx="253.322" cy="221.363" r="1.923" style="fill:none;stroke-width:1.81px;stroke:rgb(96,96,96);"/>
                <path d="M218.131,238.412L218.131,232.765C218.131,229.262 220.293,226.421 222.96,226.421C225.627,226.421 227.789,229.262 227.789,232.765L227.789,238.412" style="fill:none;stroke-width:1.81px;stroke:rgb(96,96,96);"/>
                <g>
                    <path d="M207.878,165.078C207.878,160.942 205.947,157.589 203.565,157.589C201.182,157.589 199.252,160.942 199.252,165.078L199.252,171.83L207.878,171.83L207.878,165.078L207.878,165.078Z" style="fill:none;stroke-width:1.81px;stroke:rgb(96,96,96);"/>
                    <path d="M207.378,185.674C207.378,181.947 205.667,178.925 203.556,178.925C201.446,178.925 199.735,181.946 199.735,185.674L199.735,191.759L207.379,191.759L207.379,185.674L207.378,185.674Z" style="fill:none;stroke-width:1.81px;stroke:rgb(96,96,96);"/>
                    <path d="M207.387,204.335C207.387,200.607 205.676,197.586 203.565,197.586C201.455,197.586 199.744,200.607 199.744,204.335L199.744,210.419L207.388,210.419L207.388,204.335L207.387,204.335Z" style="fill:none;stroke-width:1.81px;stroke:rgb(96,96,96);"/>
                    <path d="M277.282,165.102C277.282,160.966 275.35,157.613 272.969,157.613C270.588,157.613 268.657,160.966 268.657,165.102L268.657,171.854L277.283,171.854L277.283,165.102L277.282,165.102Z" style="fill:none;stroke-width:1.81px;stroke:rgb(96,96,96);"/>
                    <path d="M276.782,185.698C276.782,181.97 275.071,178.95 272.959,178.95C270.849,178.95 269.138,181.971 269.138,185.698L269.138,191.782L276.782,191.782L276.782,185.698Z" style="fill:none;stroke-width:1.81px;stroke:rgb(96,96,96);"/>
                    <path d="M276.791,204.359C276.791,200.631 275.081,197.61 272.969,197.61C270.859,197.61 269.148,200.631 269.148,204.359L269.148,210.444L276.791,210.444L276.791,204.359L276.791,204.359Z" style="fill:none;stroke-width:1.81px;stroke:rgb(96,96,96);"/>
                    <path d="M196.64,242.279L196.64,226.318C196.64,222.816 198.948,219.975 201.796,219.975C204.644,219.975 206.952,222.816 206.952,226.318L206.952,242.279" style="fill:none;stroke-width:1.81px;stroke:rgb(96,96,96);"/>
                    <path d="M269.073,242.279L269.073,226.318C269.073,222.816 271.381,219.975 274.23,219.975C277.078,219.975 279.386,222.816 279.386,226.318L279.386,242.279" style="fill:none;stroke-width:1.81px;stroke:rgb(96,96,96);"/>
                </g>
                <path d="M233.105,238.412L233.105,232.765C233.105,229.262 235.267,226.421 237.934,226.421C240.601,226.421 242.763,229.262 242.763,232.765L242.763,238.412" style="fill:none;stroke-width:1.81px;stroke:rgb(96,96,96);"/>
                <path d="M248.493,238.412L248.493,232.765C248.493,229.262 250.655,226.421 253.323,226.421C255.99,226.421 258.152,229.262 258.152,232.765L258.152,238.412" style="fill:none;stroke-width:1.81px;stroke:rgb(96,96,96);"/>
                <path d="M215.089,238.412L260.759,238.412" style="fill:none;stroke-width:1.81px;stroke:rgb(96,96,96);"/>
                <path d="M215.438,177.518L224.401,177.518" style="fill:none;stroke-width:1.81px;stroke:rgb(96,96,96);"/>
                <path d="M252.064,177.518L260.841,177.518" style="fill:none;stroke-width:1.81px;stroke:rgb(96,96,96);"/>
                <path d="M261.803,178.95L263.439,181.061L265.363,178.99" style="fill:none;stroke-width:1.81px;stroke:rgb(96,96,96);"/>
                <path d="M280.341,178.95L281.978,181.061L283.901,178.99" style="fill:none;stroke-width:1.81px;stroke:rgb(96,96,96);"/>
                <path d="M303.902,221.325C303.902,221.936 303.407,222.429 302.797,222.429L297.784,222.429C297.174,222.429 296.679,221.935 296.679,221.325C296.679,220.715 297.174,220.22 297.784,220.22L302.797,220.22C303.407,220.22 303.902,220.715 303.902,221.325Z" style="fill:none;stroke-width:1.81px;stroke:rgb(96,96,96);"/>
                <path d="M376.223,221.39C376.223,222 376.74,222.495 377.379,222.495L382.625,222.495C383.265,222.495 383.781,222 383.781,221.39C383.781,220.78 383.264,220.286 382.625,220.286L377.379,220.286C376.739,220.286 376.223,220.78 376.223,221.39Z" style="fill:none;stroke-width:1.81px;stroke:rgb(96,96,96);"/>
                <path d="M337.454,184.562L337.986,182.694L338.518,184.562" style="fill:none;stroke-width:1.81px;stroke:rgb(96,96,96);"/>
                <path d="M340.812,184.562L341.343,182.694L341.875,184.562" style="fill:none;stroke-width:1.81px;stroke:rgb(96,96,96);"/>
                <rect x="337.454" y="184.562" width="1.064" height="16.487" style="fill:none;stroke-width:1.81px;stroke:rgb(96,96,96);"/>
                <rect x="340.812" y="184.562" width="1.063" height="16.487" style="fill:none;stroke-width:1.81px;stroke:rgb(96,96,96);"/>
                <path d="M282.032,221.325L296.678,221.325" style="fill:none;stroke-width:1.81px;stroke:rgb(96,96,96);"/>
                <path d="M358.856,221.39L376.238,221.39" style="fill:none;stroke-width:1.81px;stroke:rgb(96,96,96);"/>
                <path d="M260.902,176.703L260.902,178.912L266.304,178.912L266.304,176.691" style="fill:none;stroke-width:1.81px;stroke:rgb(96,96,96);"/>
                <path d="M279.44,176.703L279.44,178.912L284.842,178.912L284.842,176.691" style="fill:none;stroke-width:1.81px;stroke:rgb(96,96,96);"/>
                <path d="M267.103,175.672C267.103,176.214 266.576,176.653 265.927,176.653L261.281,176.653C260.632,176.653 260.105,176.214 260.105,175.672C260.105,175.129 260.631,174.689 261.281,174.689L265.927,174.689C266.576,174.689 267.103,175.129 267.103,175.672Z" style="fill:none;stroke-width:1.81px;stroke:rgb(96,96,96);"/>
                <path d="M285.64,175.672C285.64,176.214 285.114,176.653 284.465,176.653L279.819,176.653C279.169,176.653 278.642,176.214 278.642,175.672C278.642,175.129 279.169,174.689 279.819,174.689L284.465,174.689C285.113,174.689 285.64,175.129 285.64,175.672Z" style="fill:none;stroke-width:1.81px;stroke:rgb(96,96,96);"/>
                <path d="M191.499,176.679L191.499,178.889L196.901,178.889L196.901,176.667" style="fill:none;stroke-width:1.81px;stroke:rgb(96,96,96);"/>
                <path d="M210.037,176.679L210.037,178.889L215.438,178.889L215.438,176.667" style="fill:none;stroke-width:1.81px;stroke:rgb(96,96,96);"/>
                <path d="M197.698,175.647C197.698,176.189 197.172,176.63 196.523,176.63L191.877,176.63C191.228,176.63 190.701,176.19 190.701,175.647C190.701,175.105 191.227,174.665 191.877,174.665L196.523,174.665C197.172,174.666 197.698,175.105 197.698,175.647Z" style="fill:none;stroke-width:1.81px;stroke:rgb(96,96,96);"/>
                <path d="M216.236,175.647C216.236,176.189 215.71,176.63 215.06,176.63L210.414,176.63C209.765,176.63 209.238,176.19 209.238,175.647C209.238,175.105 209.765,174.665 210.414,174.665L215.06,174.665C215.71,174.666 216.236,175.105 216.236,175.647Z" style="fill:none;stroke-width:1.81px;stroke:rgb(96,96,96);"/>
                <path d="M466.186,161.849L443.362,145.332L420.887,163.78L420.854,167.372L443.428,148.874L466.106,165.096" style="fill:none;stroke-width:1.81px;stroke:rgb(96,96,96);"/>
                <rect x="466.195" y="150.209" width="5.524" height="24.431" style="fill:none;stroke-width:1.81px;stroke:rgb(96,96,96);"/>
                <rect x="484.734" y="150.209" width="5.524" height="24.431" style="fill:none;stroke-width:1.81px;stroke:rgb(96,96,96);"/>
                <rect x="474.648" y="143.695" width="6.973" height="7.717" style="fill:none;stroke-width:1.81px;stroke:rgb(96,96,96);"/>
                <rect x="405.208" y="143.695" width="6.972" height="7.694" style="fill:none;stroke-width:1.81px;stroke:rgb(96,96,96);"/>
                <rect x="415.329" y="150.186" width="5.524" height="24.431" style="fill:none;stroke-width:1.81px;stroke:rgb(96,96,96);"/>
                <rect x="396.792" y="150.186" width="5.523" height="24.431" style="fill:none;stroke-width:1.81px;stroke:rgb(96,96,96);"/>
                <path d="M436.19,182.711C436.19,180.932 435.362,179.489 434.341,179.489C433.32,179.489 432.492,180.931 432.492,182.711L432.492,190.265L436.189,190.265L436.189,182.711L436.19,182.711Z" style="fill:none;stroke-width:1.81px;stroke:rgb(96,96,96);"/>
                <path d="M445.332,182.711C445.332,180.932 444.505,179.489 443.484,179.489C442.463,179.489 441.635,180.931 441.635,182.711L441.635,190.265L445.331,190.265L445.331,182.711L445.332,182.711Z" style="fill:none;stroke-width:1.81px;stroke:rgb(96,96,96);"/>
                <path d="M454.476,182.711C454.476,180.932 453.649,179.489 452.628,179.489C451.607,179.489 450.779,180.931 450.779,182.711L450.779,190.265L454.475,190.265L454.475,182.711L454.476,182.711Z" style="fill:none;stroke-width:1.81px;stroke:rgb(96,96,96);"/>
                <path d="M436.346,200.918C436.346,199.624 435.519,198.574 434.498,198.574C433.477,198.574 432.649,199.624 432.649,200.918L432.649,206.415L436.345,206.415L436.345,200.918L436.346,200.918Z" style="fill:none;stroke-width:1.81px;stroke:rgb(96,96,96);"/>
                <path d="M444.897,200.918C444.897,199.624 444.069,198.574 443.048,198.574C442.027,198.574 441.199,199.624 441.199,200.918L441.199,206.415L444.896,206.415L444.896,200.918L444.897,200.918Z" style="fill:none;stroke-width:1.81px;stroke:rgb(96,96,96);"/>
                <path d="M454.633,200.918C454.633,199.624 453.805,198.574 452.783,198.574C451.763,198.574 450.935,199.624 450.935,200.918L450.935,206.415L454.632,206.415L454.632,200.918L454.633,200.918Z" style="fill:none;stroke-width:1.81px;stroke:rgb(96,96,96);"/>
                <path d="M414.287,207.33L421.101,207.33L417.847,196.035L414.287,207.33Z" style="fill:none;stroke-width:1.81px;stroke:rgb(96,96,96);"/>
                <path d="M421.509,224.805C421.509,225.415 421.015,225.91 420.404,225.91L415.392,225.91C414.781,225.91 414.288,225.415 414.288,224.805C414.288,224.194 414.781,223.699 415.392,223.699L420.404,223.699C421.015,223.699 421.509,224.194 421.509,224.805Z" style="fill:none;stroke-width:1.81px;stroke:rgb(96,96,96);"/>
                <rect x="415.044" y="207.33" width="5.359" height="16.369" style="fill:none;stroke-width:1.81px;stroke:rgb(96,96,96);"/>
                <rect x="415.217" y="225.91" width="5.17" height="16.369" style="fill:none;stroke-width:1.81px;stroke:rgb(96,96,96);"/>
                <g>
                    <path d="M415.045,212.466C415.045,211.457 415.632,210.639 416.418,210.639C417.201,210.639 417.836,211.457 417.836,212.466" style="fill:none;stroke-width:1.81px;stroke:rgb(96,96,96);"/>
                    <path d="M417.858,212.466C417.858,211.457 418.429,210.639 419.134,210.639C419.839,210.639 420.41,211.457 420.41,212.466" style="fill:none;stroke-width:1.81px;stroke:rgb(96,96,96);"/>
                </g>
                <g>
                    <path d="M415.251,230.637C415.251,229.627 415.813,228.811 416.563,228.811C417.314,228.811 417.92,229.627 417.92,230.637" style="fill:none;stroke-width:1.81px;stroke:rgb(96,96,96);"/>
                    <path d="M417.941,230.637C417.941,229.627 418.487,228.811 419.16,228.811C419.835,228.811 420.382,229.627 420.382,230.637" style="fill:none;stroke-width:1.81px;stroke:rgb(96,96,96);"/>
                </g>
                <path d="M465.137,207.38L471.95,207.38L468.696,196.085L465.137,207.38Z" style="fill:none;stroke-width:1.81px;stroke:rgb(96,96,96);"/>
                <path d="M472.36,224.855C472.36,225.463 471.865,225.959 471.255,225.959L466.242,225.959C465.632,225.959 465.137,225.464 465.137,224.855C465.137,224.244 465.632,223.747 466.242,223.747L471.255,223.747C471.865,223.748 472.36,224.244 472.36,224.855Z" style="fill:none;stroke-width:1.81px;stroke:rgb(96,96,96);"/>
                <rect x="465.894" y="207.38" width="5.361" height="16.368" style="fill:none;stroke-width:1.81px;stroke:rgb(96,96,96);"/>
                <rect x="466.068" y="225.959" width="5.169" height="16.369" style="fill:none;stroke-width:1.81px;stroke:rgb(96,96,96);"/>
                <g>
                    <path d="M465.896,212.515C465.896,211.507 466.483,210.689 467.268,210.689C468.051,210.689 468.687,211.507 468.687,212.515" style="fill:none;stroke-width:1.81px;stroke:rgb(96,96,96);"/>
                    <path d="M468.709,212.515C468.709,211.507 469.28,210.689 469.984,210.689C470.69,210.689 471.261,211.507 471.261,212.515" style="fill:none;stroke-width:1.81px;stroke:rgb(96,96,96);"/>
                </g>
                <g>
                    <path d="M466.103,230.686C466.103,229.678 466.663,228.86 467.415,228.86C468.164,228.86 468.771,229.678 468.771,230.686" style="fill:none;stroke-width:1.81px;stroke:rgb(96,96,96);"/>
                    <path d="M468.793,230.686C468.793,229.678 469.338,228.86 470.013,228.86C470.687,228.86 471.233,229.678 471.233,230.686" style="fill:none;stroke-width:1.81px;stroke:rgb(96,96,96);"/>
                </g>
                <g>
                    <path d="M408.562,116.154L408.562,126.491" style="fill:none;stroke-width:1.81px;stroke:rgb(96,96,96);"/>
                    <path d="M407.498,124.731L409.626,124.731" style="fill:none;stroke-width:1.81px;stroke:rgb(96,96,96);"/>
                </g>
                <g>
                    <path d="M398.535,158.899L398.535,163.393" style="fill:none;stroke-width:1.81px;stroke:rgb(96,96,96);"/>
                    <path d="M398.535,166.519L398.535,171.012" style="fill:none;stroke-width:1.81px;stroke:rgb(96,96,96);"/>
                </g>
                <g>
                    <path d="M400.624,158.899L400.624,163.393" style="fill:none;stroke-width:1.81px;stroke:rgb(96,96,96);"/>
                    <path d="M400.624,166.519L400.624,171.012" style="fill:none;stroke-width:1.81px;stroke:rgb(96,96,96);"/>
                </g>
                <g>
                    <path d="M399.59,137.021L399.59,140.581" style="fill:none;stroke-width:1.81px;stroke:rgb(96,96,96);"/>
                    <path d="M398.525,139.804L400.653,139.804" style="fill:none;stroke-width:1.81px;stroke:rgb(96,96,96);"/>
                </g>
                <path d="M399.599,140.831L396.929,146.56L402.249,146.56L399.599,140.831Z" style="fill:none;stroke-width:1.81px;stroke:rgb(96,96,96);"/>
                <path d="M403.794,148.381C403.794,149.364 402.997,150.161 402.015,150.161L397.165,150.161C396.182,150.161 395.385,149.364 395.385,148.381C395.385,147.398 396.182,146.601 397.165,146.601L402.015,146.601C402.997,146.602 403.794,147.398 403.794,148.381Z" style="fill:none;stroke-width:1.81px;stroke:rgb(96,96,96);"/>
                <path d="M396.768,153.782L402.315,153.782L402.315,156.299L396.73,156.299L396.768,153.782Z" style="fill:none;stroke-width:1.81px;stroke:rgb(96,96,96);"/>
                <path d="M397.691,178.864L399.328,180.976L401.252,178.905" style="fill:none;stroke-width:1.81px;stroke:rgb(96,96,96);"/>
                <g>
                    <path d="M417.072,158.899L417.072,163.393" style="fill:none;stroke-width:1.81px;stroke:rgb(96,96,96);"/>
                    <path d="M417.072,166.519L417.072,171.012" style="fill:none;stroke-width:1.81px;stroke:rgb(96,96,96);"/>
                </g>
                <g>
                    <path d="M419.16,158.899L419.16,163.393" style="fill:none;stroke-width:1.81px;stroke:rgb(96,96,96);"/>
                    <path d="M419.16,166.519L419.16,171.012" style="fill:none;stroke-width:1.81px;stroke:rgb(96,96,96);"/>
                </g>
                <g>
                    <path d="M418.126,137.021L418.126,140.581" style="fill:none;stroke-width:1.81px;stroke:rgb(96,96,96);"/>
                    <path d="M417.062,139.804L419.191,139.804" style="fill:none;stroke-width:1.81px;stroke:rgb(96,96,96);"/>
                </g>
                <path d="M418.135,140.831L415.467,146.56L420.788,146.56L418.135,140.831Z" style="fill:none;stroke-width:1.81px;stroke:rgb(96,96,96);"/>
                <path d="M422.333,148.381C422.333,149.364 421.536,150.161 420.553,150.161L415.704,150.161C414.72,150.161 413.923,149.364 413.923,148.381C413.923,147.398 414.72,146.601 415.704,146.601L420.553,146.601C421.536,146.602 422.333,147.398 422.333,148.381Z" style="fill:none;stroke-width:1.81px;stroke:rgb(96,96,96);"/>
                <path d="M415.305,153.782L420.854,153.782L420.854,156.299L415.317,156.299L415.305,153.782Z" style="fill:none;stroke-width:1.81px;stroke:rgb(96,96,96);"/>
                <path d="M416.23,178.864L417.867,180.976L419.79,178.905" style="fill:none;stroke-width:1.81px;stroke:rgb(96,96,96);"/>
                <path d="M402.413,151.389L415.269,151.389" style="fill:none;stroke-width:1.81px;stroke:rgb(96,96,96);"/>
                <path d="M402.396,155.041L415.269,155.041" style="fill:none;stroke-width:1.81px;stroke:rgb(96,96,96);"/>
                <path d="M402.348,173.733L415.271,173.733" style="fill:none;stroke-width:1.81px;stroke:rgb(96,96,96);"/>
                <path d="M402.348,177.456L415.271,177.456" style="fill:none;stroke-width:1.81px;stroke:rgb(96,96,96);"/>
                <path d="M408.568,126.59L402.988,143.695L414.63,143.695L408.568,126.59Z" style="fill:none;stroke-width:1.81px;stroke:rgb(96,96,96);"/>
                <path d="M417.911,196.036L417.911,180.976" style="fill:none;stroke-width:1.81px;stroke:rgb(96,96,96);"/>
                <path d="M468.896,193.703L487.144,193.703" style="fill:none;stroke-width:1.81px;stroke:rgb(96,96,96);"/>
                <path d="M429.924,193.703L457.075,193.703" style="fill:none;stroke-width:1.81px;stroke:rgb(96,96,96);"/>
                <path d="M399.328,193.703L417.795,193.703" style="fill:none;stroke-width:1.81px;stroke:rgb(96,96,96);"/>
                <path d="M468.876,195.912L487.153,195.912" style="fill:none;stroke-width:1.81px;stroke:rgb(96,96,96);"/>
                <path d="M429.924,195.912L457.075,195.912" style="fill:none;stroke-width:1.81px;stroke:rgb(96,96,96);"/>
                <path d="M399.55,195.912L417.911,195.912" style="fill:none;stroke-width:1.81px;stroke:rgb(96,96,96);"/>
                <path d="M399.488,211.955L415.015,211.955" style="fill:none;stroke-width:1.81px;stroke:rgb(96,96,96);"/>
                <g>
                    <path d="M477.966,116.178L477.966,126.515" style="fill:none;stroke-width:1.81px;stroke:rgb(96,96,96);"/>
                    <path d="M476.901,124.754L479.028,124.754" style="fill:none;stroke-width:1.81px;stroke:rgb(96,96,96);"/>
                </g>
                <g>
                    <path d="M467.938,158.923L467.938,163.417" style="fill:none;stroke-width:1.81px;stroke:rgb(96,96,96);"/>
                    <path d="M467.938,166.542L467.938,171.036" style="fill:none;stroke-width:1.81px;stroke:rgb(96,96,96);"/>
                </g>
                <g>
                    <path d="M470.027,158.923L470.027,163.417" style="fill:none;stroke-width:1.81px;stroke:rgb(96,96,96);"/>
                    <path d="M470.027,166.542L470.027,171.036" style="fill:none;stroke-width:1.81px;stroke:rgb(96,96,96);"/>
                </g>
                <g>
                    <path d="M468.993,137.045L468.993,140.605" style="fill:none;stroke-width:1.81px;stroke:rgb(96,96,96);"/>
                    <path d="M467.929,139.828L470.057,139.828" style="fill:none;stroke-width:1.81px;stroke:rgb(96,96,96);"/>
                </g>
                <path d="M469.001,140.854L466.332,146.583L471.653,146.583L469.001,140.854Z" style="fill:none;stroke-width:1.81px;stroke:rgb(96,96,96);"/>
                <path d="M473.197,148.405C473.197,149.387 472.401,150.185 471.419,150.185L466.569,150.185C465.585,150.185 464.789,149.388 464.789,148.405C464.789,147.422 465.585,146.624 466.569,146.624L471.419,146.624C472.401,146.625 473.197,147.422 473.197,148.405Z" style="fill:none;stroke-width:1.81px;stroke:rgb(96,96,96);"/>
                <path d="M466.171,153.806L471.72,153.806L471.72,156.323L466.134,156.323L466.171,153.806Z" style="fill:none;stroke-width:1.81px;stroke:rgb(96,96,96);"/>
                <g>
                    <path d="M486.477,158.923L486.477,163.417" style="fill:none;stroke-width:1.81px;stroke:rgb(96,96,96);"/>
                    <path d="M486.477,166.542L486.477,171.036" style="fill:none;stroke-width:1.81px;stroke:rgb(96,96,96);"/>
                </g>
                <g>
                    <path d="M488.565,158.923L488.565,163.417" style="fill:none;stroke-width:1.81px;stroke:rgb(96,96,96);"/>
                    <path d="M488.565,166.542L488.565,171.036" style="fill:none;stroke-width:1.81px;stroke:rgb(96,96,96);"/>
                </g>
                <g>
                    <path d="M487.532,137.045L487.532,140.605" style="fill:none;stroke-width:1.81px;stroke:rgb(96,96,96);"/>
                    <path d="M486.467,139.828L488.596,139.828" style="fill:none;stroke-width:1.81px;stroke:rgb(96,96,96);"/>
                </g>
                <path d="M487.538,140.854L484.871,146.583L490.191,146.583L487.538,140.854Z" style="fill:none;stroke-width:1.81px;stroke:rgb(96,96,96);"/>
                <path d="M491.736,148.405C491.736,149.387 490.939,150.185 489.956,150.185L485.107,150.185C484.123,150.185 483.326,149.388 483.326,148.405C483.326,147.422 484.123,146.624 485.107,146.624L489.956,146.624C490.939,146.625 491.736,147.422 491.736,148.405Z" style="fill:none;stroke-width:1.81px;stroke:rgb(96,96,96);"/>
                <path d="M484.71,153.806L490.259,153.806L490.259,156.323L484.721,156.323L484.71,153.806Z" style="fill:none;stroke-width:1.81px;stroke:rgb(96,96,96);"/>
                <path d="M471.818,151.412L484.673,151.412" style="fill:none;stroke-width:1.81px;stroke:rgb(96,96,96);"/>
                <path d="M471.801,155.065L484.673,155.065" style="fill:none;stroke-width:1.81px;stroke:rgb(96,96,96);"/>
                <path d="M471.751,173.756L484.675,173.756" style="fill:none;stroke-width:1.81px;stroke:rgb(96,96,96);"/>
                <path d="M471.751,177.48L484.675,177.48" style="fill:none;stroke-width:1.81px;stroke:rgb(96,96,96);"/>
                <path d="M477.972,126.613L472.392,143.719L484.035,143.719L477.972,126.613Z" style="fill:none;stroke-width:1.81px;stroke:rgb(96,96,96);"/>
                <path d="M468.733,181L468.733,196.035" style="fill:none;stroke-width:1.81px;stroke:rgb(96,96,96);"/>
                <path d="M471.298,211.979L487.255,211.979" style="fill:none;stroke-width:1.81px;stroke:rgb(96,96,96);"/>
                <circle cx="443.526" cy="162.401" r="5.602" style="fill:none;stroke-width:1.81px;stroke:rgb(96,96,96);"/>
                <path d="M427.234,162.193L435.642,162.193C435.642,157.923 439.102,154.462 443.372,154.462C447.641,154.462 451.102,157.923 451.102,162.193L461.95,162.193" style="fill:none;stroke-width:1.81px;stroke:rgb(96,96,96);"/>
                <path d="M458.093,175.355C458.093,176.025 457.551,176.569 456.881,176.569L429.924,176.569C429.255,176.569 428.711,176.026 428.711,175.355C428.711,174.686 429.255,174.142 429.924,174.142L456.881,174.142C457.551,174.142 458.093,174.686 458.093,175.355Z" style="fill:none;stroke-width:1.81px;stroke:rgb(96,96,96);"/>
                <path d="M429.694,176.629L429.694,209.008L457.357,209.008L457.357,176.471" style="fill:none;stroke-width:1.81px;stroke:rgb(96,96,96);"/>
                <rect x="429.924" y="169.804" width="27.434" height="4.337" style="fill:none;stroke-width:1.81px;stroke:rgb(96,96,96);"/>
                <path d="M433.438,169.804L433.438,174.142" style="fill:none;stroke-width:1.81px;stroke:rgb(96,96,96);"/>
                <path d="M437.305,169.804L437.305,174.142" style="fill:none;stroke-width:1.81px;stroke:rgb(96,96,96);"/>
                <path d="M440.865,169.804L440.865,174.142" style="fill:none;stroke-width:1.81px;stroke:rgb(96,96,96);"/>
                <path d="M444.61,169.804L444.61,174.142" style="fill:none;stroke-width:1.81px;stroke:rgb(96,96,96);"/>
                <path d="M448.478,169.804L448.478,174.142" style="fill:none;stroke-width:1.81px;stroke:rgb(96,96,96);"/>
                <path d="M452.037,169.804L452.037,174.142" style="fill:none;stroke-width:1.81px;stroke:rgb(96,96,96);"/>
                <path d="M455.475,169.804L455.475,174.142" style="fill:none;stroke-width:1.81px;stroke:rgb(96,96,96);"/>
                <rect x="420.411" y="209.008" width="45.484" height="4.338" style="fill:none;stroke-width:1.81px;stroke:rgb(96,96,96);"/>
                <path d="M423.285,209.008L423.285,213.346" style="fill:none;stroke-width:1.81px;stroke:rgb(96,96,96);"/>
                <path d="M429.188,209.008L429.188,213.346" style="fill:none;stroke-width:1.81px;stroke:rgb(96,96,96);"/>
                <path d="M435.6,209.008L435.6,213.346" style="fill:none;stroke-width:1.81px;stroke:rgb(96,96,96);"/>
                <path d="M441.809,209.008L441.809,213.346" style="fill:none;stroke-width:1.81px;stroke:rgb(96,96,96);"/>
                <path d="M447.711,209.008L447.711,213.346" style="fill:none;stroke-width:1.81px;stroke:rgb(96,96,96);"/>
                <path d="M454.121,209.008L454.121,213.346" style="fill:none;stroke-width:1.81px;stroke:rgb(96,96,96);"/>
                <path d="M459.823,209.008L459.823,213.346" style="fill:none;stroke-width:1.81px;stroke:rgb(96,96,96);"/>
                <path d="M420.48,223.43L428.223,215.951L435.582,223.061L443.325,215.951L450.686,223.061L458.495,215.951L465.894,223.601" style="fill:none;stroke-width:1.81px;stroke:rgb(96,96,96);"/>
                <circle cx="428.188" cy="221.775" r="1.924" style="fill:none;stroke-width:1.81px;stroke:rgb(96,96,96);"/>
                <circle cx="443.203" cy="221.775" r="1.923" style="fill:none;stroke-width:1.81px;stroke:rgb(96,96,96);"/>
                <circle cx="458.615" cy="221.302" r="1.923" style="fill:none;stroke-width:1.81px;stroke:rgb(96,96,96);"/>
                <path d="M423.425,238.351L423.425,232.704C423.425,229.201 425.586,226.36 428.253,226.36C430.92,226.36 433.081,229.201 433.081,232.704L433.081,238.351" style="fill:none;stroke-width:1.81px;stroke:rgb(96,96,96);"/>
                <g>
                    <path d="M413.172,165.016C413.172,160.88 411.24,157.528 408.859,157.528C406.478,157.528 404.547,160.881 404.547,165.016L404.547,171.768L413.173,171.768L413.173,165.016L413.172,165.016Z" style="fill:none;stroke-width:1.81px;stroke:rgb(96,96,96);"/>
                    <path d="M412.671,185.613C412.671,181.886 410.959,178.864 408.849,178.864C406.739,178.864 405.028,181.886 405.028,185.613L405.028,191.698L412.672,191.698L412.672,185.613L412.671,185.613Z" style="fill:none;stroke-width:1.81px;stroke:rgb(96,96,96);"/>
                    <path d="M412.681,204.274C412.681,200.546 410.969,197.525 408.859,197.525C406.748,197.525 405.038,200.546 405.038,204.274L405.038,210.358L412.682,210.358L412.682,204.274L412.681,204.274Z" style="fill:none;stroke-width:1.81px;stroke:rgb(96,96,96);"/>
                    <path d="M482.575,165.04C482.575,160.904 480.644,157.551 478.263,157.551C475.882,157.551 473.95,160.904 473.95,165.04L473.95,171.792L482.576,171.792L482.576,165.04L482.575,165.04Z" style="fill:none;stroke-width:1.81px;stroke:rgb(96,96,96);"/>
                    <path d="M482.074,185.637C482.074,181.91 480.363,178.888 478.252,178.888C476.142,178.888 474.431,181.91 474.431,185.637L474.431,191.722L482.075,191.722L482.075,185.637L482.074,185.637Z" style="fill:none;stroke-width:1.81px;stroke:rgb(96,96,96);"/>
                    <path d="M482.084,204.297C482.084,200.57 480.373,197.548 478.263,197.548C476.152,197.548 474.441,200.569 474.441,204.297L474.441,210.382L482.085,210.382L482.085,204.297L482.084,204.297Z" style="fill:none;stroke-width:1.81px;stroke:rgb(96,96,96);"/>
                    <path d="M401.934,242.218L401.934,226.256C401.934,222.754 404.242,219.914 407.089,219.914C409.936,219.914 412.245,222.754 412.245,226.256L412.245,242.218" style="fill:none;stroke-width:1.81px;stroke:rgb(96,96,96);"/>
                    <path d="M474.366,242.218L474.366,226.256C474.366,222.754 476.675,219.914 479.522,219.914C482.369,219.914 484.677,222.754 484.677,226.256L484.677,242.218" style="fill:none;stroke-width:1.81px;stroke:rgb(96,96,96);"/>
                </g>
                <path d="M438.398,238.351L438.398,232.704C438.398,229.201 440.561,226.36 443.227,226.36C445.894,226.36 448.055,229.201 448.055,232.704L448.055,238.351" style="fill:none;stroke-width:1.81px;stroke:rgb(96,96,96);"/>
                <path d="M453.786,238.351L453.786,232.704C453.786,229.201 455.948,226.36 458.615,226.36C461.281,226.36 463.443,229.201 463.443,232.704L463.443,238.351" style="fill:none;stroke-width:1.81px;stroke:rgb(96,96,96);"/>
                <path d="M420.382,238.351L466.053,238.351" style="fill:none;stroke-width:1.81px;stroke:rgb(96,96,96);"/>
                <path d="M420.731,177.456L429.694,177.456" style="fill:none;stroke-width:1.81px;stroke:rgb(96,96,96);"/>
                <path d="M457.357,177.456L466.134,177.456" style="fill:none;stroke-width:1.81px;stroke:rgb(96,96,96);"/>
                <path d="M467.096,178.888L468.733,181L470.657,178.929" style="fill:none;stroke-width:1.81px;stroke:rgb(96,96,96);"/>
                <path d="M485.634,178.888L487.271,181L489.193,178.929" style="fill:none;stroke-width:1.81px;stroke:rgb(96,96,96);"/>
                <path d="M399.328,180.976L399.328,242.318L417.911,242.318" style="fill:none;stroke-width:1.81px;stroke:rgb(96,96,96);"/>
                <path d="M468.733,242.343L487.192,242.343L487.192,181" style="fill:none;stroke-width:1.81px;stroke:rgb(96,96,96);"/>
                <path d="M420.387,242.279L466.068,242.279" style="fill:none;stroke-width:1.81px;stroke:rgb(96,96,96);"/>
                <path d="M466.195,176.641L466.195,178.851L471.597,178.851L471.597,176.629" style="fill:none;stroke-width:1.81px;stroke:rgb(96,96,96);"/>
                <path d="M484.734,176.641L484.734,178.851L490.135,178.851L490.135,176.629" style="fill:none;stroke-width:1.81px;stroke:rgb(96,96,96);"/>
                <path d="M472.396,175.61C472.396,176.152 471.869,176.591 471.22,176.591L466.574,176.591C465.923,176.591 465.397,176.152 465.397,175.61C465.397,175.068 465.922,174.627 466.574,174.627L471.22,174.627C471.868,174.627 472.396,175.068 472.396,175.61Z" style="fill:none;stroke-width:1.81px;stroke:rgb(96,96,96);"/>
                <path d="M490.934,175.61C490.934,176.152 490.407,176.591 489.757,176.591L485.111,176.591C484.462,176.591 483.934,176.152 483.934,175.61C483.934,175.068 484.461,174.627 485.111,174.627L489.757,174.627C490.406,174.627 490.934,175.068 490.934,175.61Z" style="fill:none;stroke-width:1.81px;stroke:rgb(96,96,96);"/>
                <path d="M396.792,176.618L396.792,178.827L402.193,178.827L402.193,176.605" style="fill:none;stroke-width:1.81px;stroke:rgb(96,96,96);"/>
                <path d="M415.329,176.618L415.329,178.827L420.731,178.827L420.731,176.605" style="fill:none;stroke-width:1.81px;stroke:rgb(96,96,96);"/>
                <path d="M402.992,175.586C402.992,176.129 402.465,176.569 401.815,176.569L397.169,176.569C396.521,176.569 395.993,176.13 395.993,175.586C395.993,175.044 396.52,174.605 397.169,174.605L401.815,174.605C402.465,174.604 402.992,175.044 402.992,175.586Z" style="fill:none;stroke-width:1.81px;stroke:rgb(96,96,96);"/>
                <path d="M421.529,175.586C421.529,176.129 421.003,176.569 420.353,176.569L415.708,176.569C415.058,176.569 414.53,176.13 414.53,175.586C414.53,175.044 415.057,174.605 415.708,174.605L420.353,174.605C421.003,174.604 421.529,175.044 421.529,175.586Z" style="fill:none;stroke-width:1.81px;stroke:rgb(96,96,96);"/>
                <path d="M336.343,106.455L336.396,105.116C336.396,105.116 336.396,104.691 336.618,104.624C336.793,104.544 336.751,104.429 336.751,104.429C336.751,104.281 336.49,104.16 336.169,104.16C335.849,104.16 335.588,104.281 335.588,104.429C335.588,104.429 335.583,104.498 335.739,104.581C335.881,104.657 335.868,104.969 335.876,105.087L335.938,106.143" style="fill:none;stroke-width:1.81px;stroke:rgb(96,96,96);"/>
                <path d="M335.984,106.992L336.003,107.308C336.003,107.308 335.998,107.568 336.168,107.563C336.339,107.558 336.311,107.279 336.311,107.279L336.332,106.764" style="fill:none;stroke-width:1.81px;stroke:rgb(96,96,96);"/>
                <g>
                    <path d="M336.02,106.942C336,106.995 335.942,107.021 335.889,107.002L335.557,106.877C335.505,106.857 335.478,106.798 335.497,106.746C335.518,106.693 335.576,106.667 335.629,106.686L335.96,106.811C336.013,106.831 336.039,106.89 336.02,106.942Z" style="fill:none;stroke-width:1.81px;stroke:rgb(96,96,96);"/>
                    <path d="M336.091,106.752C336.071,106.805 336.013,106.831 335.96,106.812L335.629,106.687C335.576,106.667 335.549,106.609 335.569,106.556C335.589,106.503 335.647,106.477 335.7,106.496L336.032,106.621C336.084,106.641 336.111,106.7 336.091,106.752Z" style="fill:none;stroke-width:1.81px;stroke:rgb(96,96,96);"/>
                    <path d="M336.163,106.562C336.142,106.614 336.084,106.641 336.032,106.621L335.7,106.496C335.647,106.476 335.621,106.418 335.64,106.365C335.66,106.313 335.718,106.286 335.771,106.305L336.103,106.43C336.155,106.451 336.183,106.509 336.163,106.562Z" style="fill:none;stroke-width:1.81px;stroke:rgb(96,96,96);"/>
                    <path d="M336.234,106.372C336.213,106.424 336.155,106.451 336.103,106.432L335.771,106.307C335.718,106.287 335.692,106.229 335.711,106.176C335.731,106.124 335.789,106.097 335.842,106.117L336.174,106.242C336.228,106.26 336.254,106.319 336.234,106.372Z" style="fill:none;stroke-width:1.81px;stroke:rgb(96,96,96);"/>
                </g>
                <path d="M336.577,106.92C336.532,106.954 336.469,106.945 336.434,106.9L336.22,106.617C336.187,106.573 336.196,106.509 336.241,106.475C336.286,106.441 336.349,106.45 336.384,106.495L336.597,106.778C336.631,106.823 336.622,106.887 336.577,106.92Z" style="fill:none;stroke-width:1.81px;stroke:rgb(96,96,96);"/>
                <path d="M335.749,104.243C335.749,104.243 335.563,104.033 335.828,103.655C336.093,103.277 336.182,102.78 336.193,102.733C336.193,102.733 336.535,103.479 336.598,103.659C336.693,103.929 336.76,104.018 336.66,104.285" style="fill:none;stroke-width:1.81px;stroke:rgb(96,96,96);"/>
                <path d="M337.27,101.305L336.193,102.733L336.193,100.989" style="fill:none;stroke-width:1.81px;stroke:rgb(96,96,96);"/>
                <path d="M335.247,101.164L336.193,102.733" style="fill:none;stroke-width:1.81px;stroke:rgb(96,96,96);"/>
                <path d="M336.577,106.92C336.577,106.92 336.599,107.265 336.39,107.74C336.259,108.034 336.484,109.754 336.484,109.754L335.936,110.945C335.936,110.945 335.475,110.654 335.493,109.683C335.512,108.711 335.731,107.765 335.731,107.765C335.731,107.765 335.283,107.061 335.53,106.881" style="fill:none;stroke-width:1.81px;stroke:rgb(96,96,96);"/>
                <path d="M338.553,109.856C338.553,109.856 338.589,110.551 338.461,110.679" style="fill:none;stroke-width:1.81px;stroke:rgb(96,96,96);"/>
                <path d="M339.596,109.729C339.596,109.729 339.581,110.495 339.964,110.764" style="fill:none;stroke-width:1.81px;stroke:rgb(96,96,96);"/>
                <path d="M339.128,107.498L339.014,107.72L338.773,107.72L338.887,107.933L338.773,108.131L339.014,108.131L339.128,108.334L339.255,108.131L339.511,108.131L339.378,107.933L339.463,107.72L339.255,107.72L339.128,107.498Z" style="fill:none;stroke-width:1.81px;stroke:rgb(96,96,96);"/>
                <path d="M339.104,108.294C339.104,108.294 339.024,108.46 338.687,108.52C338.524,108.531 338.493,108.793 338.493,108.832C338.493,108.871 338.387,109.442 338.524,109.729C338.663,110.016 338.376,109.807 338.326,109.708C338.276,109.609 337.989,109.378 338.046,109.155C338.103,108.931 338.11,108.987 338.124,108.913C338.139,108.839 338.05,108.58 338.063,108.46C338.078,108.339 338.216,108.389 338.23,108.403C338.245,108.417 338.317,108.15 338.482,108.006C338.572,107.928 338.76,107.873 338.878,107.916" style="fill:none;stroke-width:1.81px;stroke:rgb(96,96,96);"/>
                <path d="M339.167,108.272C339.167,108.272 339.627,108.484 339.713,108.765C339.798,109.045 339.603,109.708 339.603,109.708C339.603,109.708 339.703,109.847 339.844,109.626C339.986,109.406 340.003,109.3 340.003,109.194C340.003,109.088 340.174,109.012 340.194,108.913C340.215,108.814 340.276,108.768 340.145,108.743C340.013,108.719 340.017,108.63 340.01,108.566C340.002,108.503 339.929,108.015 339.471,108.073" style="fill:none;stroke-width:1.81px;stroke:rgb(96,96,96);"/>
                <path d="M338.554,109.799C338.554,109.799 338.766,110.077 339.071,110.087C339.377,110.098 339.603,109.708 339.603,109.708" style="fill:none;stroke-width:1.81px;stroke:rgb(96,96,96);"/>
                <path d="M335.561,110.309C335.561,110.309 335.2,111.389 335.71,111.679C335.853,111.756 335.98,111.715 335.98,111.715C335.98,111.715 336.107,111.765 336.107,111.864C336.107,111.963 336.122,112.211 336.356,112.254C336.589,112.296 336.37,112.502 336.511,112.537C336.654,112.573 336.852,112.658 336.88,112.771C336.908,112.884 337.022,113.75 336.83,114.558C336.639,115.367 336.46,116.706 336.577,117.026C336.695,117.345 336.908,117.572 336.908,117.572C336.908,117.572 336.78,118.033 337.093,118.16C337.043,118.607 337.121,119.727 337.128,119.756C337.135,119.784 337.071,120.337 337.752,120.826C338.057,121.67 338.319,122.081 338.319,122.081C338.319,122.081 338.326,122.201 338.432,122.244C338.538,122.286 338.666,121.981 338.744,121.826C338.822,121.67 339.191,121.444 339.269,121.572C339.347,121.699 339.176,121.933 339.319,121.982C339.461,122.032 340.248,122.018 340.283,122.024C340.318,122.031 340.503,121.542 340.95,121.698C341.396,121.854 341.255,122.138 341.255,122.138C341.255,122.138 341.51,122.152 341.425,121.784C341.496,121.67 341.432,121.635 341.297,121.451C341.162,121.267 340.964,121.118 340.886,120.664C340.808,120.21 340.616,118.714 340.503,118.551C340.39,118.388 340.383,117.736 340.411,117.48C340.439,117.224 340.233,117.289 340.318,117.104C340.403,116.92 340.602,116.714 340.602,116.714L340.672,116.279C340.672,116.279 340.893,115.99 341.233,116.019C341.574,116.047 341.531,116.182 341.531,116.182C341.531,116.182 341.552,116.14 341.488,115.756C341.425,115.373 341.63,114.969 341.534,114.678C341.439,114.387 341.396,113.749 341.403,113.345C341.411,112.941 341.148,112.962 341.183,112.678C341.219,112.394 341.304,111.239 340.616,110.944C340.185,110.779 339.964,110.763 339.964,110.763C339.964,110.763 339.759,111.111 338.937,111.054C338.711,110.869 338.418,110.586 338.192,110.614C338.192,110.614 338.079,110.735 337.972,110.678C337.865,110.621 337.702,110.678 337.518,110.543C337.334,110.408 337.128,110.451 337.057,110.437C336.987,110.423 336.592,109.65 336.485,109.753" style="fill:none;stroke-width:1.81px;stroke:rgb(96,96,96);"/>
                <path d="M337.39,110.477C337.39,110.477 337.716,112.848 337.185,114.167" style="fill:none;stroke-width:1.81px;stroke:rgb(96,96,96);"/>
                <path d="M336.355,112.253C336.355,112.253 336.716,112.366 336.958,111.742C337.2,111.118 337.337,110.679 337.337,110.679" style="fill:none;stroke-width:1.81px;stroke:rgb(96,96,96);"/>
                <path d="M338.937,111.055C338.937,111.055 339.05,111.317 339.167,111.714C339.283,112.111 339.907,112.877 340.375,112.409C340.575,112.161 340.446,111.97 340.446,111.97" style="fill:none;stroke-width:1.81px;stroke:rgb(96,96,96);"/>
                <path d="M338.039,110.945C338.039,110.945 338.476,113.714 338.554,115.544C338.631,117.373 339.454,118.72 339.851,118.792C340.248,118.863 340.375,118.607 340.375,118.607" style="fill:none;stroke-width:1.81px;stroke:rgb(96,96,96);"/>
                <path d="M338.039,112.65C338.039,112.65 337.482,117.585 339.078,120.691" style="fill:none;stroke-width:1.81px;stroke:rgb(96,96,96);"/>
                <path d="M340.877,116.499L340.782,116.494C340.886,116.514 341.013,117.449 341.013,118.692C341.013,119.361 340.946,119.963 340.84,120.375" style="fill:none;stroke-width:1.81px;stroke:rgb(96,96,96);"/>
                <path d="M341.053,121.129C341.288,120.691 341.402,119.381 341.402,118.712C341.402,117.77 341.433,116.992 341.324,116.671" style="fill:none;stroke-width:1.81px;stroke:rgb(96,96,96);"/>
                <path d="M340.835,116.641C340.782,116.641 340.738,116.597 340.738,116.544L340.739,116.204C340.739,116.151 340.783,116.107 340.836,116.107C340.889,116.107 340.933,116.151 340.933,116.205L340.933,116.544C340.934,116.597 340.89,116.641 340.835,116.641Z" style="fill:none;stroke-width:1.81px;stroke:rgb(96,96,96);"/>
                <path d="M341.031,116.641C340.978,116.641 340.934,116.597 340.934,116.544L340.934,116.204C340.934,116.151 340.978,116.107 341.031,116.107C341.086,116.107 341.13,116.151 341.128,116.205L341.128,116.544C341.128,116.597 341.084,116.641 341.031,116.641Z" style="fill:none;stroke-width:1.81px;stroke:rgb(96,96,96);"/>
                <path d="M341.225,116.689C341.172,116.689 341.128,116.646 341.128,116.592L341.129,116.253C341.129,116.199 341.173,116.156 341.226,116.156C341.279,116.156 341.323,116.2 341.323,116.253L341.323,116.593C341.324,116.646 341.28,116.69 341.225,116.689Z" style="fill:none;stroke-width:1.81px;stroke:rgb(96,96,96);"/>
                <path d="M341.421,116.788C341.368,116.788 341.324,116.745 341.324,116.691L341.324,116.352C341.324,116.298 341.368,116.255 341.421,116.255C341.476,116.255 341.52,116.299 341.518,116.352L341.518,116.691C341.518,116.745 341.474,116.788 341.421,116.788Z" style="fill:none;stroke-width:1.81px;stroke:rgb(96,96,96);"/>
                <path d="M340.782,116.494C340.782,116.494 340.663,116.503 340.616,116.625" style="fill:none;stroke-width:1.81px;stroke:rgb(96,96,96);"/>
                <path d="M280.872,241.638L280.872,180.607L282.682,180.607L282.682,243.448L192.952,243.448L192.952,180.669L194.762,180.669L194.762,241.638L280.872,241.638Z" style="fill:rgb(96,96,96);"/>
                <path d="M260.893,161.91L238.069,145.394L215.592,163.842L215.561,167.433L238.136,148.936L260.812,165.157" style="fill:none;stroke-width:1.81px;stroke:rgb(96,96,96);"/>
                <path d="M337.852,123.517C337.852,122.54 338.475,121.748 339.244,121.748L340.416,121.748C341.185,121.748 341.809,122.54 341.809,123.517" style="fill:none;stroke-width:1.81px;stroke:rgb(96,96,96);"/>
                <path d="M336.493,125.73C336.493,124.442 337.537,123.397 338.826,123.397L340.791,123.397C342.078,123.397 343.122,124.442 343.122,125.73" style="fill:none;stroke-width:1.81px;stroke:rgb(96,96,96);"/>
                <rect x="260.902" y="150.271" width="5.524" height="24.432" style="fill:none;stroke-width:1.81px;stroke:rgb(96,96,96);"/>
                <rect x="279.44" y="150.271" width="5.524" height="24.432" style="fill:none;stroke-width:1.81px;stroke:rgb(96,96,96);"/>
                <rect x="269.355" y="143.756" width="6.972" height="7.718" style="fill:none;stroke-width:1.81px;stroke:rgb(96,96,96);"/>
                <rect x="199.915" y="143.756" width="6.972" height="7.694" style="fill:none;stroke-width:1.81px;stroke:rgb(96,96,96);"/>
                <rect x="210.037" y="150.247" width="5.524" height="24.431" style="fill:none;stroke-width:1.81px;stroke:rgb(96,96,96);"/>
                <rect x="191.499" y="150.247" width="5.524" height="24.431" style="fill:none;stroke-width:1.81px;stroke:rgb(96,96,96);"/>
                <path d="M297.685,193.765L282.022,193.765" style="fill:none;stroke-width:1.81px;stroke:rgb(96,96,96);"/>
                <path d="M320.309,193.765L302.666,193.765" style="fill:none;stroke-width:1.81px;stroke:rgb(96,96,96);"/>
                <path d="M377.652,193.744L359.037,193.744" style="fill:none;stroke-width:1.81px;stroke:rgb(96,96,96);"/>
                <path d="M399.283,193.744L382.492,193.744" style="fill:none;stroke-width:1.81px;stroke:rgb(96,96,96);"/>
                <path d="M282.583,180.509L320.308,180.509" style="fill:none;stroke-width:1.81px;stroke:rgb(96,96,96);"/>
                <path d="M358.779,179.041L397.691,179.041" style="fill:none;stroke-width:1.81px;stroke:rgb(96,96,96);"/>
            </g>
        </g>
    </g>
</svg>
